GeoramaExtraCondensed-ExtraBold.ufo
<glyph name="exclam" format="2">
  <advance width="187.95999999999998"/>
  <unicode hex="0021"/>
  <outline>
    <contour>
      <point x="26.36" y="259.7" type="line"/>
      <point x="159.88" y="259.7" type="line"/>
      <point x="173.64" y="740.0" type="line"/>
      <point x="15.18" y="740.0" type="line"/>
    </contour>
    <contour>
      <point x="12.04" y="94.4" type="curve" smooth="yes"/>
      <point x="12.04" y="25.08"/>
      <point x="36.26" y="-8.6"/>
      <point x="93.97999999999999" y="-8.6" type="curve" smooth="yes"/>
      <point x="151.84" y="-8.6"/>
      <point x="175.92000000000002" y="25.08"/>
      <point x="175.92000000000002" y="94.4" type="curve" smooth="yes"/>
      <point x="175.92000000000002" y="164.57999999999998"/>
      <point x="151.84" y="198.26"/>
      <point x="93.97999999999999" y="198.26" type="curve" smooth="yes"/>
      <point x="36.12" y="198.26"/>
      <point x="12.04" y="164.57999999999998"/>
    </contour>
  </outline>
</glyph>
<glyph name="numbersign" format="2">
  <advance width="396.2"/>
  <unicode hex="0023"/>
  <outline>
    <contour>
      <point x="35.44" y="402.15999999999997" type="line"/>
      <point x="74.4" y="402.15999999999997" type="line"/>
      <point x="66.48" y="287.65999999999997" type="line"/>
      <point x="23.34" y="287.65999999999997" type="line"/>
      <point x="23.34" y="148.12" type="line"/>
      <point x="59.32" y="148.12" type="line"/>
      <point x="49.94" y="0.0" type="line"/>
      <point x="160.24" y="0.0" type="line"/>
      <point x="169.62" y="148.12" type="line"/>
      <point x="205.2" y="148.12" type="line"/>
      <point x="195.82" y="0.0" type="line"/>
      <point x="306.12" y="0.0" type="line"/>
      <point x="315.5" y="148.12" type="line"/>
      <point x="360.76" y="148.12" type="line"/>
      <point x="360.76" y="287.65999999999997" type="line"/>
      <point x="322.65999999999997" y="287.65999999999997" type="line"/>
      <point x="330.58" y="402.15999999999997" type="line"/>
      <point x="372.86" y="402.15999999999997" type="line"/>
      <point x="372.86" y="543.42" type="line"/>
      <point x="337.88" y="543.42" type="line"/>
      <point x="348.12" y="700.0" type="line"/>
      <point x="237.82" y="700.0" type="line"/>
      <point x="227.57999999999998" y="543.42" type="line"/>
      <point x="192.0" y="543.42" type="line"/>
      <point x="202.24" y="700.0" type="line"/>
      <point x="91.94" y="700.0" type="line"/>
      <point x="81.7" y="543.42" type="line"/>
      <point x="35.44" y="543.42" type="line"/>
    </contour>
    <contour>
      <point x="184.7" y="402.15999999999997" type="line"/>
      <point x="220.28" y="402.15999999999997" type="line"/>
      <point x="212.36" y="287.65999999999997" type="line"/>
      <point x="176.78" y="287.65999999999997" type="line"/>
    </contour>
  </outline>
</glyph>
<glyph name="dollar" format="2">
  <advance width="396.2"/>
  <unicode hex="0024"/>
  <outline>
    <contour>
      <point x="172.66" y="-10.0" type="curve" smooth="yes"/>
      <point x="270.78" y="-10.0"/>
      <point x="377.14" y="38.84"/>
      <point x="377.14" y="194.51999999999998" type="curve" smooth="yes"/>
      <point x="377.14" y="316.76"/>
      <point x="310.32" y="368.42"/>
      <point x="253.82" y="409.9" type="curve" smooth="yes"/>
      <point x="212.94" y="441.64"/>
      <point x="177.22" y="469.22"/>
      <point x="177.22" y="512.5" type="curve" smooth="yes"/>
      <point x="177.22" y="543.8"/>
      <point x="194.62" y="557.84"/>
      <point x="235.62" y="557.84" type="curve" smooth="yes"/>
      <point x="268.52" y="557.84"/>
      <point x="301.3" y="551.12"/>
      <point x="333.08" y="538.1" type="curve"/>
      <point x="363.44" y="677.08" type="line"/>
      <point x="332.1" y="695.54"/>
      <point x="270.1" y="710.0"/>
      <point x="205.51999999999998" y="710.0" type="curve" smooth="yes"/>
      <point x="94.9" y="710.0"/>
      <point x="25.64" y="632.2"/>
      <point x="25.64" y="512.5" type="curve" smooth="yes"/>
      <point x="25.64" y="402.3"/>
      <point x="79.7" y="342.48"/>
      <point x="131.9" y="299.14" type="curve" smooth="yes"/>
      <point x="181.38" y="257.8"/>
      <point x="229.0" y="230.36"/>
      <point x="229.0" y="188.07999999999998" type="curve" smooth="yes"/>
      <point x="229.0" y="156.48000000000002"/>
      <point x="206.46" y="137.14"/>
      <point x="166.48" y="137.14" type="curve" smooth="yes"/>
      <point x="135.74" y="137.14"/>
      <point x="98.82" y="146.3"/>
      <point x="48.42" y="165.62" type="curve"/>
      <point x="19.06" y="28.94" type="line"/>
      <point x="58.28" y="7.039999999999999"/>
      <point x="119.7" y="-10.0"/>
    </contour>
    <contour>
      <point x="124.3" y="-105.0" type="line"/>
      <point x="265.56" y="-105.0" type="line"/>
      <point x="265.56" y="20.78" type="line"/>
      <point x="124.3" y="9.76" type="line"/>
    </contour>
    <contour>
      <point x="124.3" y="677.2" type="line"/>
      <point x="265.56" y="691.24" type="line"/>
      <point x="265.56" y="803.28" type="line"/>
      <point x="124.3" y="803.28" type="line"/>
    </contour>
  </outline>
</glyph>
<glyph name="ampersand" format="2">
  <advance width="492.08"/>
  <unicode hex="0026"/>
  <outline>
    <contour>
      <point x="334.64" y="-2.24" type="line"/>
      <point x="494.4" y="-0.8399999999999999" type="line"/>
      <point x="237.56" y="432.24" type="line" smooth="yes"/>
      <point x="216.88" y="467.15999999999997"/>
      <point x="206.16" y="494.8"/>
      <point x="206.16" y="515.28" type="curve" smooth="yes"/>
      <point x="206.16" y="544.8000000000001"/>
      <point x="215.24" y="558.5600000000001"/>
      <point x="233.72" y="558.5600000000001" type="curve" smooth="yes"/>
      <point x="252.48000000000002" y="558.5600000000001"/>
      <point x="259.72" y="542.52"/>
      <point x="259.72" y="512.9599999999999" type="curve" smooth="yes"/>
      <point x="259.72" y="493.36"/>
      <point x="259.6" y="479.03999999999996"/>
      <point x="248.8" y="466.68" type="curve"/>
      <point x="299.2" y="380.0" type="line"/>
      <point x="353.28" y="408.96"/>
      <point x="388.08" y="463.12"/>
      <point x="388.08" y="546.9200000000001" type="curve" smooth="yes"/>
      <point x="388.08" y="658.0"/>
      <point x="330.56" y="710.0"/>
      <point x="232.0" y="710.0" type="curve" smooth="yes"/>
      <point x="115.24000000000001" y="710.0"/>
      <point x="55.440000000000005" y="639.64"/>
      <point x="55.440000000000005" y="522.88" type="curve" smooth="yes"/>
      <point x="55.440000000000005" y="462.56"/>
      <point x="81.19999999999999" y="404.56"/>
      <point x="114.47999999999999" y="350.59999999999997" type="curve" smooth="yes"/>
    </contour>
    <contour>
      <point x="192.72" y="-10.0" type="curve" smooth="yes"/>
      <point x="252.56" y="-10.0"/>
      <point x="297.76" y="14.84"/>
      <point x="328.92" y="59.64" type="curve"/>
      <point x="268.48" y="159.16" type="line"/>
      <point x="258.24" y="138.60000000000002"/>
      <point x="243.56" y="124.52"/>
      <point x="211.64000000000001" y="124.52" type="curve" smooth="yes"/>
      <point x="175.88" y="124.52"/>
      <point x="149.64" y="155.95999999999998"/>
      <point x="149.64" y="200.79999999999998" type="curve" smooth="yes"/>
      <point x="149.64" y="239.48"/>
      <point x="162.04000000000002" y="261.52000000000004"/>
      <point x="185.52" y="282.52" type="curve"/>
      <point x="120.75999999999999" y="395.56" type="line"/>
      <point x="39.4" y="342.44"/>
      <point x="8.520000000000001" y="271.56"/>
      <point x="8.520000000000001" y="184.32" type="curve" smooth="yes"/>
      <point x="8.520000000000001" y="66.28"/>
      <point x="82.75999999999999" y="-10.0"/>
    </contour>
    <contour>
      <point x="402.32000000000005" y="129.07999999999998" type="line"/>
      <point x="432.08" y="182.64"/>
      <point x="447.91999999999996" y="238.44"/>
      <point x="447.91999999999996" y="299.08" type="curve" smooth="yes"/>
      <point x="447.91999999999996" y="320.36"/>
      <point x="446.91999999999996" y="340.8"/>
      <point x="444.64" y="360.52000000000004" type="curve"/>
      <point x="326.44" y="360.24" type="line"/>
      <point x="327.72" y="349.84000000000003"/>
      <point x="328.72" y="338.28"/>
      <point x="328.72" y="323.88" type="curve" smooth="yes"/>
      <point x="328.72" y="300.92"/>
      <point x="324.59999999999997" y="283.24"/>
      <point x="319.47999999999996" y="267.92" type="curve"/>
    </contour>
  </outline>
</glyph>
<glyph name="quotesingle" format="2">
  <advance width="185.1"/>
  <unicode hex="0027"/>
  <outline>
    <contour>
      <point x="25.92" y="427.0" type="line"/>
      <point x="156.6" y="427.0" type="line"/>
      <point x="165.04" y="700.0" type="line"/>
      <point x="20.06" y="700.0" type="line"/>
    </contour>
  </outline>
</glyph>
<glyph name="parenleft" format="2">
  <advance width="229.48"/>
  <unicode hex="0028"/>
  <outline>
    <contour>
      <point x="19.04" y="265.0" type="curve" smooth="yes"/>
      <point x="19.04" y="-18.88"/>
      <point x="77.22" y="-196.72"/>
      <point x="221.9" y="-220.14" type="curve"/>
      <point x="221.9" y="-80.76" type="line"/>
      <point x="168.34" y="-48.480000000000004"/>
      <point x="142.51999999999998" y="17.34"/>
      <point x="142.51999999999998" y="265.0" type="curve" smooth="yes"/>
      <point x="142.51999999999998" y="512.66"/>
      <point x="168.34" y="578.48"/>
      <point x="221.9" y="610.76" type="curve"/>
      <point x="221.9" y="750.14" type="line"/>
      <point x="77.22" y="726.72"/>
      <point x="19.04" y="548.88"/>
    </contour>
  </outline>
</glyph>
<glyph name="parenright" format="2">
  <advance width="229.48"/>
  <unicode hex="0029"/>
  <outline>
    <contour>
      <point x="7.58" y="-80.76" type="curve"/>
      <point x="7.58" y="-220.14" type="line"/>
      <point x="152.26" y="-196.72"/>
      <point x="210.44" y="-18.88"/>
      <point x="210.44" y="265.0" type="curve" smooth="yes"/>
      <point x="210.44" y="548.88"/>
      <point x="152.26" y="726.72"/>
      <point x="7.58" y="750.14" type="curve"/>
      <point x="7.58" y="610.76" type="line"/>
      <point x="61.14" y="578.48"/>
      <point x="86.96000000000001" y="512.66"/>
      <point x="86.96000000000001" y="265.0" type="curve" smooth="yes"/>
      <point x="86.96000000000001" y="17.34"/>
      <point x="61.14" y="-48.480000000000004"/>
    </contour>
  </outline>
</glyph>
<glyph name="asterisk" format="2">
  <advance width="317.88"/>
  <unicode hex="002A"/>
  <outline>
    <contour>
      <point x="99.75999999999999" y="423.8" type="line"/>
      <point x="158.94" y="491.88" type="line"/>
      <point x="218.12" y="423.8" type="line"/>
      <point x="276.98" y="464.76" type="line"/>
      <point x="233.85999999999999" y="544.58" type="line"/>
      <point x="312.72" y="584.14" type="line"/>
      <point x="290.24" y="652.6" type="line"/>
      <point x="204.92000000000002" y="633.1" type="line"/>
      <point x="195.45999999999998" y="724.46" type="line"/>
      <point x="122.42" y="724.46" type="line"/>
      <point x="112.96000000000001" y="633.1" type="line"/>
      <point x="27.64" y="652.6" type="line"/>
      <point x="5.16" y="584.14" type="line"/>
      <point x="84.02" y="544.58" type="line"/>
      <point x="40.9" y="464.76" type="line"/>
    </contour>
  </outline>
</glyph>
<glyph name="plus" format="2">
  <advance width="413.0"/>
  <unicode hex="002B"/>
  <outline>
    <contour>
      <point x="136.3" y="150.26" type="line"/>
      <point x="276.7" y="150.26" type="line"/>
      <point x="276.7" y="254.92000000000002" type="line"/>
      <point x="371.42" y="254.92000000000002" type="line"/>
      <point x="371.42" y="395.32" type="line"/>
      <point x="276.7" y="395.32" type="line"/>
      <point x="276.7" y="499.98" type="line"/>
      <point x="136.3" y="499.98" type="line"/>
      <point x="136.3" y="395.32" type="line"/>
      <point x="41.58" y="395.32" type="line"/>
      <point x="41.58" y="254.92000000000002" type="line"/>
      <point x="136.3" y="254.92000000000002" type="line"/>
    </contour>
  </outline>
</glyph>
<glyph name="comma" format="2">
  <advance width="184.6"/>
  <unicode hex="002C"/>
  <outline>
    <contour>
      <point x="17.380000000000003" y="100.22" type="line"/>
      <point x="23.52" y="62.16"/>
      <point x="24.080000000000002" y="29.700000000000003"/>
      <point x="24.080000000000002" y="16.14" type="curve" smooth="yes"/>
      <point x="24.080000000000002" y="-32.96"/>
      <point x="6.219999999999999" y="-92.36"/>
      <point x="-21.44" y="-147.57999999999998" type="curve"/>
      <point x="92.76" y="-180.78" type="line"/>
      <point x="145.04" y="-108.24000000000001"/>
      <point x="167.92000000000002" y="-50.18"/>
      <point x="167.92000000000002" y="20.439999999999998" type="curve" smooth="yes"/>
      <point x="167.92000000000002" y="55.199999999999996"/>
      <point x="162.34" y="80.78"/>
      <point x="157.06" y="102.06" type="curve"/>
    </contour>
  </outline>
</glyph>
<glyph name="hyphen" format="2">
  <advance width="297.82"/>
  <unicode hex="002D"/>
  <outline>
    <contour>
      <point x="30.34" y="236.94" type="line"/>
      <point x="267.48" y="236.94" type="line"/>
      <point x="267.48" y="389.38" type="line"/>
      <point x="30.34" y="389.38" type="line"/>
    </contour>
  </outline>
</glyph>
<glyph name="period" format="2">
  <advance width="184.6"/>
  <unicode hex="002E"/>
  <outline>
    <contour>
      <point x="10.36" y="96.98" type="curve" smooth="yes"/>
      <point x="10.36" y="27.66"/>
      <point x="34.58" y="-6.02"/>
      <point x="92.3" y="-6.02" type="curve" smooth="yes"/>
      <point x="150.16" y="-6.02"/>
      <point x="174.24" y="27.66"/>
      <point x="174.24" y="96.98" type="curve" smooth="yes"/>
      <point x="174.24" y="167.16"/>
      <point x="150.16" y="200.84"/>
      <point x="92.3" y="200.84" type="curve" smooth="yes"/>
      <point x="34.44" y="200.84"/>
      <point x="10.36" y="167.16"/>
    </contour>
  </outline>
</glyph>
<glyph name="slash" format="2">
  <advance width="362.0"/>
  <unicode hex="002F"/>
  <outline>
    <contour>
      <point x="-8.32" y="-210.0" type="line"/>
      <point x="122.48" y="-210.0" type="line"/>
      <point x="370.32" y="740.0" type="line"/>
      <point x="238.66" y="740.0" type="line"/>
    </contour>
  </outline>
</glyph>
<glyph name="zero" format="2">
  <advance width="396.2"/>
  <unicode hex="0030"/>
  <outline>
    <contour>
      <point x="15.0" y="350.0" type="curve" smooth="yes"/>
      <point x="15.0" y="82.03999999999999"/>
      <point x="60.9" y="-10.0"/>
      <point x="198.1" y="-10.0" type="curve" smooth="yes"/>
      <point x="332.72" y="-10.0"/>
      <point x="381.2" y="85.48"/>
      <point x="381.2" y="350.0" type="curve" smooth="yes"/>
      <point x="381.2" y="615.52"/>
      <point x="345.62" y="710.0"/>
      <point x="198.1" y="710.0" type="curve" smooth="yes"/>
      <point x="58.32" y="710.0"/>
      <point x="15.0" y="622.4"/>
    </contour>
    <contour>
      <point x="170.02" y="338.82" type="curve" smooth="yes"/>
      <point x="170.02" y="553.94"/>
      <point x="176.38" y="564.44"/>
      <point x="198.1" y="564.44" type="curve" smooth="yes"/>
      <point x="219.82" y="564.44"/>
      <point x="226.18" y="554.8"/>
      <point x="226.18" y="338.82" type="curve" smooth="yes"/>
      <point x="226.18" y="151.36"/>
      <point x="222.4" y="135.56"/>
      <point x="198.1" y="135.56" type="curve" smooth="yes"/>
      <point x="173.8" y="135.56"/>
      <point x="170.02" y="150.5"/>
    </contour>
  </outline>
</glyph>
<glyph name="one" format="2">
  <advance width="396.2"/>
  <unicode hex="0031"/>
  <outline>
    <contour>
      <point x="53.839999999999996" y="0.0" type="line"/>
      <point x="366.7" y="0.0" type="line"/>
      <point x="366.7" y="140.39999999999998" type="line"/>
      <point x="292.78" y="140.39999999999998" type="line"/>
      <point x="292.78" y="700.0" type="line"/>
      <point x="214.56" y="700.0" type="line"/>
      <point x="36.4" y="640.2" type="line"/>
      <point x="61.3" y="479.14" type="line"/>
      <point x="138.62" y="505.9" type="line"/>
      <point x="138.62" y="140.39999999999998" type="line"/>
      <point x="53.839999999999996" y="140.39999999999998" type="line"/>
    </contour>
  </outline>
</glyph>
<glyph name="two" format="2">
  <advance width="396.2"/>
  <unicode hex="0032"/>
  <outline>
    <contour>
      <point x="42.2" y="127.08" type="curve"/>
      <point x="42.9" y="0.0" type="line"/>
      <point x="361.14" y="0.0" type="line"/>
      <point x="361.14" y="140.39999999999998" type="line"/>
      <point x="212.98" y="140.39999999999998" type="line"/>
      <point x="318.38" y="306.02"/>
      <point x="350.06" y="386.7"/>
      <point x="350.06" y="508.76" type="curve" smooth="yes"/>
      <point x="350.06" y="640.78"/>
      <point x="294.14" y="710.0"/>
      <point x="185.26" y="710.0" type="curve" smooth="yes"/>
      <point x="122.02" y="710.0"/>
      <point x="69.22" y="690.98"/>
      <point x="18.72" y="650.98" type="curve"/>
      <point x="74.72" y="491.06" type="line"/>
      <point x="99.58" y="510.44"/>
      <point x="119.0" y="518.14"/>
      <point x="144.84" y="518.14" type="curve" smooth="yes"/>
      <point x="176.22" y="518.14"/>
      <point x="195.18" y="496.76"/>
      <point x="195.18" y="447.4" type="curve" smooth="yes"/>
      <point x="195.18" y="385.1"/>
      <point x="134.1" y="267.02"/>
    </contour>
  </outline>
</glyph>
<glyph name="three" format="2">
  <advance width="396.2"/>
  <unicode hex="0033"/>
  <outline>
    <contour>
      <point x="14.32" y="37.3" type="line"/>
      <point x="70.58" y="2.2800000000000002"/>
      <point x="109.18" y="-10.0"/>
      <point x="168.82" y="-10.0" type="curve" smooth="yes"/>
      <point x="288.68" y="-10.0"/>
      <point x="360.2" y="70.44"/>
      <point x="360.2" y="204.88" type="curve" smooth="yes"/>
      <point x="360.2" y="280.12"/>
      <point x="329.46000000000004" y="340.98"/>
      <point x="274.0" y="374.3" type="curve"/>
      <point x="322.03999999999996" y="413.64"/>
      <point x="351.36" y="475.5"/>
      <point x="351.36" y="536.58" type="curve" smooth="yes"/>
      <point x="351.36" y="642.72"/>
      <point x="283.96" y="710.0"/>
      <point x="173.98000000000002" y="710.0" type="curve" smooth="yes"/>
      <point x="112.02" y="710.0"/>
      <point x="55.5" y="691.12"/>
      <point x="12.56" y="654.64" type="curve"/>
      <point x="63.26" y="519.52" type="line"/>
      <point x="81.12" y="530.64"/>
      <point x="110.72" y="538.64"/>
      <point x="135.28" y="538.64" type="curve" smooth="yes"/>
      <point x="176.36" y="538.64"/>
      <point x="198.92" y="515.48"/>
      <point x="198.92" y="478.1" type="curve" smooth="yes"/>
      <point x="198.92" y="443.86"/>
      <point x="179.8" y="419.42"/>
      <point x="146.24" y="419.42" type="curve" smooth="yes"/>
      <point x="98.97999999999999" y="419.42" type="line"/>
      <point x="98.97999999999999" y="286.76" type="line"/>
      <point x="144.72" y="286.76" type="line" smooth="yes"/>
      <point x="184.36" y="286.76"/>
      <point x="206.9" y="262.72"/>
      <point x="206.9" y="218.64" type="curve" smooth="yes"/>
      <point x="206.9" y="177.18"/>
      <point x="182.8" y="151.04"/>
      <point x="144.88" y="151.04" type="curve" smooth="yes"/>
      <point x="118.47999999999999" y="151.04"/>
      <point x="99.06" y="157.74"/>
      <point x="69.74000000000001" y="174.85999999999999" type="curve"/>
    </contour>
  </outline>
</glyph>
<glyph name="four" format="2">
  <advance width="396.2"/>
  <unicode hex="0034"/>
  <outline>
    <contour>
      <point x="19.720000000000002" y="92.96" type="line"/>
      <point x="175.56" y="92.96" type="line"/>
      <point x="175.56" y="0.0" type="line"/>
      <point x="336.08000000000004" y="0.0" type="line"/>
      <point x="336.08000000000004" y="92.96" type="line"/>
      <point x="385.47999999999996" y="92.96" type="line"/>
      <point x="385.47999999999996" y="232.64000000000001" type="line"/>
      <point x="336.08000000000004" y="232.64000000000001" type="line"/>
      <point x="336.08000000000004" y="699.72" type="line"/>
      <point x="150.07999999999998" y="700.5600000000001" type="line"/>
      <point x="18.88" y="242.12" type="line"/>
    </contour>
    <contour>
      <point x="113.2" y="232.64000000000001" type="line"/>
      <point x="184.16" y="499.28" type="line"/>
      <point x="184.16" y="232.64000000000001" type="line"/>
    </contour>
  </outline>
</glyph>
<glyph name="five" format="2">
  <advance width="396.2"/>
  <unicode hex="0035"/>
  <outline>
    <contour>
      <point x="26.88" y="30.259999999999998" type="line"/>
      <point x="69.52" y="3.56"/>
      <point x="109.12" y="-10.0"/>
      <point x="167.2" y="-10.0" type="curve" smooth="yes"/>
      <point x="289.5" y="-10.0"/>
      <point x="376.06" y="76.03999999999999"/>
      <point x="376.06" y="231.56" type="curve" smooth="yes"/>
      <point x="376.06" y="356.72"/>
      <point x="321.15999999999997" y="419.42"/>
      <point x="236.14" y="425.44" type="curve" smooth="yes"/>
      <point x="209.92" y="427.15999999999997" type="line"/>
      <point x="218.62" y="553.58" type="line"/>
      <point x="361.22" y="553.58" type="line"/>
      <point x="361.22" y="700.0" type="line"/>
      <point x="94.7" y="700.0" type="line"/>
      <point x="59.2" y="309.8" type="line"/>
      <point x="67.48" y="297.08" type="line"/>
      <point x="144.84" y="297.08" type="line" smooth="yes"/>
      <point x="195.36" y="297.08"/>
      <point x="220.18" y="274.92"/>
      <point x="220.18" y="224.68" type="curve" smooth="yes"/>
      <point x="220.18" y="180.92000000000002"/>
      <point x="200.1" y="149.32"/>
      <point x="145.7" y="149.32" type="curve" smooth="yes"/>
      <point x="107.53999999999999" y="149.32"/>
      <point x="80.38" y="158.85999999999999"/>
      <point x="57.5" y="171.26" type="curve"/>
    </contour>
  </outline>
</glyph>
<glyph name="six" format="2">
  <advance width="396.2"/>
  <unicode hex="0036"/>
  <outline>
    <contour>
      <point x="202.1" y="-10.0" type="curve" smooth="yes"/>
      <point x="325.88" y="-10.0"/>
      <point x="385.94" y="73.0"/>
      <point x="385.94" y="242.28" type="curve" smooth="yes"/>
      <point x="385.94" y="375.6"/>
      <point x="337.62" y="455.34"/>
      <point x="256.42" y="455.34" type="curve" smooth="yes"/>
      <point x="217.74" y="455.34"/>
      <point x="189.22" y="441.6"/>
      <point x="165.02" y="413.3" type="curve"/>
      <point x="159.84" y="289.7" type="line"/>
      <point x="171.84" y="313.66"/>
      <point x="184.62" y="328.84000000000003"/>
      <point x="202.1" y="328.84000000000003" type="curve" smooth="yes"/>
      <point x="220.56" y="328.84000000000003"/>
      <point x="231.78" y="298.1"/>
      <point x="231.78" y="236.7" type="curve" smooth="yes"/>
      <point x="231.78" y="160.4"/>
      <point x="221.72" y="130.98000000000002"/>
      <point x="205.4" y="130.98000000000002" type="curve" smooth="yes"/>
      <point x="183.68" y="130.98000000000002"/>
      <point x="178.9" y="153.2"/>
      <point x="178.9" y="358.4" type="curve" smooth="yes"/>
      <point x="178.9" y="487.84000000000003"/>
      <point x="179.22" y="558.7"/>
      <point x="268.98" y="558.7" type="curve" smooth="yes"/>
      <point x="293.26" y="558.7"/>
      <point x="318.3" y="549.4200000000001"/>
      <point x="333.86" y="535.72" type="curve"/>
      <point x="382.12" y="670.98" type="line"/>
      <point x="354.24" y="692.98"/>
      <point x="292.24" y="710.0"/>
      <point x="241.74" y="710.0" type="curve" smooth="yes"/>
      <point x="95.7" y="710.0"/>
      <point x="17.86" y="580.04"/>
      <point x="17.86" y="325.28" type="curve" smooth="yes"/>
      <point x="17.86" y="92.92"/>
      <point x="75.52" y="-10.0"/>
    </contour>
  </outline>
</glyph>
<glyph name="seven" format="2">
  <advance width="396.2"/>
  <unicode hex="0037"/>
  <outline>
    <contour>
      <point x="80.38" y="0.0" type="curve"/>
      <point x="245.72" y="0.0" type="line"/>
      <point x="245.85999999999999" y="122.36"/>
      <point x="260.0" y="205.24"/>
      <point x="300.76" y="344.76" type="curve" smooth="yes"/>
      <point x="371.46000000000004" y="587.54" type="line"/>
      <point x="371.46000000000004" y="700.0" type="line"/>
      <point x="23.740000000000002" y="700.0" type="line"/>
      <point x="23.740000000000002" y="555.3" type="line"/>
      <point x="210.14" y="555.3" type="line"/>
      <point x="142.4" y="370.52" type="line" smooth="yes"/>
      <point x="97.24" y="246.1"/>
      <point x="80.38" y="137.28"/>
    </contour>
  </outline>
</glyph>
<glyph name="eight" format="2">
  <advance width="396.2"/>
  <unicode hex="0038"/>
  <outline>
    <contour>
      <point x="189.94" y="411.02" type="curve"/>
      <point x="265.72" y="349.42" type="line"/>
      <point x="336.3" y="406.58"/>
      <point x="368.62" y="467.0"/>
      <point x="368.62" y="537.68" type="curve" smooth="yes"/>
      <point x="368.62" y="644.12"/>
      <point x="305.82" y="710.0"/>
      <point x="203.4" y="710.0" type="curve" smooth="yes"/>
      <point x="88.08" y="710.0"/>
      <point x="24.42" y="642.4"/>
      <point x="24.42" y="518.76" type="curve" smooth="yes"/>
      <point x="24.42" y="308.2"/>
      <point x="234.06" y="305.88"/>
      <point x="234.06" y="180.06" type="curve" smooth="yes"/>
      <point x="234.06" y="145.84"/>
      <point x="221.7" y="126.96"/>
      <point x="200.82" y="126.96" type="curve" smooth="yes"/>
      <point x="177.07999999999998" y="126.96"/>
      <point x="163.14" y="148.7"/>
      <point x="163.14" y="191.64" type="curve" smooth="yes"/>
      <point x="163.14" y="239.78"/>
      <point x="177.38" y="265.64"/>
      <point x="206.7" y="298.46000000000004" type="curve"/>
      <point x="122.18" y="369.8" type="line"/>
      <point x="50.6" y="322.54"/>
      <point x="15.86" y="259.86"/>
      <point x="15.86" y="180.9" type="curve" smooth="yes"/>
      <point x="15.86" y="59.16"/>
      <point x="81.52" y="-10.0"/>
      <point x="195.51999999999998" y="-10.0" type="curve" smooth="yes"/>
      <point x="315.4" y="-10.0"/>
      <point x="381.34000000000003" y="59.019999999999996"/>
      <point x="381.34000000000003" y="185.94" type="curve" smooth="yes"/>
      <point x="381.34000000000003" y="414.92"/>
      <point x="168.26" y="398.74"/>
      <point x="168.26" y="521.04" type="curve" smooth="yes"/>
      <point x="168.26" y="549.7"/>
      <point x="180.2" y="569.74"/>
      <point x="197.38" y="569.74" type="curve" smooth="yes"/>
      <point x="219.86" y="569.74"/>
      <point x="231.66" y="549.7"/>
      <point x="231.66" y="510.88" type="curve" smooth="yes"/>
      <point x="231.66" y="465.56"/>
      <point x="222.26" y="440.24"/>
    </contour>
  </outline>
</glyph>
<glyph name="nine" format="2">
  <advance width="396.2"/>
  <unicode hex="0039"/>
  <outline>
    <contour>
      <point x="162.62" y="-10.0" type="curve" smooth="yes"/>
      <point x="308.65999999999997" y="-10.0"/>
      <point x="385.94" y="119.96000000000001"/>
      <point x="385.94" y="374.72" type="curve" smooth="yes"/>
      <point x="385.94" y="607.08"/>
      <point x="328.28" y="710.0"/>
      <point x="201.7" y="710.0" type="curve" smooth="yes"/>
      <point x="77.92" y="710.0"/>
      <point x="17.86" y="627.0"/>
      <point x="17.86" y="457.72" type="curve" smooth="yes"/>
      <point x="17.86" y="324.4"/>
      <point x="66.18" y="244.66"/>
      <point x="147.38" y="244.66" type="curve" smooth="yes"/>
      <point x="186.06" y="244.66"/>
      <point x="214.58" y="258.68"/>
      <point x="238.78" y="286.98" type="curve"/>
      <point x="244.8" y="411.98" type="line"/>
      <point x="232.38" y="386.2"/>
      <point x="219.18" y="371.15999999999997"/>
      <point x="201.7" y="371.15999999999997" type="curve" smooth="yes"/>
      <point x="183.24" y="371.15999999999997"/>
      <point x="172.02" y="401.9"/>
      <point x="172.02" y="463.3" type="curve" smooth="yes"/>
      <point x="172.02" y="539.6"/>
      <point x="182.07999999999998" y="569.02"/>
      <point x="200.12" y="569.02" type="curve" smooth="yes"/>
      <point x="220.12" y="569.02"/>
      <point x="224.9" y="546.8"/>
      <point x="224.9" y="341.6" type="curve" smooth="yes"/>
      <point x="224.9" y="212.16"/>
      <point x="225.14" y="141.3"/>
      <point x="135.38" y="141.3" type="curve" smooth="yes"/>
      <point x="111.1" y="141.3"/>
      <point x="85.5" y="150.57999999999998"/>
      <point x="69.94" y="164.28" type="curve"/>
      <point x="21.68" y="29.02" type="line"/>
      <point x="49.56" y="7.02"/>
      <point x="112.12" y="-10.0"/>
    </contour>
  </outline>
</glyph>
<glyph name="less" format="2">
  <advance width="413.0"/>
  <unicode hex="003C"/>
  <outline>
    <contour>
      <point x="389.34" y="105.34" type="line"/>
      <point x="389.34" y="230.82" type="line"/>
      <point x="167.5" y="308.92" type="line"/>
      <point x="389.34" y="388.02" type="line"/>
      <point x="389.34" y="512.36" type="line"/>
      <point x="23.66" y="378.26" type="line"/>
      <point x="23.66" y="239.57999999999998" type="line"/>
    </contour>
  </outline>
</glyph>
<glyph name="equal" format="2">
  <advance width="395.8"/>
  <unicode hex="003D"/>
  <outline>
    <contour>
      <point x="354.22" y="269.24" type="line"/>
      <point x="41.58" y="269.24" type="line"/>
      <point x="41.58" y="128.84" type="line"/>
      <point x="354.22" y="128.84" type="line"/>
    </contour>
    <contour>
      <point x="354.22" y="490.0" type="line"/>
      <point x="41.58" y="490.0" type="line"/>
      <point x="41.58" y="349.6" type="line"/>
      <point x="354.22" y="349.6" type="line"/>
    </contour>
  </outline>
</glyph>
<glyph name="greater" format="2">
  <advance width="413.0"/>
  <unicode hex="003E"/>
  <outline>
    <contour>
      <point x="389.34" y="239.44" type="line"/>
      <point x="389.34" y="378.12" type="line"/>
      <point x="23.66" y="512.36" type="line"/>
      <point x="23.66" y="387.74" type="line"/>
      <point x="245.5" y="308.78" type="line"/>
      <point x="23.66" y="230.54" type="line"/>
      <point x="23.66" y="105.34" type="line"/>
    </contour>
  </outline>
</glyph>
<glyph name="question" format="2">
  <advance width="343.52"/>
  <unicode hex="003F"/>
  <outline>
    <contour>
      <point x="92.14" y="259.7" type="line"/>
      <point x="226.51999999999998" y="259.7" type="line"/>
      <point x="226.51999999999998" y="333.4" type="line"/>
      <point x="302.26" y="377.42"/>
      <point x="333.82" y="456.54"/>
      <point x="333.82" y="553.06" type="curve" smooth="yes"/>
      <point x="333.82" y="679.66"/>
      <point x="267.92" y="749.14"/>
      <point x="146.14" y="749.14" type="curve" smooth="yes"/>
      <point x="91.22" y="749.14"/>
      <point x="40.88" y="729.0"/>
      <point x="6.28" y="700.44" type="curve"/>
      <point x="62.14" y="555.86" type="line"/>
      <point x="89.42" y="577.6800000000001"/>
      <point x="103.8" y="579.64"/>
      <point x="121.2" y="579.64" type="curve" smooth="yes"/>
      <point x="156.0" y="579.64"/>
      <point x="174.36" y="554.1800000000001"/>
      <point x="174.36" y="520.66" type="curve" smooth="yes"/>
      <point x="174.36" y="483.7"/>
      <point x="160.68" y="442.46"/>
      <point x="88.7" y="401.74" type="curve"/>
    </contour>
    <contour>
      <point x="77.68" y="94.4" type="curve" smooth="yes"/>
      <point x="77.68" y="25.08"/>
      <point x="101.32" y="-8.6"/>
      <point x="159.76" y="-8.6" type="curve" smooth="yes"/>
      <point x="216.62" y="-8.6"/>
      <point x="241.7" y="25.08"/>
      <point x="241.7" y="94.4" type="curve" smooth="yes"/>
      <point x="241.7" y="164.57999999999998"/>
      <point x="216.62" y="198.26"/>
      <point x="159.76" y="198.26" type="curve" smooth="yes"/>
      <point x="101.03999999999999" y="198.26"/>
      <point x="77.68" y="164.57999999999998"/>
    </contour>
  </outline>
</glyph>
<glyph name="at" format="2">
  <advance width="751.8399999999999"/>
  <unicode hex="0040"/>
  <outline>
    <contour>
      <point x="385.48" y="-124.72" type="curve" smooth="yes"/>
      <point x="437.32" y="-124.72"/>
      <point x="514.72" y="-108.2"/>
      <point x="552.0799999999999" y="-84.80000000000001" type="curve"/>
      <point x="531.2" y="-23.2" type="line"/>
      <point x="485.68" y="-40.440000000000005"/>
      <point x="434.48" y="-50.959999999999994"/>
      <point x="384.76" y="-50.959999999999994" type="curve" smooth="yes"/>
      <point x="228.2" y="-50.959999999999994"/>
      <point x="106.8" y="28.16"/>
      <point x="106.8" y="262.84000000000003" type="curve" smooth="yes"/>
      <point x="106.8" y="485.76"/>
      <point x="204.48000000000002" y="640.6800000000001"/>
      <point x="394.72" y="640.6800000000001" type="curve" smooth="yes"/>
      <point x="583.48" y="640.6800000000001"/>
      <point x="653.64" y="534.32"/>
      <point x="653.64" y="334.36" type="curve" smooth="yes"/>
      <point x="653.64" y="224.20000000000002"/>
      <point x="614.8" y="142.76"/>
      <point x="578.68" y="142.76" type="curve" smooth="yes"/>
      <point x="547.9200000000001" y="142.76"/>
      <point x="527.8" y="164.92"/>
      <point x="534.0799999999999" y="244.96" type="curve" smooth="yes"/>
      <point x="558.12" y="524.84" type="line"/>
      <point x="503.88" y="548.88"/>
      <point x="460.52" y="560.04"/>
      <point x="393.64" y="560.04" type="curve" smooth="yes"/>
      <point x="251.28" y="560.04"/>
      <point x="189.56" y="425.88"/>
      <point x="189.56" y="251.76" type="curve" smooth="yes"/>
      <point x="189.56" y="96.36"/>
      <point x="243.23999999999998" y="45.64"/>
      <point x="304.44" y="45.64" type="curve" smooth="yes"/>
      <point x="354.0" y="45.64"/>
      <point x="387.96" y="72.24000000000001"/>
      <point x="422.48" y="136.48" type="curve"/>
      <point x="437.96000000000004" y="78.11999999999999"/>
      <point x="474.16" y="37.040000000000006"/>
      <point x="547.72" y="37.040000000000006" type="curve" smooth="yes"/>
      <point x="661.76" y="37.040000000000006"/>
      <point x="732.12" y="167.04000000000002"/>
      <point x="732.12" y="349.84" type="curve" smooth="yes"/>
      <point x="732.12" y="595.88"/>
      <point x="593.04" y="710.0"/>
      <point x="408.48" y="710.0" type="curve" smooth="yes"/>
      <point x="151.2" y="710.0"/>
      <point x="21.439999999999998" y="532.6"/>
      <point x="21.439999999999998" y="274.88" type="curve" smooth="yes"/>
      <point x="21.439999999999998" y="0.6799999999999997"/>
      <point x="166.60000000000002" y="-124.72"/>
    </contour>
    <contour>
      <point x="365.92" y="194.64" type="curve" smooth="yes"/>
      <point x="356.12" y="194.64"/>
      <point x="345.44" y="208.12"/>
      <point x="345.44" y="243.16000000000003" type="curve" smooth="yes"/>
      <point x="345.44" y="338.8"/>
      <point x="364.88" y="453.32000000000005"/>
      <point x="396.08000000000004" y="453.32000000000005" type="curve" smooth="yes"/>
      <point x="402.20000000000005" y="453.32000000000005"/>
      <point x="409.32" y="449.32000000000005"/>
      <point x="414.28000000000003" y="446.48" type="curve"/>
      <point x="395.08" y="252.39999999999998" type="line" smooth="yes"/>
      <point x="387.84000000000003" y="205.44"/>
      <point x="381.28" y="194.64"/>
    </contour>
  </outline>
</glyph>
<glyph name="A" format="2">
  <advance width="419.02"/>
  <unicode hex="0041"/>
  <anchor x="414.5" y="0.0" name="ogonek"/>
  <anchor x="208.36" y="0.0" name="bottom"/>
  <anchor x="208.36" y="700.0" name="top"/>
  <outline>
    <contour>
      <point x="4.52" y="0.0" type="line"/>
      <point x="158.68" y="0.0" type="line"/>
      <point x="169.6" y="109.2" type="line"/>
      <point x="246.12" y="109.2" type="line"/>
      <point x="258.62" y="0.0" type="line"/>
      <point x="414.5" y="0.0" type="line"/>
      <point x="318.7" y="701.4" type="line"/>
      <point x="96.3" y="701.4" type="line"/>
    </contour>
    <contour>
      <point x="182.92000000000002" y="275.26" type="line"/>
      <point x="208.36" y="587.92" type="line"/>
      <point x="232.8" y="275.26" type="line"/>
    </contour>
  </outline>
</glyph>
<glyph name="B" format="2">
  <advance width="405.15999999999997"/>
  <unicode hex="0042"/>
  <anchor x="201.12" y="700.0" name="top"/>
  <anchor x="201.12" y="0.0" name="bottom"/>
  <outline>
    <contour>
      <point x="24.94" y="3.459999999999999" type="line"/>
      <point x="125.19999999999999" y="-8.14"/>
      <point x="130.44" y="-10.0"/>
      <point x="198.16" y="-10.0" type="curve" smooth="yes"/>
      <point x="335.44" y="-10.0"/>
      <point x="396.78" y="57.019999999999996"/>
      <point x="396.78" y="208.52" type="curve" smooth="yes"/>
      <point x="396.78" y="285.46"/>
      <point x="367.08" y="351.18"/>
      <point x="316.68" y="385.38" type="curve"/>
      <point x="316.68" y="387.24" type="line"/>
      <point x="354.08" y="418.56"/>
      <point x="375.62" y="472.22"/>
      <point x="375.62" y="535.72" type="curve" smooth="yes"/>
      <point x="375.62" y="653.28"/>
      <point x="317.7" y="710.0"/>
      <point x="198.16" y="710.0" type="curve" smooth="yes"/>
      <point x="153.36" y="710.0"/>
      <point x="95.38" y="705.42"/>
      <point x="24.94" y="696.26" type="curve"/>
    </contour>
    <contour>
      <point x="179.1" y="415.6" type="line"/>
      <point x="179.1" y="556.4200000000001" type="line"/>
      <point x="186.07999999999998" y="559.4200000000001"/>
      <point x="193.2" y="560.4200000000001"/>
      <point x="201.74" y="560.4200000000001" type="curve" smooth="yes"/>
      <point x="227.01999999999998" y="560.4200000000001"/>
      <point x="239.52" y="535.94"/>
      <point x="239.52" y="484.98" type="curve" smooth="yes"/>
      <point x="239.52" y="438.86"/>
      <point x="227.32" y="415.6"/>
      <point x="201.14" y="415.6" type="curve" smooth="yes"/>
    </contour>
    <contour>
      <point x="179.1" y="141.85999999999999" type="curve"/>
      <point x="179.1" y="286.38" type="line"/>
      <point x="198.98000000000002" y="286.38" type="line" smooth="yes"/>
      <point x="231.0" y="286.38"/>
      <point x="245.2" y="262.66"/>
      <point x="245.2" y="212.96" type="curve" smooth="yes"/>
      <point x="245.2" y="161.48000000000002"/>
      <point x="232.42000000000002" y="138.85999999999999"/>
      <point x="202.18" y="138.85999999999999" type="curve" smooth="yes"/>
      <point x="194.76" y="138.85999999999999"/>
      <point x="188.2" y="139.85999999999999"/>
    </contour>
  </outline>
</glyph>
<glyph name="C" format="2">
  <advance width="350.08"/>
  <unicode hex="0043"/>
  <anchor x="204.46" y="700.0" name="top"/>
  <anchor x="212.06" y="0.0" name="bottom"/>
  <outline>
    <contour>
      <point x="11.66" y="348.04" type="curve" smooth="yes"/>
      <point x="11.66" y="84.96000000000001"/>
      <point x="70.82" y="-10.0"/>
      <point x="216.04" y="-10.0" type="curve" smooth="yes"/>
      <point x="262.28" y="-10.0"/>
      <point x="305.32" y="-1.9800000000000004"/>
      <point x="340.52" y="15.2" type="curve"/>
      <point x="314.15999999999997" y="161.48" type="line"/>
      <point x="295.0" y="153.04"/>
      <point x="266.15999999999997" y="146.46"/>
      <point x="246.28" y="146.46" type="curve" smooth="yes"/>
      <point x="186.01999999999998" y="146.46"/>
      <point x="166.68" y="186.8"/>
      <point x="166.68" y="343.74" type="curve" smooth="yes"/>
      <point x="166.68" y="510.48"/>
      <point x="187.74" y="554.26"/>
      <point x="244.26" y="554.26" type="curve" smooth="yes"/>
      <point x="268.0" y="554.26"/>
      <point x="286.58" y="549.6800000000001"/>
      <point x="313.32" y="539.38" type="curve"/>
      <point x="343.98" y="683.8" type="line"/>
      <point x="315.24" y="700.26"/>
      <point x="267.86" y="710.0"/>
      <point x="220.9" y="710.0" type="curve" smooth="yes"/>
      <point x="73.14" y="710.0"/>
      <point x="11.66" y="610.82"/>
    </contour>
  </outline>
</glyph>
<glyph name="D" format="2">
  <advance width="414.28"/>
  <unicode hex="0044"/>
  <anchor x="202.95999999999998" y="700.0" name="top"/>
  <outline>
    <contour>
      <point x="180.64" y="-10.0" type="curve" smooth="yes"/>
      <point x="340.68" y="-10.0"/>
      <point x="402.62" y="92.58"/>
      <point x="402.62" y="353.44" type="curve" smooth="yes"/>
      <point x="402.62" y="605.84"/>
      <point x="352.72" y="710.0"/>
      <point x="184.22" y="710.0" type="curve" smooth="yes"/>
      <point x="122.66" y="710.0"/>
      <point x="76.16" y="707.14"/>
      <point x="24.94" y="698.84" type="curve"/>
      <point x="24.94" y="-0.8399999999999999" type="line"/>
      <point x="68.16" y="-7.28"/>
      <point x="121.68" y="-10.0"/>
    </contour>
    <contour>
      <point x="199.6" y="137.85999999999999" type="curve" smooth="yes"/>
      <point x="189.32" y="137.85999999999999"/>
      <point x="184.92000000000002" y="138.85999999999999"/>
      <point x="178.24" y="140.0" type="curve"/>
      <point x="178.24" y="557.28" type="line"/>
      <point x="184.64" y="559.28"/>
      <point x="193.04" y="560.28"/>
      <point x="200.01999999999998" y="560.28" type="curve" smooth="yes"/>
      <point x="235.24" y="560.28"/>
      <point x="243.16" y="527.16"/>
      <point x="243.16" y="350.0" type="curve" smooth="yes"/>
      <point x="243.16" y="182.3"/>
      <point x="233.8" y="137.85999999999999"/>
    </contour>
  </outline>
</glyph>
<glyph name="E" format="2">
  <advance width="344.78"/>
  <unicode hex="0045"/>
  <anchor x="332.92" y="0.0" name="ogonek"/>
  <anchor x="178.14" y="0.0" name="bottom"/>
  <anchor x="177.44" y="700.0" name="top"/>
  <outline>
    <contour>
      <point x="24.94" y="0.0" type="line"/>
      <point x="332.92" y="0.0" type="line"/>
      <point x="332.92" y="155.88" type="line"/>
      <point x="179.1" y="155.88" type="line"/>
      <point x="179.1" y="276.6" type="line"/>
      <point x="300.18" y="276.6" type="line"/>
      <point x="300.18" y="423.74" type="line"/>
      <point x="179.1" y="423.74" type="line"/>
      <point x="179.1" y="539.8199999999999" type="line"/>
      <point x="322.06" y="539.8199999999999" type="line"/>
      <point x="322.06" y="700.0" type="line"/>
      <point x="24.94" y="700.0" type="line"/>
    </contour>
  </outline>
</glyph>
<glyph name="F" format="2">
  <advance width="332.08"/>
  <unicode hex="0046"/>
  <outline>
    <contour>
      <point x="24.94" y="0.0" type="line"/>
      <point x="179.95999999999998" y="0.0" type="line"/>
      <point x="179.95999999999998" y="227.88" type="line"/>
      <point x="297.52" y="227.88" type="line"/>
      <point x="297.52" y="387.92" type="line"/>
      <point x="178.24" y="387.92" type="line"/>
      <point x="178.24" y="539.8199999999999" type="line"/>
      <point x="321.2" y="539.8199999999999" type="line"/>
      <point x="321.2" y="700.0" type="line"/>
      <point x="24.94" y="700.0" type="line"/>
    </contour>
  </outline>
</glyph>
<glyph name="G" format="2">
  <advance width="396.02"/>
  <unicode hex="0047"/>
  <anchor x="208.76" y="700.0" name="top"/>
  <anchor x="209.04" y="0.0" name="bottom"/>
  <outline>
    <contour>
      <point x="11.66" y="349.76" type="curve" smooth="yes"/>
      <point x="11.66" y="101.02"/>
      <point x="70.16" y="-10.0"/>
      <point x="202.28" y="-10.0" type="curve" smooth="yes"/>
      <point x="271.56" y="-10.0"/>
      <point x="326.22" y="5.9"/>
      <point x="376.78" y="41.0" type="curve"/>
      <point x="376.78" y="404.36" type="line"/>
      <point x="198.07999999999998" y="404.36" type="line"/>
      <point x="198.07999999999998" y="254.64" type="line"/>
      <point x="235.52" y="254.64" type="line"/>
      <point x="235.52" y="145.3" type="line"/>
      <point x="229.68" y="140.57999999999998"/>
      <point x="219.12" y="137.85999999999999"/>
      <point x="206.72" y="137.85999999999999" type="curve" smooth="yes"/>
      <point x="175.74" y="137.85999999999999"/>
      <point x="164.95999999999998" y="185.4"/>
      <point x="164.95999999999998" y="337.72" type="curve" smooth="yes"/>
      <point x="164.95999999999998" y="493.82"/>
      <point x="186.92000000000002" y="555.98"/>
      <point x="242.54" y="555.98" type="curve" smooth="yes"/>
      <point x="270.58" y="555.98"/>
      <point x="309.8" y="547.96"/>
      <point x="332.24" y="538.52" type="curve"/>
      <point x="359.46000000000004" y="684.66" type="line"/>
      <point x="331.14" y="698.4"/>
      <point x="266.56" y="710.0"/>
      <point x="223.48" y="710.0" type="curve" smooth="yes"/>
      <point x="75.6" y="710.0"/>
      <point x="11.66" y="597.84"/>
    </contour>
  </outline>
</glyph>
<glyph name="H" format="2">
  <advance width="415.5"/>
  <unicode hex="0048"/>
  <anchor x="208.18" y="700.0" name="top"/>
  <outline>
    <contour>
      <point x="24.94" y="0.0" type="line"/>
      <point x="178.24" y="0.0" type="line"/>
      <point x="178.24" y="236.82" type="line"/>
      <point x="237.26" y="236.82" type="line"/>
      <point x="237.26" y="0.0" type="line"/>
      <point x="390.56" y="0.0" type="line"/>
      <point x="390.56" y="700.0" type="line"/>
      <point x="237.26" y="700.0" type="line"/>
      <point x="237.26" y="398.58" type="line"/>
      <point x="178.24" y="398.58" type="line"/>
      <point x="178.24" y="700.0" type="line"/>
      <point x="24.94" y="700.0" type="line"/>
    </contour>
  </outline>
</glyph>
<glyph name="I" format="2">
  <advance width="203.18"/>
  <unicode hex="0049"/>
  <anchor x="178.24" y="0.0" name="ogonek"/>
  <anchor x="102.02" y="0.0" name="bottom"/>
  <anchor x="102.02" y="700.0" name="top"/>
  <outline>
    <contour>
      <point x="24.94" y="0.0" type="line"/>
      <point x="178.24" y="0.0" type="line"/>
      <point x="178.24" y="700.0" type="line"/>
      <point x="24.94" y="700.0" type="line"/>
    </contour>
  </outline>
</glyph>
<glyph name="J" format="2">
  <advance width="295.74"/>
  <unicode hex="004A"/>
  <anchor x="159.5" y="700.0" name="top"/>
  <outline>
    <contour>
      <point x="0.7000000000000002" y="20.22" type="line"/>
      <point x="30.88" y="4.039999999999999"/>
      <point x="71.52" y="-10.0"/>
      <point x="126.94" y="-10.0" type="curve" smooth="yes"/>
      <point x="221.24" y="-10.0"/>
      <point x="273.22" y="57.62"/>
      <point x="273.22" y="182.82" type="curve" smooth="yes"/>
      <point x="273.22" y="700.0" type="line"/>
      <point x="38.22" y="700.0" type="line"/>
      <point x="38.22" y="540.8199999999999" type="line"/>
      <point x="119.92" y="540.8199999999999" type="line"/>
      <point x="119.92" y="245.18" type="line" smooth="yes"/>
      <point x="119.92" y="160.56"/>
      <point x="104.1" y="144.02"/>
      <point x="67.6" y="144.02" type="curve" smooth="yes"/>
      <point x="56.9" y="144.02"/>
      <point x="39.9" y="148.46"/>
      <point x="26.34" y="153.46" type="curve"/>
    </contour>
  </outline>
</glyph>
<glyph name="K" format="2">
  <advance width="436.08000000000004"/>
  <unicode hex="004B"/>
  <anchor x="219.16" y="700.0" name="top"/>
  <anchor x="231.44" y="0.0" name="bottom"/>
  <outline>
    <contour>
      <point x="390.96" y="-10.0" type="curve" smooth="yes"/>
      <point x="399.12" y="-10.0"/>
      <point x="406.55999999999995" y="-10.0"/>
      <point x="417.0" y="-8.0" type="curve"/>
      <point x="417.0" y="185.84" type="line"/>
      <point x="414.0" y="185.84"/>
      <point x="410.28" y="185.84"/>
      <point x="407.28" y="185.84" type="curve" smooth="yes"/>
      <point x="394.28" y="185.84"/>
      <point x="375.56" y="194.0"/>
      <point x="329.52" y="257.15999999999997" type="curve" smooth="yes"/>
      <point x="179.24" y="462.76000000000005" type="line"/>
      <point x="179.24" y="700.0" type="line"/>
      <point x="25.080000000000005" y="700.0" type="line"/>
      <point x="25.080000000000005" y="0.0" type="line"/>
      <point x="179.24" y="0.0" type="line"/>
      <point x="179.24" y="201.76000000000002" type="line"/>
      <point x="275.96" y="59.28" type="line" smooth="yes"/>
      <point x="305.96" y="15.4"/>
      <point x="340.44" y="-10.0"/>
    </contour>
    <contour>
      <point x="261.67999999999995" y="268.76" type="line"/>
      <point x="353.56" y="378.44"/>
      <point x="413.32" y="503.84"/>
      <point x="434.71999999999997" y="668.04" type="curve"/>
      <point x="291.56" y="700.28" type="line"/>
      <point x="275.6" y="568.6"/>
      <point x="214.68" y="451.03999999999996"/>
      <point x="176.84" y="396.40000000000003" type="curve"/>
    </contour>
  </outline>
</glyph>
<glyph name="L" format="2">
  <advance width="325.82"/>
  <unicode hex="004C"/>
  <anchor x="163.34" y="350.0" name="center"/>
  <anchor x="102.02" y="700.0" name="top"/>
  <anchor x="213.66" y="700.0" name="topright"/>
  <anchor x="170.72" y="0.0" name="bottom"/>
  <outline>
    <contour>
      <point x="24.94" y="0.0" type="line"/>
      <point x="316.65999999999997" y="0.0" type="line"/>
      <point x="316.65999999999997" y="155.74" type="line"/>
      <point x="179.1" y="155.74" type="line"/>
      <point x="179.1" y="700.0" type="line"/>
      <point x="24.94" y="700.0" type="line"/>
    </contour>
  </outline>
</glyph>
<glyph name="M" format="2">
  <advance width="511.34000000000003"/>
  <unicode hex="004D"/>
  <outline>
    <contour>
      <point x="24.94" y="0.0" type="line"/>
      <point x="162.76" y="0.0" type="line"/>
      <point x="162.76" y="409.96000000000004" type="line"/>
      <point x="215.06" y="150.57999999999998" type="line"/>
      <point x="294.42" y="150.57999999999998" type="line"/>
      <point x="348.58" y="409.82" type="line"/>
      <point x="348.58" y="0.0" type="line"/>
      <point x="486.4" y="0.0" type="line"/>
      <point x="486.4" y="700.0" type="line"/>
      <point x="326.08" y="700.0" type="line"/>
      <point x="258.32" y="401.53999999999996" type="line"/>
      <point x="190.56" y="700.0" type="line"/>
      <point x="24.94" y="700.0" type="line"/>
    </contour>
  </outline>
</glyph>
<glyph name="N" format="2">
  <advance width="431.14"/>
  <unicode hex="004E"/>
  <anchor x="215.64" y="700.0" name="top"/>
  <anchor x="215.64" y="0.0" name="bottom"/>
  <outline>
    <contour>
      <point x="24.94" y="0.0" type="line"/>
      <point x="160.18" y="0.0" type="line"/>
      <point x="160.18" y="326.26" type="line"/>
      <point x="245.88" y="0.0" type="line"/>
      <point x="406.2" y="0.0" type="line"/>
      <point x="406.2" y="700.0" type="line"/>
      <point x="270.96" y="700.0" type="line"/>
      <point x="270.96" y="347.38" type="line"/>
      <point x="186.12" y="700.0" type="line"/>
      <point x="24.94" y="700.0" type="line"/>
    </contour>
  </outline>
</glyph>
<glyph name="O" format="2">
  <advance width="404.20000000000005"/>
  <unicode hex="004F"/>
  <anchor x="286.52" y="10.32" name="ogonek"/>
  <anchor x="202.32" y="700.0" name="top"/>
  <anchor x="312.48" y="698.6" name="topright"/>
  <anchor x="201.60000000000002" y="0.0" name="bottom"/>
  <outline>
    <contour>
      <point x="202.32" y="139.72" type="curve" smooth="yes"/>
      <point x="173.60000000000002" y="139.72"/>
      <point x="169.39999999999998" y="172.60000000000002"/>
      <point x="169.39999999999998" y="349.0" type="curve" smooth="yes"/>
      <point x="169.39999999999998" y="525.96"/>
      <point x="174.32" y="560.5600000000001"/>
      <point x="202.32" y="560.5600000000001" type="curve" smooth="yes"/>
      <point x="231.32" y="560.5600000000001"/>
      <point x="235.51999999999998" y="527.6800000000001"/>
      <point x="235.51999999999998" y="350.71999999999997" type="curve" smooth="yes"/>
      <point x="235.51999999999998" y="174.32"/>
      <point x="230.6" y="139.72"/>
    </contour>
    <contour>
      <point x="201.60000000000002" y="-10.0" type="curve" smooth="yes"/>
      <point x="334.76" y="-10.0"/>
      <point x="392.4" y="74.76"/>
      <point x="392.4" y="351.72" type="curve" smooth="yes"/>
      <point x="392.4" y="626.9599999999999"/>
      <point x="335.76" y="710.0"/>
      <point x="202.32" y="710.0" type="curve" smooth="yes"/>
      <point x="69.16" y="710.0"/>
      <point x="11.8" y="625.24"/>
      <point x="11.8" y="348.28" type="curve" smooth="yes"/>
      <point x="11.8" y="73.04"/>
      <point x="68.44" y="-10.0"/>
    </contour>
  </outline>
</glyph>
<glyph name="P" format="2">
  <advance width="409.68"/>
  <unicode hex="0050"/>
  <outline>
    <contour>
      <point x="24.94" y="0.0" type="line"/>
      <point x="179.1" y="0.0" type="line"/>
      <point x="179.1" y="176.32" type="line"/>
      <point x="204.57999999999998" y="172.74"/>
      <point x="210.12" y="172.74"/>
      <point x="231.28" y="172.74" type="curve" smooth="yes"/>
      <point x="347.96000000000004" y="172.74"/>
      <point x="399.7" y="263.12"/>
      <point x="399.7" y="448.36" type="curve" smooth="yes"/>
      <point x="399.7" y="626.02"/>
      <point x="349.06" y="710.0"/>
      <point x="197.3" y="710.0" type="curve" smooth="yes"/>
      <point x="173.14" y="710.0"/>
      <point x="114.3" y="708.86"/>
      <point x="24.94" y="702.28" type="curve"/>
    </contour>
    <contour>
      <point x="179.95999999999998" y="559.86" type="line"/>
      <point x="191.66" y="562.86"/>
      <point x="202.36" y="563.0"/>
      <point x="207.76" y="563.0" type="curve" smooth="yes"/>
      <point x="236.86" y="563.0"/>
      <point x="245.54" y="530.92"/>
      <point x="245.54" y="458.26" type="curve" smooth="yes"/>
      <point x="245.54" y="353.38"/>
      <point x="233.62" y="317.44"/>
      <point x="203.04" y="317.44" type="curve" smooth="yes"/>
      <point x="193.06" y="317.44"/>
      <point x="186.94" y="317.44"/>
      <point x="179.95999999999998" y="319.3" type="curve"/>
    </contour>
  </outline>
</glyph>
<glyph name="Q" format="2">
  <advance width="404.20000000000005"/>
  <unicode hex="0051"/>
  <outline>
    <contour>
      <point x="312.56" y="50.44" type="curve"/>
      <point x="200.95999999999998" y="11.32" type="line"/>
      <point x="215.95999999999998" y="-112.12"/>
      <point x="242.56" y="-167.0"/>
      <point x="321.68" y="-167.0" type="curve" smooth="yes"/>
      <point x="345.72" y="-167.0"/>
      <point x="369.59999999999997" y="-161.28"/>
      <point x="387.6" y="-154.28" type="curve"/>
      <point x="371.28" y="1.3199999999999932" type="line"/>
      <point x="364.15999999999997" y="-2.240000000000009"/>
      <point x="355.32" y="-5.52000000000001"/>
      <point x="346.32" y="-5.52000000000001" type="curve" smooth="yes"/>
      <point x="327.79999999999995" y="-5.52000000000001"/>
      <point x="320.96" y="15.119999999999976"/>
    </contour>
    <component base="O"/>
  </outline>
</glyph>
<glyph name="R" format="2">
  <advance width="420.52"/>
  <unicode hex="0052"/>
  <anchor x="211.56" y="700.0" name="top"/>
  <anchor x="212.68" y="0.0" name="bottom"/>
  <outline>
    <contour>
      <point x="359.08000000000004" y="-10.0" type="curve" smooth="yes"/>
      <point x="384.72" y="-10.0"/>
      <point x="398.32" y="-7.72"/>
      <point x="408.48" y="-5.0" type="curve"/>
      <point x="407.64" y="169.24" type="line"/>
      <point x="404.47999999999996" y="169.24"/>
      <point x="400.08000000000004" y="169.24"/>
      <point x="396.91999999999996" y="169.24" type="curve" smooth="yes"/>
      <point x="365.44" y="169.24"/>
      <point x="345.84" y="188.27999999999997"/>
      <point x="320.84000000000003" y="273.04" type="curve"/>
      <point x="376.0" y="302.2"/>
      <point x="398.84000000000003" y="386.68"/>
      <point x="398.84000000000003" y="485.04" type="curve" smooth="yes"/>
      <point x="398.84000000000003" y="638.92"/>
      <point x="328.44" y="709.28"/>
      <point x="210.2" y="709.28" type="curve" smooth="yes"/>
      <point x="138.88" y="709.28"/>
      <point x="82.47999999999999" y="705.5600000000001"/>
      <point x="25.080000000000005" y="699.84" type="curve"/>
      <point x="25.080000000000005" y="0.0" type="line"/>
      <point x="177.24" y="0.0" type="line"/>
      <point x="177.24" y="217.44000000000003" type="line"/>
      <point x="179.36" y="217.16000000000003"/>
      <point x="181.88" y="217.16000000000003"/>
      <point x="184.83999999999997" y="217.16000000000003" type="curve" smooth="yes"/>
      <point x="186.96" y="217.16000000000003"/>
      <point x="188.92" y="217.44000000000003"/>
      <point x="191.04000000000002" y="217.72" type="curve"/>
      <point x="252.44" y="0.0"/>
      <point x="293.84" y="-10.0"/>
    </contour>
    <contour>
      <point x="199.60000000000002" y="339.12" type="curve" smooth="yes"/>
      <point x="189.04000000000002" y="339.12"/>
      <point x="184.36" y="340.12"/>
      <point x="177.24" y="341.12" type="curve"/>
      <point x="177.24" y="559.0" type="line"/>
      <point x="189.07999999999998" y="562.0"/>
      <point x="199.64" y="563.0"/>
      <point x="205.04000000000002" y="563.0" type="curve" smooth="yes"/>
      <point x="234.28" y="563.0"/>
      <point x="244.39999999999998" y="530.9200000000001"/>
      <point x="244.39999999999998" y="458.96000000000004" type="curve" smooth="yes"/>
      <point x="244.39999999999998" y="377.03999999999996"/>
      <point x="229.16000000000003" y="339.12"/>
    </contour>
  </outline>
</glyph>
<glyph name="S" format="2">
  <advance width="380.76"/>
  <unicode hex="0053"/>
  <anchor x="191.78" y="700.0" name="top"/>
  <anchor x="184.36" y="0.0" name="bottom"/>
  <outline>
    <contour>
      <point x="357.82" y="677.08" type="line"/>
      <point x="332.36" y="692.82"/>
      <point x="263.06" y="710.0"/>
      <point x="207.68" y="710.0" type="curve" smooth="yes"/>
      <point x="51.92" y="710.0"/>
      <point x="10.080000000000002" y="604.38"/>
      <point x="10.080000000000002" y="512.5" type="curve" smooth="yes"/>
      <point x="10.080000000000002" y="407.6"/>
      <point x="60.68" y="347.92"/>
      <point x="112.14" y="304.72" type="curve" smooth="yes"/>
      <point x="166.04" y="259.08"/>
      <point x="220.94" y="232.22"/>
      <point x="220.94" y="187.22" type="curve" smooth="yes"/>
      <point x="220.94" y="153.8"/>
      <point x="195.6" y="137.28"/>
      <point x="154.9" y="137.28" type="curve" smooth="yes"/>
      <point x="122.02" y="137.28"/>
      <point x="83.68" y="146.3"/>
      <point x="33.019999999999996" y="165.04" type="curve"/>
      <point x="2.66" y="28.36" type="line"/>
      <point x="59.08" y="-0.41999999999999993"/>
      <point x="114.3" y="-10.0"/>
      <point x="162.64" y="-10.0" type="curve" smooth="yes"/>
      <point x="306.36" y="-10.0"/>
      <point x="371.65999999999997" y="77.58"/>
      <point x="371.65999999999997" y="193.66" type="curve" smooth="yes"/>
      <point x="371.65999999999997" y="305.58"/>
      <point x="313.9" y="359.96"/>
      <point x="259.0" y="400.72" type="curve" smooth="yes"/>
      <point x="210.26" y="437.76"/>
      <point x="164.24" y="463.2"/>
      <point x="164.24" y="508.2" type="curve" smooth="yes"/>
      <point x="164.24" y="543.08"/>
      <point x="185.34" y="557.84"/>
      <point x="225.74" y="557.84" type="curve" smooth="yes"/>
      <point x="253.6" y="557.84"/>
      <point x="286.38" y="553.84"/>
      <point x="326.6" y="538.1" type="curve"/>
    </contour>
  </outline>
</glyph>
<glyph name="T" format="2">
  <advance width="373.32"/>
  <unicode hex="0054"/>
  <anchor x="186.66" y="700.0" name="top"/>
  <anchor x="186.66" y="0.0" name="bottom"/>
  <outline>
    <contour>
      <point x="364.02" y="540.8199999999999" type="line"/>
      <point x="364.02" y="700.0" type="line"/>
      <point x="9.3" y="700.0" type="line"/>
      <point x="9.3" y="540.8199999999999" type="line"/>
      <point x="110.44" y="540.8199999999999" type="line"/>
      <point x="110.44" y="0.0" type="line"/>
      <point x="263.74" y="0.0" type="line"/>
      <point x="263.74" y="540.8199999999999" type="line"/>
    </contour>
  </outline>
</glyph>
<glyph name="U" format="2">
  <advance width="410.52"/>
  <unicode hex="0055"/>
  <anchor x="280.94" y="1.72" name="ogonek"/>
  <anchor x="205.76" y="700.0" name="top"/>
  <anchor x="388.0" y="700.0" name="topright"/>
  <anchor x="205.76" y="0.0" name="bottom"/>
  <outline>
    <contour>
      <point x="22.52" y="194.48" type="line"/>
      <point x="22.52" y="43.519999999999996"/>
      <point x="89.84" y="-10.0"/>
      <point x="204.04" y="-10.0" type="curve" smooth="yes"/>
      <point x="324.26" y="-10.0"/>
      <point x="388.0" y="43.519999999999996"/>
      <point x="388.0" y="194.48" type="curve" smooth="yes"/>
      <point x="388.0" y="700.0" type="line"/>
      <point x="232.98" y="700.0" type="line"/>
      <point x="232.98" y="172.98" type="line" smooth="yes"/>
      <point x="232.98" y="145.1"/>
      <point x="223.1" y="135.56"/>
      <point x="204.04" y="135.56" type="curve" smooth="yes"/>
      <point x="185.84" y="135.56"/>
      <point x="175.82" y="145.1"/>
      <point x="175.82" y="172.98" type="curve" smooth="yes"/>
      <point x="175.82" y="700.0" type="line"/>
      <point x="22.52" y="700.0" type="line"/>
    </contour>
  </outline>
</glyph>
<glyph name="V" format="2">
  <advance width="418.96"/>
  <unicode hex="0056"/>
  <outline>
    <contour>
      <point x="109.24" y="0.0" type="line"/>
      <point x="315.88" y="0.0" type="line"/>
      <point x="419.28" y="700.0" type="line"/>
      <point x="252.2" y="700.28" type="line"/>
      <point x="212.56" y="149.95999999999998" type="line"/>
      <point x="167.48000000000002" y="700.28" type="line"/>
      <point x="-0.3200000000000003" y="700.0" type="line"/>
    </contour>
  </outline>
</glyph>
<glyph name="W" format="2">
  <advance width="549.9200000000001"/>
  <unicode hex="0057"/>
  <anchor x="275.32" y="700.0" name="top"/>
  <anchor x="275.32" y="0.0" name="bottom"/>
  <outline>
    <contour>
      <point x="472.91999999999996" y="0.0" type="line"/>
      <point x="550.24" y="700.0" type="line"/>
      <point x="381.32" y="700.28" type="line"/>
      <point x="375.32" y="165.2" type="line"/>
      <point x="331.32" y="651.8399999999999" type="line"/>
      <point x="219.72000000000003" y="651.8399999999999" type="line"/>
      <point x="175.72" y="165.92" type="line"/>
      <point x="168.6" y="700.28" type="line"/>
      <point x="-0.3200000000000003" y="700.0" type="line"/>
      <point x="77.0" y="0.0" type="line"/>
      <point x="243.2" y="0.0" type="line"/>
      <point x="274.76" y="387.44000000000005" type="line"/>
      <point x="304.32" y="0.0" type="line"/>
    </contour>
  </outline>
</glyph>
<glyph name="X" format="2">
  <advance width="444.88"/>
  <unicode hex="0058"/>
  <outline>
    <contour>
      <point x="-0.8000000000000007" y="0.28" type="line"/>
      <point x="182.32" y="-0.56" type="line"/>
      <point x="223.01999999999998" y="252.74" type="line"/>
      <point x="261.56" y="-0.56" type="line"/>
      <point x="445.53999999999996" y="0.28" type="line"/>
      <point x="344.24" y="355.42" type="line"/>
      <point x="437.82" y="699.58" type="line"/>
      <point x="258.14" y="700.42" type="line"/>
      <point x="222.57999999999998" y="456.36" type="line"/>
      <point x="186.6" y="700.42" type="line"/>
      <point x="7.780000000000001" y="699.58" type="line"/>
      <point x="100.64" y="354.12" type="line"/>
    </contour>
  </outline>
</glyph>
<glyph name="Y" format="2">
  <advance width="418.56"/>
  <unicode hex="0059"/>
  <anchor x="209.42000000000002" y="700.0" name="top"/>
  <anchor x="209.28" y="0.0" name="bottom"/>
  <outline>
    <contour>
      <point x="132.34" y="0.0" type="line"/>
      <point x="285.64" y="0.0" type="line"/>
      <point x="285.64" y="222.98000000000002" type="line"/>
      <point x="418.46000000000004" y="699.58" type="line"/>
      <point x="243.07999999999998" y="700.42" type="line"/>
      <point x="209.42000000000002" y="335.4" type="line"/>
      <point x="174.92" y="700.42" type="line"/>
      <point x="-0.4599999999999991" y="699.58" type="line"/>
      <point x="132.34" y="222.98000000000002" type="line"/>
    </contour>
  </outline>
</glyph>
<glyph name="Z" format="2">
  <advance width="379.0"/>
  <unicode hex="005A"/>
  <anchor x="190.04000000000002" y="350.0" name="center"/>
  <anchor x="190.04000000000002" y="0.0" name="bottom"/>
  <anchor x="194.92" y="700.0" name="top"/>
  <outline>
    <contour>
      <point x="10.84" y="0.0" type="line"/>
      <point x="366.84" y="0.0" type="line"/>
      <point x="366.84" y="150.72" type="line"/>
      <point x="168.64" y="150.72" type="line"/>
      <point x="168.64" y="151.72" type="line"/>
      <point x="364.03999999999996" y="543.24" type="line"/>
      <point x="364.03999999999996" y="700.0" type="line"/>
      <point x="20.0" y="700.0" type="line"/>
      <point x="20.0" y="549.5600000000001" type="line"/>
      <point x="206.12" y="549.5600000000001" type="line"/>
      <point x="206.12" y="548.28" type="line"/>
      <point x="10.84" y="157.04" type="line"/>
    </contour>
  </outline>
</glyph>
<glyph name="bracketleft" format="2">
  <advance width="229.48"/>
  <unicode hex="005B"/>
  <outline>
    <contour>
      <point x="136.22" y="-79.92" type="line"/>
      <point x="136.22" y="609.92" type="line"/>
      <point x="221.76" y="609.92" type="line"/>
      <point x="221.76" y="740.0" type="line"/>
      <point x="19.04" y="740.0" type="line"/>
      <point x="19.04" y="-210.0" type="line"/>
      <point x="221.76" y="-210.0" type="line"/>
      <point x="221.76" y="-79.92" type="line"/>
    </contour>
  </outline>
</glyph>
<glyph name="backslash" format="2">
  <advance width="362.0"/>
  <unicode hex="005C"/>
  <outline>
    <contour>
      <point x="123.34" y="740.0" type="line"/>
      <point x="-8.32" y="740.0" type="line"/>
      <point x="239.51999999999998" y="-210.0" type="line"/>
      <point x="370.32" y="-210.0" type="line"/>
    </contour>
  </outline>
</glyph>
<glyph name="bracketright" format="2">
  <advance width="229.48"/>
  <unicode hex="005D"/>
  <outline>
    <contour>
      <point x="7.72" y="-79.92" type="line"/>
      <point x="7.72" y="-210.0" type="line"/>
      <point x="210.44" y="-210.0" type="line"/>
      <point x="210.44" y="740.0" type="line"/>
      <point x="7.72" y="740.0" type="line"/>
      <point x="7.72" y="609.92" type="line"/>
      <point x="93.26" y="609.92" type="line"/>
      <point x="93.26" y="-79.92" type="line"/>
    </contour>
  </outline>
</glyph>
<glyph name="asciicircum" format="2">
  <advance width="413.0"/>
  <unicode hex="005E"/>
  <outline>
    <contour>
      <point x="48.480000000000004" y="247.18" type="line"/>
      <point x="158.92000000000002" y="247.18" type="line"/>
      <point x="206.5" y="540.08" type="line"/>
      <point x="254.94" y="247.18" type="line"/>
      <point x="364.52" y="247.18" type="line"/>
      <point x="284.44" y="701.4" type="line"/>
      <point x="128.56" y="701.4" type="line"/>
    </contour>
  </outline>
</glyph>
<glyph name="underscore" format="2">
  <advance width="623.48"/>
  <unicode hex="005F"/>
  <outline>
    <contour>
      <point x="17.2" y="-198.78" type="line"/>
      <point x="606.28" y="-198.78" type="line"/>
      <point x="606.28" y="-51.5" type="line"/>
      <point x="17.2" y="-51.5" type="line"/>
    </contour>
  </outline>
</glyph>
<glyph name="a" format="2">
  <advance width="393.76"/>
  <unicode hex="0061"/>
  <anchor x="391.59999999999997" y="12.76" name="ogonek"/>
  <anchor x="195.28" y="0.0" name="bottom"/>
  <anchor x="187.24" y="547.1999999999999" name="top"/>
  <outline>
    <contour>
      <point x="4.84" y="155.88" type="curve" smooth="yes"/>
      <point x="4.84" y="72.28"/>
      <point x="35.4" y="-10.0"/>
      <point x="119.2" y="-10.0" type="curve" smooth="yes"/>
      <point x="165.4" y="-10.0"/>
      <point x="187.67999999999998" y="3.5599999999999996"/>
      <point x="214.39999999999998" y="32.0" type="curve"/>
      <point x="231.16" y="5.0"/>
      <point x="256.76" y="-10.0"/>
      <point x="302.96000000000004" y="-10.0" type="curve" smooth="yes"/>
      <point x="343.91999999999996" y="-10.0"/>
      <point x="369.84000000000003" y="0.5999999999999996"/>
      <point x="391.59999999999997" y="12.76" type="curve"/>
      <point x="381.16" y="153.16" type="line"/>
      <point x="377.03999999999996" y="151.32"/>
      <point x="370.76" y="150.32"/>
      <point x="365.92" y="150.32" type="curve" smooth="yes"/>
      <point x="360.8" y="150.32"/>
      <point x="354.79999999999995" y="154.88"/>
      <point x="354.79999999999995" y="176.44" type="curve" smooth="yes"/>
      <point x="354.79999999999995" y="359.92" type="line" smooth="yes"/>
      <point x="354.79999999999995" y="483.8"/>
      <point x="305.72" y="557.1999999999999"/>
      <point x="167.04" y="557.1999999999999" type="curve" smooth="yes"/>
      <point x="126.11999999999999" y="557.1999999999999"/>
      <point x="64.0" y="544.6"/>
      <point x="21.24" y="525.72" type="curve"/>
      <point x="54.04" y="379.44" type="line"/>
      <point x="105.27999999999999" y="396.32"/>
      <point x="131.56" y="399.03999999999996"/>
      <point x="152.16" y="399.03999999999996" type="curve" smooth="yes"/>
      <point x="179.96" y="399.03999999999996"/>
      <point x="203.79999999999998" y="384.68"/>
      <point x="203.79999999999998" y="356.64" type="curve" smooth="yes"/>
      <point x="203.79999999999998" y="335.76" type="line"/>
      <point x="77.0" y="316.20000000000005"/>
      <point x="4.84" y="279.91999999999996"/>
    </contour>
    <contour>
      <point x="154.83999999999997" y="171.92" type="curve" smooth="yes"/>
      <point x="154.83999999999997" y="222.64000000000001"/>
      <point x="175.24" y="234.04"/>
      <point x="203.79999999999998" y="238.28" type="curve"/>
      <point x="203.79999999999998" y="122.6" type="line"/>
      <point x="198.84" y="115.52000000000001"/>
      <point x="188.32" y="110.72"/>
      <point x="180.28" y="110.72" type="curve" smooth="yes"/>
      <point x="165.8" y="110.72"/>
      <point x="154.83999999999997" y="126.08"/>
    </contour>
  </outline>
</glyph>
<glyph name="b" format="2">
  <advance width="392.74"/>
  <unicode hex="0062"/>
  <outline>
    <contour>
      <point x="22.5" y="16.9" type="line"/>
      <point x="68.84" y="0.8799999999999999"/>
      <point x="130.84" y="-10.0"/>
      <point x="177.36" y="-10.0" type="curve" smooth="yes"/>
      <point x="325.86" y="-10.0"/>
      <point x="380.08" y="70.44"/>
      <point x="380.08" y="291.48" type="curve" smooth="yes"/>
      <point x="380.08" y="474.52"/>
      <point x="338.48" y="557.2"/>
      <point x="245.51999999999998" y="557.2" type="curve" smooth="yes"/>
      <point x="224.24" y="557.2"/>
      <point x="193.51999999999998" y="546.48"/>
      <point x="175.8" y="532.9" type="curve"/>
      <point x="175.8" y="740.0" type="line"/>
      <point x="22.5" y="740.0" type="line"/>
    </contour>
    <contour>
      <point x="175.8" y="121.64" type="curve"/>
      <point x="175.8" y="400.24" type="line"/>
      <point x="182.74" y="406.06"/>
      <point x="187.42000000000002" y="408.48"/>
      <point x="194.07999999999998" y="408.48" type="curve" smooth="yes"/>
      <point x="211.68" y="408.48"/>
      <point x="217.32" y="380.82"/>
      <point x="217.32" y="273.42" type="curve" smooth="yes"/>
      <point x="217.32" y="144.51999999999998"/>
      <point x="212.1" y="117.94"/>
      <point x="190.42000000000002" y="117.94" type="curve" smooth="yes"/>
      <point x="186.16" y="117.94"/>
      <point x="182.32" y="119.08"/>
    </contour>
  </outline>
</glyph>
<glyph name="c" format="2">
  <advance width="330.12"/>
  <unicode hex="0063"/>
  <anchor x="205.39999999999998" y="547.1999999999999" name="top"/>
  <anchor x="211.56" y="0.0" name="bottom"/>
  <outline>
    <contour>
      <point x="12.8" y="273.04" type="curve" smooth="yes"/>
      <point x="12.8" y="82.47999999999999"/>
      <point x="72.6" y="-10.0"/>
      <point x="198.20000000000002" y="-10.0" type="curve" smooth="yes"/>
      <point x="243.44" y="-10.0"/>
      <point x="299.4" y="0.5999999999999996"/>
      <point x="324.44" y="13.2" type="curve"/>
      <point x="291.92" y="164.84" type="line"/>
      <point x="273.04" y="159.4"/>
      <point x="254.92000000000002" y="155.68"/>
      <point x="238.48000000000002" y="155.68" type="curve" smooth="yes"/>
      <point x="195.95999999999998" y="155.68"/>
      <point x="175.0" y="192.36"/>
      <point x="175.0" y="278.08000000000004" type="curve" smooth="yes"/>
      <point x="175.0" y="361.15999999999997"/>
      <point x="197.39999999999998" y="390.8"/>
      <point x="243.48000000000002" y="390.8" type="curve" smooth="yes"/>
      <point x="262.64" y="390.8"/>
      <point x="278.08" y="388.8"/>
      <point x="291.36" y="384.08000000000004" type="curve"/>
      <point x="318.44" y="541.6" type="line"/>
      <point x="295.84" y="551.04"/>
      <point x="250.60000000000002" y="557.1999999999999"/>
      <point x="208.64000000000001" y="557.1999999999999" type="curve" smooth="yes"/>
      <point x="76.75999999999999" y="557.1999999999999"/>
      <point x="12.8" y="463.0"/>
    </contour>
  </outline>
</glyph>
<glyph name="d" format="2">
  <advance width="393.6"/>
  <unicode hex="0064"/>
  <anchor x="195.07999999999998" y="275.0" name="center"/>
  <anchor x="191.34" y="740.0" name="top"/>
  <anchor x="405.72" y="740.0" name="topright"/>
  <anchor x="195.07999999999998" y="0.0" name="bottom"/>
  <outline>
    <contour>
      <point x="232.12" y="0.0" type="line"/>
      <point x="371.1" y="0.0" type="line"/>
      <point x="371.1" y="740.0" type="line"/>
      <point x="216.94" y="740.0" type="line"/>
      <point x="216.94" y="551.78" type="line"/>
      <point x="205.68" y="555.2"/>
      <point x="189.96" y="557.2"/>
      <point x="178.4" y="557.2" type="curve" smooth="yes"/>
      <point x="70.32" y="557.2"/>
      <point x="12.66" y="456.12"/>
      <point x="12.66" y="263.46" type="curve" smooth="yes"/>
      <point x="12.66" y="81.72"/>
      <point x="56.12" y="-10.0"/>
      <point x="142.62" y="-10.0" type="curve" smooth="yes"/>
      <point x="171.64" y="-10.0"/>
      <point x="202.52" y="0.43999999999999995"/>
      <point x="221.24" y="16.02" type="curve"/>
    </contour>
    <contour>
      <point x="216.94" y="141.8" type="line"/>
      <point x="212.57999999999998" y="138.56"/>
      <point x="206.18" y="136.14"/>
      <point x="200.24" y="136.14" type="curve" smooth="yes"/>
      <point x="181.92000000000002" y="136.14"/>
      <point x="176.28" y="167.95999999999998"/>
      <point x="176.28" y="288.4" type="curve" smooth="yes"/>
      <point x="176.28" y="402.68"/>
      <point x="181.5" y="426.68"/>
      <point x="202.32" y="426.68" type="curve" smooth="yes"/>
      <point x="207.44" y="426.68"/>
      <point x="210.56" y="425.54"/>
      <point x="216.94" y="420.4" type="curve"/>
    </contour>
  </outline>
</glyph>
<glyph name="e" format="2">
  <advance width="383.32"/>
  <unicode hex="0065"/>
  <anchor x="323.44" y="9.6" name="ogonek"/>
  <anchor x="195.20000000000002" y="0.0" name="bottom"/>
  <anchor x="199.07999999999998" y="547.1999999999999" name="top"/>
  <outline>
    <contour>
      <point x="197.20000000000002" y="-10.0" type="curve" smooth="yes"/>
      <point x="262.20000000000005" y="-10.0"/>
      <point x="313.0" y="0.8799999999999999"/>
      <point x="366.52" y="24.92" type="curve"/>
      <point x="345.32" y="159.16" type="line"/>
      <point x="310.44" y="148.88"/>
      <point x="273.24" y="139.72"/>
      <point x="239.48000000000002" y="139.72" type="curve" smooth="yes"/>
      <point x="182.36" y="139.72"/>
      <point x="170.39999999999998" y="161.76"/>
      <point x="170.39999999999998" y="206.44" type="curve" smooth="yes"/>
      <point x="170.39999999999998" y="210.0"/>
      <point x="170.39999999999998" y="212.83999999999997"/>
      <point x="170.39999999999998" y="216.39999999999998" type="curve"/>
      <point x="217.28" y="218.84"/>
      <point x="320.15999999999997" y="231.28"/>
      <point x="368.91999999999996" y="238.27999999999997" type="curve"/>
      <point x="369.64" y="256.76"/>
      <point x="370.64" y="289.04"/>
      <point x="370.64" y="302.64" type="curve" smooth="yes"/>
      <point x="370.64" y="484.44"/>
      <point x="321.0" y="557.1999999999999"/>
      <point x="204.07999999999998" y="557.1999999999999" type="curve" smooth="yes"/>
      <point x="74.0" y="557.1999999999999"/>
      <point x="12.8" y="477.12"/>
      <point x="12.8" y="264.76" type="curve" smooth="yes"/>
      <point x="12.8" y="73.92"/>
      <point x="72.75999999999999" y="-10.0"/>
    </contour>
    <contour>
      <point x="170.39999999999998" y="316.32" type="curve"/>
      <point x="171.51999999999998" y="412.76"/>
      <point x="179.72" y="430.12"/>
      <point x="196.20000000000002" y="430.12" type="curve" smooth="yes"/>
      <point x="211.68" y="430.12"/>
      <point x="219.92000000000002" y="411.52000000000004"/>
      <point x="219.92000000000002" y="319.71999999999997" type="curve"/>
      <point x="207.51999999999998" y="318.16"/>
      <point x="184.68" y="316.32"/>
    </contour>
  </outline>
</glyph>
<glyph name="f" format="2">
  <advance width="264.82"/>
  <unicode hex="0066"/>
  <outline>
    <contour>
      <point x="51.22" y="0.0" type="line"/>
      <point x="201.07999999999998" y="0.0" type="line"/>
      <point x="201.07999999999998" y="391.04" type="line"/>
      <point x="251.82" y="391.04" type="line"/>
      <point x="251.82" y="522.7" type="line"/>
      <point x="201.94" y="522.7" type="line"/>
      <point x="201.94" y="538.22" type="line" smooth="yes"/>
      <point x="201.94" y="589.6"/>
      <point x="214.45999999999998" y="608.88"/>
      <point x="241.34" y="608.88" type="curve" smooth="yes"/>
      <point x="250.9" y="608.88"/>
      <point x="260.46" y="607.02"/>
      <point x="278.04" y="601.16" type="curve"/>
      <point x="301.82" y="724.08" type="line"/>
      <point x="265.04" y="742.84"/>
      <point x="234.56" y="750.0"/>
      <point x="197.48" y="750.0" type="curve" smooth="yes"/>
      <point x="100.84" y="750.0"/>
      <point x="51.22" y="676.56"/>
      <point x="51.22" y="539.94" type="curve" smooth="yes"/>
      <point x="51.22" y="522.7" type="line"/>
      <point x="5.84" y="515.84" type="line"/>
      <point x="5.84" y="391.04" type="line"/>
      <point x="51.22" y="391.04" type="line"/>
    </contour>
  </outline>
</glyph>
<glyph name="g" format="2">
  <advance width="397.72"/>
  <unicode hex="0067"/>
  <anchor x="179.72" y="547.1999999999999" name="top"/>
  <anchor x="198.92000000000002" y="-210.0" name="bottom"/>
  <outline>
    <contour>
      <point x="180.16" y="-220.0" type="curve" smooth="yes"/>
      <point x="310.0" y="-220.0"/>
      <point x="382.4" y="-146.35999999999999"/>
      <point x="382.4" y="-26.4" type="curve" smooth="yes"/>
      <point x="382.4" y="70.2"/>
      <point x="334.36" y="126.19999999999999"/>
      <point x="250.44" y="126.19999999999999" type="curve" smooth="yes"/>
      <point x="163.64" y="126.19999999999999" type="line" smooth="yes"/>
      <point x="139.12" y="126.19999999999999"/>
      <point x="125.72" y="135.6"/>
      <point x="125.72" y="154.68" type="curve" smooth="yes"/>
      <point x="125.72" y="173.76"/>
      <point x="131.84" y="183.16"/>
      <point x="150.51999999999998" y="196.12" type="curve"/>
      <point x="73.75999999999999" y="217.24" type="line"/>
      <point x="44.36" y="193.12"/>
      <point x="21.080000000000005" y="157.68"/>
      <point x="21.080000000000005" y="103.64" type="curve" smooth="yes"/>
      <point x="21.080000000000005" y="36.44"/>
      <point x="67.28" y="-14.439999999999998"/>
      <point x="145.2" y="-14.439999999999998" type="curve" smooth="yes"/>
      <point x="212.44" y="-14.439999999999998" type="line" smooth="yes"/>
      <point x="235.07999999999998" y="-14.439999999999998"/>
      <point x="243.44" y="-23.759999999999998"/>
      <point x="243.44" y="-43.60000000000001" type="curve" smooth="yes"/>
      <point x="243.44" y="-66.56"/>
      <point x="224.32" y="-79.88000000000001"/>
      <point x="186.44" y="-79.88000000000001" type="curve" smooth="yes"/>
      <point x="135.68" y="-79.88000000000001"/>
      <point x="116.16" y="-68.84"/>
      <point x="116.16" y="-41.16000000000001" type="curve" smooth="yes"/>
      <point x="116.16" y="-22.560000000000002"/>
      <point x="122.68" y="-12.799999999999997"/>
      <point x="139.64" y="-3.8800000000000026" type="curve"/>
      <point x="62.36" y="29.64" type="line"/>
      <point x="31.4" y="10.84"/>
      <point x="4.919999999999998" y="-25.0"/>
      <point x="4.919999999999998" y="-82.44" type="curve" smooth="yes"/>
      <point x="4.919999999999998" y="-173.44"/>
      <point x="67.56" y="-220.0"/>
    </contour>
    <contour>
      <point x="181.84" y="166.16" type="curve" smooth="yes"/>
      <point x="291.15999999999997" y="166.16"/>
      <point x="347.68" y="232.48000000000002"/>
      <point x="347.68" y="361.68" type="curve" smooth="yes"/>
      <point x="347.68" y="490.88"/>
      <point x="291.15999999999997" y="557.1999999999999"/>
      <point x="181.84" y="557.1999999999999" type="curve" smooth="yes"/>
      <point x="72.24000000000001" y="557.1999999999999"/>
      <point x="15.720000000000002" y="490.88"/>
      <point x="15.720000000000002" y="361.68" type="curve" smooth="yes"/>
      <point x="15.720000000000002" y="232.48000000000002"/>
      <point x="72.24000000000001" y="166.16"/>
    </contour>
    <contour>
      <point x="181.84" y="280.12" type="curve" smooth="yes"/>
      <point x="166.36" y="280.12"/>
      <point x="160.12" y="296.32"/>
      <point x="160.12" y="361.68" type="curve" smooth="yes"/>
      <point x="160.12" y="427.04"/>
      <point x="166.36" y="443.24"/>
      <point x="181.84" y="443.24" type="curve" smooth="yes"/>
      <point x="197.32" y="443.24"/>
      <point x="203.28" y="427.04"/>
      <point x="203.28" y="361.68" type="curve" smooth="yes"/>
      <point x="203.28" y="296.32"/>
      <point x="197.32" y="280.12"/>
    </contour>
    <contour>
      <point x="321.8" y="405.03999999999996" type="line"/>
      <point x="329.92" y="423.28"/>
      <point x="341.2" y="433.56"/>
      <point x="354.48" y="433.56" type="curve" smooth="yes"/>
      <point x="364.64" y="433.56"/>
      <point x="370.8" y="431.84000000000003"/>
      <point x="377.96" y="430.12" type="curve"/>
      <point x="402.04" y="569.52" type="line"/>
      <point x="388.28" y="577.4"/>
      <point x="369.08" y="582.5600000000001"/>
      <point x="350.32000000000005" y="582.5600000000001" type="curve" smooth="yes"/>
      <point x="316.28" y="582.5600000000001"/>
      <point x="289.12" y="563.84"/>
      <point x="267.08" y="521.36" type="curve"/>
    </contour>
  </outline>
</glyph>
<glyph name="h" format="2">
  <advance width="394.3"/>
  <unicode hex="0068"/>
  <anchor x="197.22" y="395.0" name="center"/>
  <anchor x="197.22" y="0.0" name="bottom"/>
  <anchor x="202.94" y="740.0" name="top"/>
  <outline>
    <contour>
      <point x="22.5" y="0.0" type="line"/>
      <point x="175.8" y="0.0" type="line"/>
      <point x="175.8" y="396.24" type="line"/>
      <point x="183.48000000000002" y="402.64"/>
      <point x="191.54" y="405.9"/>
      <point x="200.36" y="405.9" type="curve" smooth="yes"/>
      <point x="209.68" y="405.9"/>
      <point x="219.36" y="400.4"/>
      <point x="219.36" y="381.5" type="curve" smooth="yes"/>
      <point x="219.36" y="0.0" type="line"/>
      <point x="373.52" y="0.0" type="line"/>
      <point x="373.52" y="424.5" type="line" smooth="yes"/>
      <point x="373.52" y="521.16"/>
      <point x="332.5" y="557.2"/>
      <point x="271.0" y="557.2" type="curve" smooth="yes"/>
      <point x="241.42000000000002" y="557.2"/>
      <point x="204.39999999999998" y="544.62"/>
      <point x="175.8" y="514.42" type="curve"/>
      <point x="175.8" y="740.0" type="line"/>
      <point x="22.5" y="740.0" type="line"/>
    </contour>
  </outline>
</glyph>
<glyph name="i" format="2">
  <advance width="198.3"/>
  <unicode hex="0069"/>
  <anchor x="175.8" y="0.0" name="ogonek"/>
  <anchor x="99.58" y="0.0" name="bottom"/>
  <outline>
    <contour>
      <point x="99.58" y="584.12" type="curve" smooth="yes"/>
      <point x="156.57999999999998" y="584.12"/>
      <point x="185.82" y="616.08"/>
      <point x="185.82" y="681.1" type="curve" smooth="yes"/>
      <point x="185.82" y="747.84"/>
      <point x="154.86" y="778.94"/>
      <point x="99.58" y="778.94" type="curve" smooth="yes"/>
      <point x="43.44" y="778.94"/>
      <point x="12.48" y="747.84"/>
      <point x="12.48" y="681.1" type="curve" smooth="yes"/>
      <point x="12.48" y="615.22"/>
      <point x="43.58" y="584.12"/>
    </contour>
    <contour>
      <point x="22.5" y="0.0" type="line"/>
      <point x="175.8" y="0.0" type="line"/>
      <point x="175.8" y="547.2" type="line"/>
      <point x="22.5" y="547.2" type="line"/>
    </contour>
  </outline>
</glyph>
<glyph name="j" format="2">
  <advance width="198.16"/>
  <unicode hex="006A"/>
  <outline>
    <contour>
      <point x="175.66" y="547.2" type="line"/>
      <point x="22.36" y="547.2" type="line"/>
      <point x="22.36" y="20.02" type="line" smooth="yes"/>
      <point x="22.36" y="-29.82"/>
      <point x="13.68" y="-49.10000000000001"/>
      <point x="-10.0" y="-53.58" type="curve" smooth="yes"/>
      <point x="-21.02" y="-54.28"/>
      <point x="-30.32" y="-52.25999999999999"/>
      <point x="-44.06" y="-48.379999999999995" type="curve"/>
      <point x="-66.02" y="-202.98" type="line"/>
      <point x="-33.94" y="-212.6"/>
      <point x="-5.4399999999999995" y="-216.92"/>
      <point x="21.34" y="-216.07999999999998" type="curve" smooth="yes"/>
      <point x="134.16" y="-210.9"/>
      <point x="175.66" y="-138.16"/>
      <point x="175.66" y="6.26" type="curve" smooth="yes"/>
    </contour>
    <contour>
      <point x="99.44" y="584.12" type="curve" smooth="yes"/>
      <point x="156.3" y="584.12"/>
      <point x="185.68" y="616.08"/>
      <point x="185.68" y="681.1" type="curve" smooth="yes"/>
      <point x="185.68" y="747.84"/>
      <point x="154.57999999999998" y="778.94"/>
      <point x="99.44" y="778.94" type="curve" smooth="yes"/>
      <point x="43.3" y="778.94"/>
      <point x="12.34" y="747.84"/>
      <point x="12.34" y="681.1" type="curve" smooth="yes"/>
      <point x="12.34" y="615.22"/>
      <point x="43.44" y="584.12"/>
    </contour>
  </outline>
</glyph>
<glyph name="k" format="2">
  <advance width="377.59999999999997"/>
  <unicode hex="006B"/>
  <anchor x="94.56" y="740.0" name="top"/>
  <anchor x="196.32" y="0.0" name="bottom"/>
  <outline>
    <contour>
      <point x="329.44" y="-9.440000000000001" type="curve" smooth="yes"/>
      <point x="343.04" y="-9.440000000000001"/>
      <point x="355.92" y="-8.44"/>
      <point x="370.24" y="-4.720000000000001" type="curve"/>
      <point x="369.96" y="161.16" type="line"/>
      <point x="366.96000000000004" y="161.16"/>
      <point x="364.4" y="160.88"/>
      <point x="361.40000000000003" y="160.88" type="curve" smooth="yes"/>
      <point x="336.08" y="160.88"/>
      <point x="317.04" y="174.88"/>
      <point x="262.04" y="265.52" type="curve" smooth="yes"/>
      <point x="166.48" y="423.36" type="line"/>
      <point x="166.48" y="740.0" type="line"/>
      <point x="22.64" y="740.0" type="line"/>
      <point x="22.64" y="0.0" type="line"/>
      <point x="166.48" y="0.0" type="line"/>
      <point x="166.48" y="170.76000000000002" type="line"/>
      <point x="219.79999999999998" y="76.0" type="line" smooth="yes"/>
      <point x="257.44" y="9.879999999999999"/>
      <point x="283.8" y="-9.440000000000001"/>
    </contour>
    <contour>
      <point x="246.2" y="215.35999999999999" type="line"/>
      <point x="317.72" y="321.03999999999996"/>
      <point x="369.84000000000003" y="447.0"/>
      <point x="378.08" y="546.76" type="curve"/>
      <point x="230.51999999999998" y="556.1999999999999" type="line"/>
      <point x="227.44" y="457.32"/>
      <point x="203.95999999999998" y="391.8"/>
      <point x="152.64" y="316.2" type="curve"/>
    </contour>
  </outline>
</glyph>
<glyph name="l" format="2">
  <advance width="222.44"/>
  <unicode hex="006C"/>
  <anchor x="111.72" y="395.0" name="center"/>
  <anchor x="99.58" y="740.0" name="top"/>
  <anchor x="210.42000000000002" y="740.0" name="topright"/>
  <anchor x="124.12" y="0.0" name="bottom"/>
  <outline>
    <contour>
      <point x="175.8" y="740.0" type="line"/>
      <point x="22.5" y="740.0" type="line"/>
      <point x="22.5" y="164.12" type="line" smooth="yes"/>
      <point x="22.5" y="39.54"/>
      <point x="61.0" y="-10.0"/>
      <point x="147.88" y="-10.0" type="curve" smooth="yes"/>
      <point x="179.24" y="-10.0"/>
      <point x="207.57999999999998" y="2.3200000000000003"/>
      <point x="223.01999999999998" y="13.34" type="curve"/>
      <point x="213.86" y="147.57999999999998" type="line"/>
      <point x="207.45999999999998" y="146.02"/>
      <point x="201.18" y="145.02"/>
      <point x="196.89999999999998" y="145.02" type="curve" smooth="yes"/>
      <point x="184.36" y="145.02"/>
      <point x="175.8" y="152.72"/>
      <point x="175.8" y="187.34" type="curve" smooth="yes"/>
    </contour>
  </outline>
</glyph>
<glyph name="m" format="2">
  <advance width="591.2"/>
  <unicode hex="006D"/>
  <outline>
    <contour>
      <point x="22.5" y="0.0" type="line"/>
      <point x="176.66" y="0.0" type="line"/>
      <point x="176.66" y="396.8" type="line"/>
      <point x="183.48000000000002" y="402.06"/>
      <point x="191.84" y="405.9"/>
      <point x="200.38" y="405.9" type="curve" smooth="yes"/>
      <point x="209.7" y="405.9"/>
      <point x="219.38" y="400.4"/>
      <point x="219.38" y="381.5" type="curve" smooth="yes"/>
      <point x="219.38" y="0.0" type="line"/>
      <point x="373.53999999999996" y="0.0" type="line"/>
      <point x="373.53999999999996" y="388.38" type="line" smooth="yes"/>
      <point x="373.53999999999996" y="391.18"/>
      <point x="373.12" y="394.28"/>
      <point x="372.41999999999996" y="396.1" type="curve"/>
      <point x="380.08" y="402.06"/>
      <point x="388.44" y="405.9"/>
      <point x="397.26" y="405.9" type="curve" smooth="yes"/>
      <point x="406.58" y="405.9"/>
      <point x="416.26" y="400.4"/>
      <point x="416.26" y="381.5" type="curve" smooth="yes"/>
      <point x="416.26" y="0.0" type="line"/>
      <point x="570.42" y="0.0" type="line"/>
      <point x="570.42" y="428.8" type="line" smooth="yes"/>
      <point x="570.42" y="513.42"/>
      <point x="535.42" y="557.2"/>
      <point x="467.9" y="557.2" type="curve" smooth="yes"/>
      <point x="431.62" y="557.2"/>
      <point x="394.32" y="547.08"/>
      <point x="354.96000000000004" y="512.58" type="curve"/>
      <point x="338.38" y="541.32"/>
      <point x="310.36" y="557.2"/>
      <point x="271.02" y="557.2" type="curve" smooth="yes"/>
      <point x="236.56" y="557.2"/>
      <point x="200.1" y="548.2"/>
      <point x="162.04" y="514.84" type="curve"/>
      <point x="162.04" y="547.2" type="line"/>
      <point x="22.5" y="547.2" type="line"/>
    </contour>
  </outline>
</glyph>
<glyph name="n" format="2">
  <advance width="395.15999999999997"/>
  <unicode hex="006E"/>
  <anchor x="198.36" y="547.2" name="top"/>
  <anchor x="198.64" y="0.0" name="bottom"/>
  <outline>
    <contour>
      <point x="22.5" y="0.0" type="line"/>
      <point x="176.66" y="0.0" type="line"/>
      <point x="176.66" y="396.24" type="line"/>
      <point x="183.48000000000002" y="401.78"/>
      <point x="192.4" y="405.9"/>
      <point x="201.22" y="405.9" type="curve" smooth="yes"/>
      <point x="210.54" y="405.9"/>
      <point x="220.22" y="400.4"/>
      <point x="220.22" y="381.5" type="curve" smooth="yes"/>
      <point x="220.22" y="0.0" type="line"/>
      <point x="374.38" y="0.0" type="line"/>
      <point x="374.38" y="428.8" type="line" smooth="yes"/>
      <point x="374.38" y="513.42"/>
      <point x="339.38" y="557.2"/>
      <point x="271.86" y="557.2" type="curve" smooth="yes"/>
      <point x="237.12" y="557.2"/>
      <point x="200.1" y="548.06"/>
      <point x="162.04" y="514.42" type="curve"/>
      <point x="162.04" y="547.2" type="line"/>
      <point x="22.5" y="547.2" type="line"/>
    </contour>
  </outline>
</glyph>
<glyph name="o" format="2">
  <advance width="394.76"/>
  <unicode hex="006F"/>
  <anchor x="282.86" y="8.6" name="ogonek"/>
  <anchor x="197.38" y="547.2" name="top"/>
  <anchor x="302.4" y="537.2" name="topright"/>
  <anchor x="197.38" y="0.0" name="bottom"/>
  <outline>
    <contour>
      <point x="12.66" y="274.46" type="curve" smooth="yes"/>
      <point x="12.66" y="108.5"/>
      <point x="44.1" y="-10.0"/>
      <point x="197.38" y="-10.0" type="curve" smooth="yes"/>
      <point x="350.65999999999997" y="-10.0"/>
      <point x="382.1" y="108.5"/>
      <point x="382.1" y="274.46" type="curve" smooth="yes"/>
      <point x="382.1" y="440.42"/>
      <point x="350.65999999999997" y="557.2"/>
      <point x="197.38" y="557.2" type="curve" smooth="yes"/>
      <point x="44.1" y="557.2"/>
      <point x="12.66" y="440.42"/>
    </contour>
    <contour>
      <point x="173.7" y="274.46" type="curve" smooth="yes"/>
      <point x="173.7" y="396.9"/>
      <point x="178.5" y="410.2"/>
      <point x="197.38" y="410.2" type="curve" smooth="yes"/>
      <point x="215.4" y="410.2"/>
      <point x="221.06" y="396.9"/>
      <point x="221.06" y="274.46" type="curve" smooth="yes"/>
      <point x="221.06" y="152.01999999999998"/>
      <point x="215.4" y="137.85999999999999"/>
      <point x="197.38" y="137.85999999999999" type="curve" smooth="yes"/>
      <point x="178.5" y="137.85999999999999"/>
      <point x="173.7" y="152.01999999999998"/>
    </contour>
  </outline>
</glyph>
<glyph name="p" format="2">
  <advance width="393.6"/>
  <unicode hex="0070"/>
  <outline>
    <contour>
      <point x="22.5" y="-210.0" type="line"/>
      <point x="176.66" y="-210.0" type="line"/>
      <point x="176.66" y="-4.58" type="line"/>
      <point x="189.64" y="-8.0"/>
      <point x="205.5" y="-10.0"/>
      <point x="215.2" y="-10.0" type="curve" smooth="yes"/>
      <point x="323.28" y="-10.0"/>
      <point x="380.94" y="91.94"/>
      <point x="380.94" y="284.6" type="curve" smooth="yes"/>
      <point x="380.94" y="465.92"/>
      <point x="337.62" y="557.2"/>
      <point x="251.54" y="557.2" type="curve" smooth="yes"/>
      <point x="220.8" y="557.2"/>
      <point x="196.1" y="549.06"/>
      <point x="172.36" y="531.18" type="curve"/>
      <point x="162.04" y="548.6" type="line"/>
      <point x="22.5" y="548.6" type="line"/>
    </contour>
    <contour>
      <point x="191.28" y="121.38" type="curve" smooth="yes"/>
      <point x="186.16" y="121.38"/>
      <point x="182.32" y="123.38"/>
      <point x="176.66" y="127.66" type="curve"/>
      <point x="176.66" y="406.26" type="line"/>
      <point x="181.88" y="410.36"/>
      <point x="187.42000000000002" y="411.92"/>
      <point x="193.22" y="411.92" type="curve" smooth="yes"/>
      <point x="211.68" y="411.92"/>
      <point x="217.32" y="382.54"/>
      <point x="217.32" y="259.66" type="curve" smooth="yes"/>
      <point x="217.32" y="146.24"/>
      <point x="212.1" y="121.38"/>
    </contour>
  </outline>
</glyph>
<glyph name="q" format="2">
  <advance width="394.46000000000004"/>
  <unicode hex="0071"/>
  <outline>
    <contour>
      <point x="371.96000000000004" y="533.88" type="line"/>
      <point x="332.08" y="548.18"/>
      <point x="269.64" y="557.2"/>
      <point x="217.1" y="557.2" type="curve" smooth="yes"/>
      <point x="77.2" y="557.2"/>
      <point x="12.66" y="470.74"/>
      <point x="12.66" y="279.8" type="curve" smooth="yes"/>
      <point x="12.66" y="77.12"/>
      <point x="53.54" y="-10.0"/>
      <point x="148.94" y="-10.0" type="curve" smooth="yes"/>
      <point x="171.94" y="-10.0"/>
      <point x="202.66" y="0.72"/>
      <point x="218.66" y="13.44" type="curve"/>
      <point x="218.66" y="-210.0" type="line"/>
      <point x="371.96000000000004" y="-210.0" type="line"/>
    </contour>
    <contour>
      <point x="217.8" y="423.7" type="curve"/>
      <point x="217.8" y="145.24" type="line"/>
      <point x="212.57999999999998" y="140.28"/>
      <point x="207.04" y="137.0"/>
      <point x="200.38" y="137.0" type="curve" smooth="yes"/>
      <point x="182.92000000000002" y="137.0"/>
      <point x="177.14" y="164.94"/>
      <point x="177.14" y="272.06" type="curve" smooth="yes"/>
      <point x="177.14" y="400.96"/>
      <point x="182.36" y="427.54"/>
      <point x="204.04" y="427.54" type="curve" smooth="yes"/>
      <point x="207.3" y="427.54"/>
      <point x="212.14" y="426.4"/>
    </contour>
  </outline>
</glyph>
<glyph name="r" format="2">
  <advance width="285.76"/>
  <unicode hex="0072"/>
  <anchor x="149.26" y="547.2" name="top"/>
  <anchor x="98.72" y="0.0" name="bottom"/>
  <outline>
    <contour>
      <point x="161.18" y="547.2" type="line"/>
      <point x="22.5" y="547.2" type="line"/>
      <point x="22.5" y="0.0" type="line"/>
      <point x="174.94" y="0.0" type="line"/>
      <point x="174.94" y="371.1" type="line"/>
      <point x="192.62" y="384.02"/>
      <point x="205.72" y="387.84000000000003"/>
      <point x="222.68" y="387.84000000000003" type="curve" smooth="yes"/>
      <point x="229.51999999999998" y="387.84000000000003"/>
      <point x="244.95999999999998" y="387.56"/>
      <point x="257.96" y="383.56" type="curve"/>
      <point x="285.32" y="548.48" type="line"/>
      <point x="267.02" y="556.06"/>
      <point x="254.74" y="557.2"/>
      <point x="245.04" y="557.2" type="curve" smooth="yes"/>
      <point x="207.01999999999998" y="557.2"/>
      <point x="188.78" y="541.92"/>
      <point x="161.18" y="503.88" type="curve"/>
    </contour>
  </outline>
</glyph>
<glyph name="s" format="2">
  <advance width="336.15999999999997"/>
  <unicode hex="0073"/>
  <anchor x="170.24" y="547.1999999999999" name="top"/>
  <anchor x="172.83999999999997" y="0.0" name="bottom"/>
  <outline>
    <contour>
      <point x="11.6" y="19.32" type="line"/>
      <point x="53.239999999999995" y="-0.56"/>
      <point x="95.28" y="-10.0"/>
      <point x="150.8" y="-10.0" type="curve" smooth="yes"/>
      <point x="269.28" y="-10.0"/>
      <point x="330.04" y="54.36"/>
      <point x="330.04" y="168.48" type="curve" smooth="yes"/>
      <point x="330.04" y="291.2"/>
      <point x="270.96" y="323.03999999999996"/>
      <point x="214.64" y="342.91999999999996" type="curve" smooth="yes"/>
      <point x="174.2" y="357.40000000000003"/>
      <point x="144.32" y="364.28"/>
      <point x="144.32" y="387.0" type="curve" smooth="yes"/>
      <point x="144.32" y="405.88"/>
      <point x="160.44" y="410.92"/>
      <point x="185.8" y="410.92" type="curve" smooth="yes"/>
      <point x="218.28" y="410.92"/>
      <point x="255.64000000000001" y="404.20000000000005"/>
      <point x="290.56" y="392.03999999999996" type="curve"/>
      <point x="312.32" y="530.4399999999999" type="line"/>
      <point x="281.56" y="546.3199999999999"/>
      <point x="227.16" y="557.1999999999999"/>
      <point x="181.36" y="557.1999999999999" type="curve" smooth="yes"/>
      <point x="69.76" y="557.1999999999999"/>
      <point x="6.959999999999999" y="492.88"/>
      <point x="6.959999999999999" y="374.56" type="curve" smooth="yes"/>
      <point x="6.959999999999999" y="289.52"/>
      <point x="40.8" y="237.44000000000003"/>
      <point x="103.16" y="213.96000000000004" type="curve" smooth="yes"/>
      <point x="146.60000000000002" y="196.76"/>
      <point x="186.20000000000002" y="191.04000000000002"/>
      <point x="186.20000000000002" y="161.6" type="curve" smooth="yes"/>
      <point x="186.20000000000002" y="145.76"/>
      <point x="173.0" y="133.84"/>
      <point x="143.2" y="133.84" type="curve" smooth="yes"/>
      <point x="107.88" y="133.84"/>
      <point x="55.08" y="142.28"/>
      <point x="26.759999999999998" y="153.28" type="curve"/>
    </contour>
  </outline>
</glyph>
<glyph name="t" format="2">
  <advance width="273.42"/>
  <unicode hex="0074"/>
  <anchor x="133.7" y="275.0" name="center"/>
  <anchor x="130.76" y="655.54" name="top"/>
  <anchor x="228.5" y="761.5" name="topright"/>
  <anchor x="155.4" y="0.0" name="bottom"/>
  <outline>
    <contour>
      <point x="168.64" y="-10.0" type="curve" smooth="yes"/>
      <point x="197.12" y="-10.0"/>
      <point x="238.78" y="-7.14"/>
      <point x="277.28" y="12.48" type="curve"/>
      <point x="254.36" y="141.42000000000002" type="line"/>
      <point x="245.38" y="139.0"/>
      <point x="234.95999999999998" y="138.0"/>
      <point x="227.12" y="138.0" type="curve" smooth="yes"/>
      <point x="209.07999999999998" y="138.0"/>
      <point x="197.1" y="148.07999999999998"/>
      <point x="197.1" y="194.0" type="curve" smooth="yes"/>
      <point x="197.1" y="415.54" type="line"/>
      <point x="258.52" y="415.54" type="line"/>
      <point x="258.52" y="547.2" type="line"/>
      <point x="197.1" y="547.2" type="line"/>
      <point x="197.1" y="655.54" type="line"/>
      <point x="64.28" y="655.54" type="line"/>
      <point x="43.8" y="547.2" type="line"/>
      <point x="5.42" y="541.2" type="line"/>
      <point x="5.42" y="416.4" type="line"/>
      <point x="43.8" y="416.4" type="line"/>
      <point x="43.8" y="175.07999999999998" type="line" smooth="yes"/>
      <point x="43.8" y="52.46"/>
      <point x="84.18" y="-10.0"/>
    </contour>
  </outline>
</glyph>
<glyph name="u" format="2">
  <advance width="410.03999999999996"/>
  <unicode hex="0075"/>
  <anchor x="408.6" y="12.76" name="ogonek"/>
  <anchor x="196.22" y="547.2" name="top"/>
  <anchor x="371.8" y="547.2" name="topright"/>
  <anchor x="205.51999999999998" y="0.0" name="bottom"/>
  <outline>
    <contour>
      <point x="131.04" y="-10.0" type="curve" smooth="yes"/>
      <point x="170.94" y="-10.0"/>
      <point x="206.24" y="5.16"/>
      <point x="235.26" y="30.48" type="curve"/>
      <point x="253.74" y="7.74"/>
      <point x="279.92" y="-10.0"/>
      <point x="318.56" y="-10.0" type="curve" smooth="yes"/>
      <point x="359.52" y="-10.0"/>
      <point x="386.0" y="0.5999999999999996"/>
      <point x="408.6" y="12.76" type="curve"/>
      <point x="398.15999999999997" y="153.6" type="line"/>
      <point x="394.18" y="152.04"/>
      <point x="387.76" y="150.9"/>
      <point x="383.06" y="150.9" type="curve" smooth="yes"/>
      <point x="375.22" y="150.9"/>
      <point x="371.8" y="155.46"/>
      <point x="371.8" y="175.9" type="curve" smooth="yes"/>
      <point x="371.8" y="547.2" type="line"/>
      <point x="218.5" y="547.2" type="line"/>
      <point x="218.5" y="150.95999999999998" type="line"/>
      <point x="211.68" y="144.56"/>
      <point x="201.9" y="141.3"/>
      <point x="193.94" y="141.3" type="curve" smooth="yes"/>
      <point x="184.62" y="141.3"/>
      <point x="174.94" y="146.8"/>
      <point x="174.94" y="165.7" type="curve" smooth="yes"/>
      <point x="174.94" y="547.2" type="line"/>
      <point x="20.78" y="547.2" type="line"/>
      <point x="20.78" y="139.9" type="line" smooth="yes"/>
      <point x="20.78" y="26.04"/>
      <point x="69.54" y="-10.0"/>
    </contour>
  </outline>
</glyph>
<glyph name="v" format="2">
  <advance width="396.24"/>
  <unicode hex="0076"/>
  <outline>
    <contour>
      <point x="96.24" y="0.0" type="line"/>
      <point x="299.14" y="0.0" type="line"/>
      <point x="393.41999999999996" y="546.92" type="line"/>
      <point x="227.22" y="547.48" type="line"/>
      <point x="198.12" y="148.2" type="line"/>
      <point x="169.88" y="547.48" type="line"/>
      <point x="2.8200000000000003" y="546.92" type="line"/>
    </contour>
  </outline>
</glyph>
<glyph name="w" format="2">
  <advance width="599.4"/>
  <unicode hex="0077"/>
  <anchor x="299.7" y="547.2" name="top"/>
  <anchor x="299.7" y="0.0" name="bottom"/>
  <outline>
    <contour>
      <point x="73.52" y="0.0" type="line"/>
      <point x="273.7" y="0.0" type="line"/>
      <point x="301.42" y="350.0" type="line"/>
      <point x="325.84000000000003" y="0.0" type="line"/>
      <point x="525.16" y="0.0" type="line"/>
      <point x="593.7" y="546.78" type="line"/>
      <point x="438.68" y="547.34" type="line"/>
      <point x="413.1" y="145.18" type="line"/>
      <point x="382.79999999999995" y="547.2" type="line"/>
      <point x="216.6" y="547.2" type="line"/>
      <point x="185.57999999999998" y="145.18" type="line"/>
      <point x="161.57999999999998" y="547.34" type="line"/>
      <point x="5.7" y="546.78" type="line"/>
    </contour>
  </outline>
</glyph>
<glyph name="x" format="2">
  <advance width="408.8"/>
  <unicode hex="0078"/>
  <outline>
    <contour>
      <point x="3.56" y="-0.8399999999999999" type="line"/>
      <point x="171.34" y="-1.4000000000000004" type="line"/>
      <point x="205.12" y="199.84" type="line"/>
      <point x="240.18" y="-1.4000000000000004" type="line"/>
      <point x="407.1" y="-0.8399999999999999" type="line"/>
      <point x="326.34000000000003" y="277.6" type="line"/>
      <point x="401.26" y="546.92" type="line"/>
      <point x="236.92" y="547.48" type="line"/>
      <point x="205.4" y="340.86" type="line"/>
      <point x="173.6" y="547.62" type="line"/>
      <point x="10.120000000000001" y="546.78" type="line"/>
      <point x="84.18" y="278.44" type="line"/>
    </contour>
  </outline>
</glyph>
<glyph name="y" format="2">
  <advance width="401.12"/>
  <unicode hex="0079"/>
  <anchor x="200.56" y="547.1999999999999" name="top"/>
  <anchor x="374.6" y="0.0" name="bottom"/>
  <outline>
    <contour>
      <point x="92.88000000000001" y="-209.72" type="line"/>
      <point x="260.8" y="-210.56" type="line"/>
      <point x="398.15999999999997" y="546.9200000000001" type="line"/>
      <point x="228.51999999999998" y="547.48" type="line"/>
      <point x="200.84" y="138.48000000000002" type="line"/>
      <point x="174.04000000000002" y="547.48" type="line"/>
      <point x="2.959999999999999" y="546.9200000000001" type="line"/>
      <point x="117.36" y="0.0" type="line"/>
      <point x="137.64" y="0.0" type="line"/>
    </contour>
  </outline>
</glyph>
<glyph name="z" format="2">
  <advance width="347.38"/>
  <unicode hex="007A"/>
  <anchor x="176.2" y="547.2" name="top"/>
  <outline>
    <contour>
      <point x="12.98" y="0.0" type="line"/>
      <point x="334.52" y="0.0" type="line"/>
      <point x="334.52" y="142.84" type="line"/>
      <point x="175.16" y="142.84" type="line"/>
      <point x="328.12" y="419.98" type="line"/>
      <point x="328.12" y="547.2" type="line"/>
      <point x="20.7" y="547.2" type="line"/>
      <point x="20.7" y="406.08" type="line"/>
      <point x="166.08" y="406.08" type="line"/>
      <point x="12.98" y="129.8" type="line"/>
    </contour>
  </outline>
</glyph>
<glyph name="braceleft" format="2">
  <advance width="232.7"/>
  <unicode hex="007B"/>
  <outline>
    <contour>
      <point x="32.02" y="-39.46" type="curve" smooth="yes"/>
      <point x="32.02" y="-161.48"/>
      <point x="90.14" y="-210.86"/>
      <point x="154.46" y="-210.86" type="curve" smooth="yes"/>
      <point x="221.76" y="-210.86" type="line"/>
      <point x="221.76" y="-80.78" type="line"/>
      <point x="192.3" y="-80.78" type="line" smooth="yes"/>
      <point x="167.78" y="-80.78"/>
      <point x="156.94" y="-56.879999999999995"/>
      <point x="156.94" y="-19.68" type="curve" smooth="yes"/>
      <point x="156.94" y="29.48"/>
      <point x="180.48" y="76.28"/>
      <point x="180.48" y="133.88" type="curve" smooth="yes"/>
      <point x="180.48" y="179.78"/>
      <point x="167.04" y="229.22"/>
      <point x="124.12" y="265.0" type="curve"/>
      <point x="167.04" y="298.9"/>
      <point x="180.48" y="349.36"/>
      <point x="180.48" y="395.26" type="curve" smooth="yes"/>
      <point x="180.48" y="451.88"/>
      <point x="156.94" y="498.68"/>
      <point x="156.94" y="548.82" type="curve" smooth="yes"/>
      <point x="156.94" y="586.02"/>
      <point x="167.78" y="609.92"/>
      <point x="192.3" y="609.92" type="curve" smooth="yes"/>
      <point x="221.76" y="609.92" type="line"/>
      <point x="221.76" y="740.0" type="line"/>
      <point x="154.46" y="740.0" type="line" smooth="yes"/>
      <point x="90.14" y="740.0"/>
      <point x="32.02" y="690.62"/>
      <point x="32.02" y="568.6" type="curve" smooth="yes"/>
      <point x="32.02" y="479.78"/>
      <point x="63.3" y="433.68"/>
      <point x="63.3" y="385.8" type="curve" smooth="yes"/>
      <point x="63.3" y="353.1"/>
      <point x="57.6" y="333.48"/>
      <point x="35.74" y="333.48" type="curve" smooth="yes"/>
      <point x="19.04" y="333.48" type="line"/>
      <point x="19.04" y="195.66" type="line"/>
      <point x="35.74" y="195.66" type="line" smooth="yes"/>
      <point x="57.6" y="195.66"/>
      <point x="63.3" y="176.18"/>
      <point x="63.3" y="143.34" type="curve" smooth="yes"/>
      <point x="63.3" y="95.03999999999999"/>
      <point x="32.02" y="48.379999999999995"/>
    </contour>
  </outline>
</glyph>
<glyph name="braceright" format="2">
  <advance width="232.7"/>
  <unicode hex="007D"/>
  <outline>
    <contour>
      <point x="10.940000000000001" y="-80.78" type="line"/>
      <point x="10.940000000000001" y="-210.86" type="line"/>
      <point x="78.38" y="-210.86" type="line" smooth="yes"/>
      <point x="142.7" y="-210.86"/>
      <point x="200.82" y="-161.48"/>
      <point x="200.82" y="-39.46" type="curve" smooth="yes"/>
      <point x="200.82" y="48.379999999999995"/>
      <point x="169.54" y="95.03999999999999"/>
      <point x="169.54" y="143.34" type="curve" smooth="yes"/>
      <point x="169.54" y="176.18"/>
      <point x="175.24" y="195.66"/>
      <point x="197.1" y="195.66" type="curve" smooth="yes"/>
      <point x="213.66" y="195.66" type="line"/>
      <point x="213.66" y="333.48" type="line"/>
      <point x="197.1" y="333.48" type="line" smooth="yes"/>
      <point x="175.1" y="333.48"/>
      <point x="169.54" y="353.1"/>
      <point x="169.54" y="385.8" type="curve" smooth="yes"/>
      <point x="169.54" y="433.68"/>
      <point x="200.82" y="479.78"/>
      <point x="200.82" y="568.6" type="curve" smooth="yes"/>
      <point x="200.82" y="690.62"/>
      <point x="142.7" y="740.0"/>
      <point x="78.38" y="740.0" type="curve" smooth="yes"/>
      <point x="10.940000000000001" y="740.0" type="line"/>
      <point x="10.940000000000001" y="609.92" type="line"/>
      <point x="25.92" y="609.92" type="line" smooth="yes"/>
      <point x="50.3" y="609.92"/>
      <point x="61.28" y="586.02"/>
      <point x="61.28" y="548.82" type="curve" smooth="yes"/>
      <point x="61.28" y="498.68"/>
      <point x="37.74" y="451.88"/>
      <point x="37.74" y="395.26" type="curve" smooth="yes"/>
      <point x="37.74" y="349.36"/>
      <point x="51.04" y="298.9"/>
      <point x="94.1" y="265.0" type="curve"/>
      <point x="51.04" y="229.22"/>
      <point x="37.74" y="179.78"/>
      <point x="37.74" y="133.88" type="curve" smooth="yes"/>
      <point x="37.74" y="76.28"/>
      <point x="61.28" y="29.48"/>
      <point x="61.28" y="-19.68" type="curve" smooth="yes"/>
      <point x="61.28" y="-56.879999999999995"/>
      <point x="50.3" y="-80.78"/>
      <point x="25.92" y="-80.78" type="curve" smooth="yes"/>
    </contour>
  </outline>
</glyph>
<glyph name="asciitilde" format="2">
  <advance width="413.0"/>
  <unicode hex="007E"/>
  <outline>
    <contour>
      <point x="360.72" y="238.96" type="curve"/>
      <point x="360.72" y="376.62" type="line"/>
      <point x="335.98" y="352.34000000000003"/>
      <point x="311.8" y="343.92"/>
      <point x="285.64" y="343.92" type="curve" smooth="yes"/>
      <point x="220.62" y="343.92"/>
      <point x="200.24" y="415.9"/>
      <point x="133.66" y="415.9" type="curve" smooth="yes"/>
      <point x="94.18" y="415.9"/>
      <point x="58.82" y="393.14"/>
      <point x="52.42" y="383.9" type="curve"/>
      <point x="52.42" y="246.24" type="line"/>
      <point x="59.1" y="255.9"/>
      <point x="94.46" y="278.94"/>
      <point x="133.52" y="278.94" type="curve" smooth="yes"/>
      <point x="198.56" y="278.94"/>
      <point x="219.07999999999998" y="206.96"/>
      <point x="285.5" y="206.96" type="curve" smooth="yes"/>
      <point x="312.08" y="206.96"/>
      <point x="336.26" y="215.1"/>
    </contour>
  </outline>
</glyph>
<glyph name="exclamdown" format="2">
  <advance width="187.95999999999998"/>
  <unicode hex="00A1"/>
  <outline>
    <contour>
      <point x="161.6" y="287.5" type="line"/>
      <point x="28.080000000000002" y="287.5" type="line"/>
      <point x="14.32" y="-192.8" type="line"/>
      <point x="172.78" y="-192.8" type="line"/>
    </contour>
    <contour>
      <point x="175.92000000000002" y="452.8" type="curve" smooth="yes"/>
      <point x="175.92000000000002" y="522.12"/>
      <point x="151.84" y="555.8"/>
      <point x="93.97999999999999" y="555.8" type="curve" smooth="yes"/>
      <point x="36.26" y="555.8"/>
      <point x="12.04" y="522.12"/>
      <point x="12.04" y="452.8" type="curve" smooth="yes"/>
      <point x="12.04" y="382.62"/>
      <point x="36.12" y="348.94"/>
      <point x="93.97999999999999" y="348.94" type="curve" smooth="yes"/>
      <point x="151.84" y="348.94"/>
      <point x="175.92000000000002" y="382.62"/>
    </contour>
  </outline>
</glyph>
<glyph name="cent" format="2">
  <advance width="396.2"/>
  <unicode hex="00A2"/>
  <outline>
    <contour>
      <point x="231.26" y="-10.86" type="curve" smooth="yes"/>
      <point x="274.94" y="-10.86"/>
      <point x="320.34000000000003" y="-1.9800000000000004"/>
      <point x="350.1" y="13.34" type="curve"/>
      <point x="317.72" y="167.07999999999998" type="line"/>
      <point x="299.28" y="160.5"/>
      <point x="284.4" y="157.78"/>
      <point x="270.82" y="157.78" type="curve" smooth="yes"/>
      <point x="236.74" y="157.78"/>
      <point x="218.46" y="194.07999999999998"/>
      <point x="218.46" y="269.48" type="curve" smooth="yes"/>
      <point x="218.46" y="355.72"/>
      <point x="235.57999999999998" y="388.56"/>
      <point x="275.84000000000003" y="388.56" type="curve" smooth="yes"/>
      <point x="292.86" y="388.56"/>
      <point x="305.44" y="384.84000000000003"/>
      <point x="316.88" y="381.84000000000003" type="curve"/>
      <point x="344.24" y="541.6" type="line"/>
      <point x="325.36" y="547.46"/>
      <point x="277.24" y="558.92"/>
      <point x="230.26" y="558.92" type="curve" smooth="yes"/>
      <point x="91.16" y="558.92"/>
      <point x="55.7" y="427.36"/>
      <point x="55.7" y="264.32" type="curve" smooth="yes"/>
      <point x="55.7" y="79.88"/>
      <point x="110.8" y="-10.86"/>
    </contour>
    <contour>
      <point x="152.36" y="-105.86" type="line"/>
      <point x="293.62" y="-105.86" type="line"/>
      <point x="293.62" y="11.34" type="line"/>
      <point x="152.36" y="19.5" type="line"/>
    </contour>
    <contour>
      <point x="152.36" y="525.84" type="line"/>
      <point x="293.62" y="538.44" type="line"/>
      <point x="293.62" y="651.34" type="line"/>
      <point x="152.36" y="651.34" type="line"/>
    </contour>
  </outline>
</glyph>
<glyph name="sterling" format="2">
  <advance width="396.2"/>
  <unicode hex="00A3"/>
  <outline>
    <contour>
      <point x="49.56" y="0.0" type="line"/>
      <point x="349.0" y="0.0" type="line"/>
      <point x="349.0" y="140.4" type="line"/>
      <point x="214.76" y="140.4" type="line"/>
      <point x="242.44" y="171.52"/>
      <point x="276.76" y="207.04000000000002"/>
      <point x="276.76" y="270.52" type="curve" smooth="yes"/>
      <point x="276.76" y="343.56"/>
      <point x="235.51999999999998" y="406.84000000000003"/>
      <point x="235.51999999999998" y="468.35999999999996" type="curve" smooth="yes"/>
      <point x="235.51999999999998" y="531.32"/>
      <point x="260.04" y="553.4"/>
      <point x="289.84" y="553.4" type="curve" smooth="yes"/>
      <point x="304.84" y="553.4"/>
      <point x="315.56" y="550.4"/>
      <point x="326.56" y="546.12" type="curve"/>
      <point x="350.76" y="680.08" type="line"/>
      <point x="324.0" y="700.12"/>
      <point x="284.2" y="710.0"/>
      <point x="251.28" y="710.0" type="curve" smooth="yes"/>
      <point x="136.28" y="710.0"/>
      <point x="75.19999999999999" y="633.28"/>
      <point x="75.19999999999999" y="521.6800000000001" type="curve" smooth="yes"/>
      <point x="75.19999999999999" y="399.28"/>
      <point x="132.2" y="365.64"/>
      <point x="132.2" y="250.6" type="curve" smooth="yes"/>
      <point x="132.2" y="207.76"/>
      <point x="105.75999999999999" y="150.84"/>
      <point x="49.56" y="104.28" type="curve"/>
    </contour>
    <contour>
      <point x="44.760000000000005" y="315.04" type="line"/>
      <point x="341.36" y="315.04" type="line"/>
      <point x="341.36" y="399.04" type="line"/>
      <point x="44.760000000000005" y="399.04" type="line"/>
    </contour>
  </outline>
</glyph>
<glyph name="currency" format="2">
  <advance width="419.3"/>
  <unicode hex="00A4"/>
  <outline>
    <contour>
      <point x="19.1" y="382.2" type="line"/>
      <point x="67.3" y="333.0" type="line"/>
      <point x="62.92" y="320.32"/>
      <point x="60.38" y="306.66"/>
      <point x="60.38" y="292.44" type="curve" smooth="yes"/>
      <point x="60.38" y="277.36"/>
      <point x="62.92" y="261.98"/>
      <point x="68.3" y="248.44" type="curve"/>
      <point x="19.1" y="199.24" type="line"/>
      <point x="118.24" y="100.1" type="line"/>
      <point x="173.46" y="155.32" type="line"/>
      <point x="184.42000000000002" y="150.8"/>
      <point x="198.07999999999998" y="149.26"/>
      <point x="212.16" y="149.26" type="curve" smooth="yes"/>
      <point x="224.52" y="149.26"/>
      <point x="235.74" y="150.8"/>
      <point x="245.84" y="154.46" type="curve"/>
      <point x="301.06" y="100.1" type="line"/>
      <point x="400.2" y="199.24" type="line"/>
      <point x="354.44" y="244.14" type="line"/>
      <point x="360.68" y="259.4"/>
      <point x="364.08" y="275.64"/>
      <point x="364.08" y="292.44" type="curve" smooth="yes"/>
      <point x="364.08" y="307.52"/>
      <point x="360.68" y="322.9"/>
      <point x="355.3" y="337.3" type="curve"/>
      <point x="400.2" y="382.2" type="line"/>
      <point x="301.06" y="481.34" type="line"/>
      <point x="249.28" y="429.56" type="line"/>
      <point x="238.32" y="433.22"/>
      <point x="225.52" y="435.76"/>
      <point x="212.16" y="435.76" type="curve" smooth="yes"/>
      <point x="196.22" y="435.76"/>
      <point x="182.56" y="432.36"/>
      <point x="169.88" y="428.7" type="curve"/>
      <point x="118.24" y="481.34" type="line"/>
    </contour>
    <contour>
      <point x="212.16" y="250.95999999999998" type="curve" smooth="yes"/>
      <point x="187.14" y="250.95999999999998"/>
      <point x="171.54" y="266.56"/>
      <point x="171.54" y="291.58" type="curve" smooth="yes"/>
      <point x="171.54" y="315.02"/>
      <point x="187.14" y="333.2"/>
      <point x="212.16" y="333.2" type="curve" smooth="yes"/>
      <point x="237.32" y="333.2"/>
      <point x="252.92000000000002" y="315.02"/>
      <point x="252.92000000000002" y="291.58" type="curve" smooth="yes"/>
      <point x="252.92000000000002" y="266.56"/>
      <point x="237.32" y="250.95999999999998"/>
    </contour>
  </outline>
</glyph>
<glyph name="yen" format="2">
  <advance width="396.2"/>
  <unicode hex="00A5"/>
  <outline>
    <contour>
      <point x="34.239999999999995" y="293.68" type="line"/>
      <point x="121.44" y="293.68" type="line"/>
      <point x="121.44" y="261.04" type="line"/>
      <point x="34.239999999999995" y="261.04" type="line"/>
      <point x="34.239999999999995" y="177.04000000000002" type="line"/>
      <point x="121.44" y="177.04000000000002" type="line"/>
      <point x="121.44" y="0.0" type="line"/>
      <point x="274.88" y="0.0" type="line"/>
      <point x="274.88" y="177.04000000000002" type="line"/>
      <point x="362.08" y="177.04000000000002" type="line"/>
      <point x="362.08" y="261.04" type="line"/>
      <point x="274.88" y="261.04" type="line"/>
      <point x="274.88" y="293.68" type="line"/>
      <point x="362.08" y="293.68" type="line"/>
      <point x="362.08" y="377.40000000000003" type="line"/>
      <point x="274.88" y="377.40000000000003" type="line"/>
      <point x="399.48" y="699.4399999999999" type="line"/>
      <point x="227.84" y="700.5600000000001" type="line"/>
      <point x="198.51999999999998" y="481.64" type="line"/>
      <point x="168.36" y="700.5600000000001" type="line"/>
      <point x="-3.280000000000001" y="699.4399999999999" type="line"/>
      <point x="121.44" y="377.40000000000003" type="line"/>
      <point x="34.239999999999995" y="377.40000000000003" type="line"/>
    </contour>
  </outline>
</glyph>
<glyph name="brokenbar" format="2">
  <advance width="160.46"/>
  <unicode hex="00A6"/>
  <outline>
    <contour>
      <point x="145.7" y="391.0" type="line"/>
      <point x="145.7" y="790.86" type="line"/>
      <point x="14.760000000000002" y="790.86" type="line"/>
      <point x="14.760000000000002" y="391.0" type="line"/>
    </contour>
    <contour>
      <point x="14.760000000000002" y="190.86" type="line"/>
      <point x="14.760000000000002" y="-210.0" type="line"/>
      <point x="145.7" y="-210.0" type="line"/>
      <point x="145.7" y="190.86" type="line"/>
    </contour>
  </outline>
</glyph>
<glyph name="section" format="2">
  <advance width="437.34000000000003"/>
  <unicode hex="00A7"/>
  <outline>
    <contour>
      <point x="172.36" y="-220.86" type="curve" smooth="yes"/>
      <point x="320.08" y="-220.86"/>
      <point x="406.72" y="-99.42"/>
      <point x="406.72" y="62.46" type="curve" smooth="yes"/>
      <point x="406.72" y="127.38"/>
      <point x="388.28" y="225.88"/>
      <point x="344.62" y="335.7" type="curve" smooth="yes"/>
      <point x="300.2" y="446.52"/>
      <point x="282.44" y="492.04"/>
      <point x="282.44" y="525.16" type="curve" smooth="yes"/>
      <point x="282.44" y="557.38"/>
      <point x="298.56" y="577.06"/>
      <point x="327.82" y="577.06" type="curve" smooth="yes"/>
      <point x="339.96" y="577.06"/>
      <point x="350.1" y="575.06"/>
      <point x="362.38" y="568.06" type="curve"/>
      <point x="395.32" y="723.24" type="line"/>
      <point x="371.3" y="739.12"/>
      <point x="325.78" y="749.86"/>
      <point x="279.4" y="749.86" type="curve" smooth="yes"/>
      <point x="129.26" y="749.86"/>
      <point x="26.56" y="646.84"/>
      <point x="32.44" y="483.42" type="curve" smooth="yes"/>
      <point x="35.019999999999996" y="411.62"/>
      <point x="40.84" y="340.82"/>
      <point x="102.72" y="190.5" type="curve" smooth="yes"/>
      <point x="145.14" y="84.94"/>
      <point x="165.02" y="42.980000000000004"/>
      <point x="165.02" y="2.8400000000000034" type="curve" smooth="yes"/>
      <point x="165.02" y="-32.96000000000001"/>
      <point x="144.74" y="-48.06"/>
      <point x="113.48" y="-48.06" type="curve" smooth="yes"/>
      <point x="97.36" y="-48.06"/>
      <point x="78.94" y="-43.360000000000014"/>
      <point x="64.97999999999999" y="-29.680000000000007" type="curve"/>
      <point x="35.78" y="-184.72" type="line"/>
      <point x="63.34" y="-206.7"/>
      <point x="117.3" y="-220.86"/>
    </contour>
    <contour>
      <point x="160.6" y="-119.28" type="curve" smooth="yes"/>
      <point x="144.6" y="-119.28"/>
      <point x="127.86" y="-114.7"/>
      <point x="108.82" y="-104.82000000000001" type="curve"/>
      <point x="152.34" y="-130.72" type="line"/>
      <point x="221.4" y="-125.42"/>
      <point x="266.44" y="-72.22"/>
      <point x="266.44" y="7.859999999999985" type="curve" smooth="yes"/>
      <point x="266.44" y="63.620000000000005"/>
      <point x="252.57999999999998" y="125.63999999999999"/>
      <point x="206.72" y="242.07999999999998" type="curve" smooth="yes"/>
      <point x="159.04" y="363.82"/>
      <point x="141.74" y="419.36"/>
      <point x="141.74" y="492.02" type="curve" smooth="yes"/>
      <point x="141.74" y="568.64"/>
      <point x="183.54" y="626.36"/>
      <point x="233.14" y="626.36" type="curve" smooth="yes"/>
      <point x="250.04" y="626.36"/>
      <point x="261.64" y="622.06"/>
      <point x="273.65999999999997" y="609.88" type="curve"/>
      <point x="253.06" y="646.54" type="line"/>
      <point x="214.2" y="633.6800000000001"/>
      <point x="176.44" y="595.1"/>
      <point x="176.44" y="534.62" type="curve" smooth="yes"/>
      <point x="176.44" y="483.15999999999997"/>
      <point x="188.74" y="423.65999999999997"/>
      <point x="237.9" y="301.46000000000004" type="curve" smooth="yes"/>
      <point x="292.02" y="163.84"/>
      <point x="302.72" y="102.88"/>
      <point x="302.72" y="50.42" type="curve" smooth="yes"/>
      <point x="302.72" y="-54.58"/>
      <point x="245.72" y="-119.28"/>
    </contour>
  </outline>
</glyph>
<glyph name="copyright" format="2">
  <advance width="667.8399999999999"/>
  <unicode hex="00A9"/>
  <outline>
    <contour>
      <point x="333.91999999999996" y="39.68" type="curve" smooth="yes"/>
      <point x="165.14" y="39.68"/>
      <point x="81.82" y="159.95999999999998"/>
      <point x="81.82" y="350.86" type="curve" smooth="yes"/>
      <point x="81.82" y="541.9"/>
      <point x="165.14" y="662.04"/>
      <point x="333.91999999999996" y="662.04" type="curve" smooth="yes"/>
      <point x="505.28" y="662.04"/>
      <point x="585.16" y="541.9"/>
      <point x="585.16" y="350.86" type="curve" smooth="yes"/>
      <point x="585.16" y="159.95999999999998"/>
      <point x="505.28" y="39.68"/>
    </contour>
    <contour>
      <point x="333.91999999999996" y="710.0" type="curve" smooth="yes"/>
      <point x="134.8" y="710.0"/>
      <point x="31.28" y="562.2"/>
      <point x="31.28" y="350.86" type="curve" smooth="yes"/>
      <point x="31.28" y="140.51999999999998"/>
      <point x="134.8" y="-10.0"/>
      <point x="333.91999999999996" y="-10.0" type="curve" smooth="yes"/>
      <point x="533.04" y="-10.0"/>
      <point x="636.56" y="140.51999999999998"/>
      <point x="636.56" y="350.86" type="curve" smooth="yes"/>
      <point x="636.56" y="562.2"/>
      <point x="533.04" y="710.0"/>
    </contour>
    <contour>
      <point x="205.56" y="353.2" type="curve" smooth="yes"/>
      <point x="205.56" y="198.06"/>
      <point x="252.64" y="124.72"/>
      <point x="342.34000000000003" y="124.72" type="curve" smooth="yes"/>
      <point x="368.4" y="124.72"/>
      <point x="393.86" y="125.86"/>
      <point x="424.5" y="139.9" type="curve"/>
      <point x="407.6" y="243.04" type="line"/>
      <point x="383.4" y="235.88"/>
      <point x="370.7" y="234.01999999999998"/>
      <point x="355.24" y="234.01999999999998" type="curve" smooth="yes"/>
      <point x="326.28" y="234.01999999999998"/>
      <point x="321.02" y="261.48"/>
      <point x="321.02" y="347.18" type="curve" smooth="yes"/>
      <point x="321.02" y="444.68"/>
      <point x="330.28" y="474.92"/>
      <point x="359.82" y="474.92" type="curve" smooth="yes"/>
      <point x="372.12" y="474.92"/>
      <point x="397.32" y="469.76"/>
      <point x="411.48" y="465.9" type="curve"/>
      <point x="430.96000000000004" y="565.6" type="line"/>
      <point x="408.06" y="578.92"/>
      <point x="371.26" y="584.22"/>
      <point x="339.18" y="584.22" type="curve" smooth="yes"/>
      <point x="258.36" y="584.22"/>
      <point x="205.56" y="527.76"/>
    </contour>
  </outline>
</glyph>
<glyph name="ordfeminine" format="2">
  <advance width="279.3"/>
  <unicode hex="00AA"/>
  <outline>
    <contour>
      <point x="23.86" y="249.54" type="line"/>
      <point x="255.0" y="249.54" type="line"/>
      <point x="255.0" y="326.02" type="line"/>
      <point x="23.86" y="326.02" type="line"/>
    </contour>
    <component base="a.superior" xOffset="8.56"/>
  </outline>
</glyph>
<glyph name="logicalnot" format="2">
  <advance width="413.0"/>
  <unicode hex="00AC"/>
  <outline>
    <contour>
      <point x="42.14" y="300.58" type="line"/>
      <point x="230.6" y="300.58" type="line"/>
      <point x="230.6" y="178.72" type="line"/>
      <point x="371.0" y="178.72" type="line"/>
      <point x="371.0" y="440.98" type="line"/>
      <point x="42.14" y="440.98" type="line"/>
    </contour>
  </outline>
</glyph>
<glyph name="registered" format="2">
  <advance width="637.06"/>
  <unicode hex="00AE"/>
  <outline>
    <contour>
      <point x="318.6" y="208.0" type="curve" smooth="yes"/>
      <point x="507.7" y="208.0"/>
      <point x="605.78" y="351.08"/>
      <point x="605.78" y="550.86" type="curve" smooth="yes"/>
      <point x="605.78" y="751.64"/>
      <point x="507.7" y="892.0"/>
      <point x="318.6" y="892.0" type="curve" smooth="yes"/>
      <point x="129.5" y="892.0"/>
      <point x="31.28" y="751.64"/>
      <point x="31.28" y="550.86" type="curve" smooth="yes"/>
      <point x="31.28" y="351.08"/>
      <point x="129.5" y="208.0"/>
    </contour>
    <contour>
      <point x="318.6" y="254.96" type="curve" smooth="yes"/>
      <point x="157.98000000000002" y="254.96"/>
      <point x="79.24" y="369.52"/>
      <point x="79.24" y="550.86" type="curve" smooth="yes"/>
      <point x="79.24" y="732.34"/>
      <point x="157.98000000000002" y="846.76"/>
      <point x="318.6" y="846.76" type="curve" smooth="yes"/>
      <point x="481.8" y="846.76"/>
      <point x="557.1" y="732.34"/>
      <point x="557.1" y="550.86" type="curve" smooth="yes"/>
      <point x="557.1" y="369.52"/>
      <point x="481.8" y="254.96"/>
    </contour>
    <contour>
      <point x="431.36" y="342.52" type="curve" smooth="yes"/>
      <point x="436.94" y="342.52"/>
      <point x="445.68" y="342.52"/>
      <point x="451.53999999999996" y="343.52" type="curve"/>
      <point x="451.12" y="453.54" type="line"/>
      <point x="449.12" y="453.4"/>
      <point x="446.4" y="453.4"/>
      <point x="444.4" y="453.4" type="curve" smooth="yes"/>
      <point x="416.91999999999996" y="453.4"/>
      <point x="405.32" y="481.54"/>
      <point x="398.94" y="509.9" type="curve"/>
      <point x="433.53999999999996" y="528.48"/>
      <point x="446.0" y="580.68"/>
      <point x="446.0" y="637.16" type="curve" smooth="yes"/>
      <point x="446.0" y="728.98"/>
      <point x="401.48" y="771.04"/>
      <point x="330.52" y="771.04" type="curve" smooth="yes"/>
      <point x="286.84000000000003" y="771.04"/>
      <point x="252.2" y="768.18"/>
      <point x="216.42000000000002" y="765.04" type="curve"/>
      <point x="216.42000000000002" y="347.96" type="line"/>
      <point x="311.96000000000004" y="347.96" type="line"/>
      <point x="311.96000000000004" y="475.8" type="line"/>
      <point x="312.94" y="475.66"/>
      <point x="314.78" y="475.52"/>
      <point x="315.62" y="475.52" type="curve" smooth="yes"/>
      <point x="317.03999999999996" y="475.52"/>
      <point x="317.6" y="475.52"/>
      <point x="319.02" y="475.66" type="curve"/>
      <point x="349.6" y="342.76"/>
      <point x="386.14" y="342.52"/>
    </contour>
    <contour>
      <point x="324.52" y="544.26" type="curve" smooth="yes"/>
      <point x="320.38" y="544.26"/>
      <point x="316.96000000000004" y="544.26"/>
      <point x="311.96000000000004" y="545.26" type="curve"/>
      <point x="311.96000000000004" y="676.08" type="line"/>
      <point x="318.38" y="678.08"/>
      <point x="324.65999999999997" y="678.22"/>
      <point x="327.22" y="678.22" type="curve" smooth="yes"/>
      <point x="344.44" y="678.22"/>
      <point x="347.02" y="659.26"/>
      <point x="347.02" y="619.68" type="curve" smooth="yes"/>
      <point x="347.02" y="566.64"/>
      <point x="342.72" y="544.26"/>
    </contour>
  </outline>
</glyph>
<glyph name="degree" format="2">
  <advance width="305.72"/>
  <unicode hex="00B0"/>
  <outline>
    <contour>
      <point x="152.72" y="392.72" type="curve" smooth="yes"/>
      <point x="243.42000000000002" y="392.72"/>
      <point x="284.32" y="461.94"/>
      <point x="284.32" y="552.48" type="curve" smooth="yes"/>
      <point x="284.32" y="637.0"/>
      <point x="248.57999999999998" y="712.52"/>
      <point x="152.72" y="712.52" type="curve" smooth="yes"/>
      <point x="56.86" y="712.52"/>
      <point x="21.4" y="637.0"/>
      <point x="21.4" y="552.48" type="curve" smooth="yes"/>
      <point x="21.4" y="461.94"/>
      <point x="62.019999999999996" y="392.72"/>
    </contour>
    <contour>
      <point x="152.72" y="503.88" type="curve" smooth="yes"/>
      <point x="133.22" y="503.88"/>
      <point x="122.24" y="522.82"/>
      <point x="122.24" y="551.62" type="curve" smooth="yes"/>
      <point x="122.24" y="578.7"/>
      <point x="132.36" y="597.92"/>
      <point x="152.72" y="597.92" type="curve" smooth="yes"/>
      <point x="173.07999999999998" y="597.92"/>
      <point x="183.48" y="578.7"/>
      <point x="183.48" y="551.62" type="curve" smooth="yes"/>
      <point x="183.48" y="522.82"/>
      <point x="172.22" y="503.88"/>
    </contour>
  </outline>
</glyph>
<glyph name="plusminus" format="2">
  <advance width="417.48"/>
  <unicode hex="00B1"/>
  <outline>
    <contour>
      <point x="41.58" y="10.079999999999998" type="line"/>
      <point x="375.9" y="10.079999999999998" type="line"/>
      <point x="375.9" y="150.48" type="line"/>
      <point x="278.94" y="150.48" type="line"/>
      <point x="278.94" y="248.98000000000002" type="line"/>
      <point x="375.9" y="248.98000000000002" type="line"/>
      <point x="375.9" y="389.38" type="line"/>
      <point x="278.94" y="389.38" type="line"/>
      <point x="278.94" y="490.82" type="line"/>
      <point x="138.54" y="490.82" type="line"/>
      <point x="138.54" y="389.38" type="line"/>
      <point x="41.58" y="389.38" type="line"/>
      <point x="41.58" y="248.98000000000002" type="line"/>
      <point x="138.54" y="248.98000000000002" type="line"/>
      <point x="138.54" y="150.48" type="line"/>
      <point x="41.58" y="150.48" type="line"/>
    </contour>
  </outline>
</glyph>
<glyph name="uni00B2" format="2">
  <advance width="258.7"/>
  <unicode hex="00B2"/>
  <outline>
    <contour>
      <point x="34.08" y="370.0" type="line"/>
      <point x="232.62" y="370.0" type="line"/>
      <point x="232.62" y="450.5" type="line"/>
      <point x="141.24" y="450.5" type="line"/>
      <point x="207.54" y="546.32"/>
      <point x="226.66" y="589.48"/>
      <point x="226.66" y="648.48" type="curve" smooth="yes"/>
      <point x="226.66" y="732.12"/>
      <point x="187.6" y="775.14"/>
      <point x="119.64" y="775.14" type="curve" smooth="yes"/>
      <point x="81.58" y="775.14"/>
      <point x="51.54" y="763.98"/>
      <point x="18.34" y="740.84" type="curve"/>
      <point x="53.86" y="649.72" type="line"/>
      <point x="69.72" y="660.6800000000001"/>
      <point x="81.86" y="664.54"/>
      <point x="97.14" y="664.54" type="curve" smooth="yes"/>
      <point x="116.12" y="664.54"/>
      <point x="129.54" y="646.02"/>
      <point x="129.54" y="622.26" type="curve" smooth="yes"/>
      <point x="129.54" y="585.32"/>
      <point x="87.78" y="517.4"/>
      <point x="33.66" y="443.34" type="curve"/>
    </contour>
  </outline>
</glyph>
<glyph name="uni00B3" format="2">
  <advance width="269.88"/>
  <unicode hex="00B3"/>
  <outline>
    <contour>
      <point x="23.64" y="392.6" type="line"/>
      <point x="59.14" y="372.3"/>
      <point x="83.16" y="365.16"/>
      <point x="120.06" y="365.16" type="curve" smooth="yes"/>
      <point x="195.16" y="365.16"/>
      <point x="240.22" y="411.02"/>
      <point x="240.22" y="487.74" type="curve" smooth="yes"/>
      <point x="240.22" y="531.14"/>
      <point x="220.34" y="566.28"/>
      <point x="186.04" y="584.88" type="curve"/>
      <point x="215.92000000000002" y="606.34"/>
      <point x="233.8" y="641.34"/>
      <point x="233.8" y="676.74" type="curve" smooth="yes"/>
      <point x="233.8" y="738.16"/>
      <point x="191.6" y="776.58"/>
      <point x="123.36" y="776.58" type="curve" smooth="yes"/>
      <point x="83.86" y="776.58"/>
      <point x="49.66" y="766.14"/>
      <point x="22.18" y="744.54" type="curve"/>
      <point x="54.26" y="667.32" type="line"/>
      <point x="64.26" y="673.88"/>
      <point x="82.0" y="677.88"/>
      <point x="99.0" y="677.88" type="curve" smooth="yes"/>
      <point x="123.98" y="677.88"/>
      <point x="137.68" y="665.52"/>
      <point x="137.68" y="643.2" type="curve" smooth="yes"/>
      <point x="137.68" y="624.72"/>
      <point x="128.4" y="610.8"/>
      <point x="105.72" y="610.8" type="curve" smooth="yes"/>
      <point x="76.7" y="610.8" type="line"/>
      <point x="76.7" y="534.6" type="line"/>
      <point x="109.16" y="534.6" type="line" smooth="yes"/>
      <point x="134.54" y="534.6"/>
      <point x="142.96" y="520.24"/>
      <point x="142.96" y="498.06" type="curve" smooth="yes"/>
      <point x="142.96" y="472.62"/>
      <point x="128.12" y="457.84000000000003"/>
      <point x="104.44" y="457.84000000000003" type="curve" smooth="yes"/>
      <point x="87.74" y="457.84000000000003"/>
      <point x="75.74" y="461.26"/>
      <point x="58.58" y="471.68" type="curve"/>
    </contour>
  </outline>
</glyph>
<glyph name="uni00B5" format="2">
  <advance width="411.76"/>
  <unicode hex="00B5"/>
  <outline>
    <contour>
      <point x="22.5" y="-210.0" type="line"/>
      <point x="168.06" y="-210.0" type="line"/>
      <point x="168.06" y="-1.7800000000000011" type="line"/>
      <point x="173.45999999999998" y="-5.72"/>
      <point x="181.42000000000002" y="-8.28"/>
      <point x="192.1" y="-8.28" type="curve" smooth="yes"/>
      <point x="211.36" y="-8.28"/>
      <point x="234.62" y="5.16"/>
      <point x="246.44" y="20.16" type="curve"/>
      <point x="264.06" y="3.44"/>
      <point x="274.76" y="-10.0"/>
      <point x="320.28" y="-10.0" type="curve" smooth="yes"/>
      <point x="361.24" y="-10.0"/>
      <point x="387.72" y="0.5999999999999996"/>
      <point x="410.32" y="12.76" type="curve"/>
      <point x="399.88" y="144.14" type="line"/>
      <point x="395.9" y="142.57999999999998"/>
      <point x="389.48" y="141.44"/>
      <point x="384.78" y="141.44" type="curve" smooth="yes"/>
      <point x="376.94" y="141.44"/>
      <point x="373.52" y="146.0"/>
      <point x="373.52" y="166.44" type="curve" smooth="yes"/>
      <point x="373.52" y="547.2" type="line"/>
      <point x="220.22" y="547.2" type="line"/>
      <point x="220.22" y="146.66" type="line"/>
      <point x="213.4" y="140.26"/>
      <point x="203.62" y="137.0"/>
      <point x="195.66" y="137.0" type="curve" smooth="yes"/>
      <point x="186.34" y="137.0"/>
      <point x="176.66" y="142.5"/>
      <point x="176.66" y="161.4" type="curve" smooth="yes"/>
      <point x="176.66" y="547.2" type="line"/>
      <point x="22.5" y="547.2" type="line"/>
    </contour>
  </outline>
</glyph>
<glyph name="paragraph" format="2">
  <advance width="530.36"/>
  <unicode hex="00B6"/>
  <outline>
    <contour>
      <point x="386.38" y="-210.0" type="line"/>
      <point x="506.14" y="-210.0" type="line"/>
      <point x="506.14" y="740.0" type="line"/>
      <point x="386.38" y="740.0" type="line"/>
    </contour>
    <contour>
      <point x="220.36" y="351.52" type="line"/>
      <point x="193.98000000000002" y="358.62"/>
      <point x="162.42000000000002" y="409.46"/>
      <point x="162.42000000000002" y="485.96" type="curve" smooth="yes"/>
      <point x="162.42000000000002" y="548.54"/>
      <point x="187.34" y="597.46"/>
      <point x="233.26" y="598.16" type="curve"/>
      <point x="233.26" y="-210.0" type="line"/>
      <point x="353.02" y="-210.0" type="line"/>
      <point x="353.02" y="740.0" type="line"/>
      <point x="278.68" y="740.0" type="line" smooth="yes"/>
      <point x="79.88" y="740.0"/>
      <point x="25.46" y="617.74"/>
      <point x="25.46" y="490.26" type="curve" smooth="yes"/>
      <point x="25.46" y="369.64"/>
      <point x="81.08" y="274.53999999999996"/>
      <point x="202.16" y="246.38" type="curve"/>
    </contour>
  </outline>
</glyph>
<glyph name="periodcentered" format="2">
  <advance width="184.60000000000002"/>
  <unicode hex="00B7"/>
  <outline>
    <contour>
      <point x="10.36" y="322.4" type="curve" smooth="yes"/>
      <point x="10.36" y="253.07999999999998"/>
      <point x="34.72" y="219.4"/>
      <point x="92.44" y="219.4" type="curve" smooth="yes"/>
      <point x="150.16" y="219.4"/>
      <point x="174.24" y="253.07999999999998"/>
      <point x="174.24" y="322.4" type="curve" smooth="yes"/>
      <point x="174.24" y="392.44"/>
      <point x="150.16" y="426.12"/>
      <point x="92.44" y="426.12" type="curve" smooth="yes"/>
      <point x="34.44" y="426.12"/>
      <point x="10.36" y="392.44"/>
    </contour>
  </outline>
</glyph>
<glyph name="uni00B9" format="2">
  <advance width="236.24"/>
  <unicode hex="00B9"/>
  <outline>
    <contour>
      <point x="25.42" y="370.0" type="line"/>
      <point x="222.86" y="370.0" type="line"/>
      <point x="222.86" y="450.64" type="line"/>
      <point x="176.2" y="450.64" type="line"/>
      <point x="176.2" y="769.14" type="line"/>
      <point x="127.5" y="769.14" type="line"/>
      <point x="15.96" y="734.54" type="line"/>
      <point x="31.7" y="642.14" type="line"/>
      <point x="78.94" y="657.72" type="line"/>
      <point x="78.94" y="450.64" type="line"/>
      <point x="25.42" y="450.64" type="line"/>
    </contour>
  </outline>
</glyph>
<glyph name="ordmasculine" format="2">
  <advance width="279.08"/>
  <unicode hex="00BA"/>
  <outline>
    <contour>
      <point x="27.84" y="249.54" type="line"/>
      <point x="258.98" y="249.54" type="line"/>
      <point x="258.98" y="326.02" type="line"/>
      <point x="27.84" y="326.02" type="line"/>
    </contour>
    <component base="o.superior" xOffset="9.68"/>
  </outline>
</glyph>
<glyph name="questiondown" format="2">
  <advance width="342.94"/>
  <unicode hex="00BF"/>
  <outline>
    <contour>
      <point x="269.52" y="278.04" type="line"/>
      <point x="135.14" y="278.04" type="line"/>
      <point x="135.14" y="204.34" type="line"/>
      <point x="59.4" y="160.32"/>
      <point x="27.84" y="81.2"/>
      <point x="27.84" y="-15.32" type="curve" smooth="yes"/>
      <point x="27.84" y="-141.92000000000002"/>
      <point x="93.74" y="-211.4"/>
      <point x="215.51999999999998" y="-211.4" type="curve" smooth="yes"/>
      <point x="270.44" y="-211.4"/>
      <point x="320.78" y="-191.26"/>
      <point x="355.38" y="-162.7" type="curve"/>
      <point x="299.52" y="-18.120000000000005" type="line"/>
      <point x="272.24" y="-39.94"/>
      <point x="257.86" y="-41.900000000000006"/>
      <point x="240.45999999999998" y="-41.900000000000006" type="curve" smooth="yes"/>
      <point x="205.66" y="-41.900000000000006"/>
      <point x="187.3" y="-16.439999999999998"/>
      <point x="187.3" y="17.08" type="curve" smooth="yes"/>
      <point x="187.3" y="54.04"/>
      <point x="200.98000000000002" y="95.28"/>
      <point x="272.96" y="136.0" type="curve"/>
    </contour>
    <contour>
      <point x="283.98" y="443.34000000000003" type="curve" smooth="yes"/>
      <point x="283.98" y="512.66"/>
      <point x="260.34000000000003" y="546.34"/>
      <point x="201.9" y="546.34" type="curve" smooth="yes"/>
      <point x="145.04" y="546.34"/>
      <point x="119.96000000000001" y="512.66"/>
      <point x="119.96000000000001" y="443.34000000000003" type="curve" smooth="yes"/>
      <point x="119.96000000000001" y="373.15999999999997"/>
      <point x="145.04" y="339.48"/>
      <point x="201.9" y="339.48" type="curve" smooth="yes"/>
      <point x="260.62" y="339.48"/>
      <point x="283.98" y="373.15999999999997"/>
    </contour>
  </outline>
</glyph>
<glyph name="AE" format="2">
  <advance width="611.44"/>
  <unicode hex="00C6"/>
  <anchor x="352.34000000000003" y="700.0" name="top"/>
  <outline>
    <contour>
      <point x="4.52" y="0.0" type="line"/>
      <point x="173.3" y="-0.14" type="line"/>
      <point x="202.22" y="132.5" type="line"/>
      <point x="291.6" y="132.5" type="line"/>
      <point x="291.6" y="0.0" type="line"/>
      <point x="599.5799999999999" y="0.0" type="line"/>
      <point x="599.5799999999999" y="155.88" type="line"/>
      <point x="439.74" y="155.88" type="line"/>
      <point x="439.74" y="272.54" type="line"/>
      <point x="566.84" y="272.54" type="line"/>
      <point x="566.84" y="419.82" type="line"/>
      <point x="439.74" y="419.82" type="line"/>
      <point x="439.74" y="539.8199999999999" type="line"/>
      <point x="588.72" y="539.8199999999999" type="line"/>
      <point x="588.72" y="700.0" type="line"/>
      <point x="183.0" y="700.0" type="line"/>
    </contour>
    <contour>
      <point x="229.57999999999998" y="285.66" type="line"/>
      <point x="289.88" y="594.14" type="line"/>
      <point x="289.88" y="285.66" type="line"/>
    </contour>
  </outline>
</glyph>
<glyph name="multiply" format="2">
  <advance width="410.2"/>
  <unicode hex="00D7"/>
  <outline>
    <contour>
      <point x="133.92000000000002" y="149.95999999999998" type="line"/>
      <point x="204.96" y="233.46" type="line"/>
      <point x="276.28" y="150.1" type="line"/>
      <point x="375.98" y="248.54" type="line"/>
      <point x="303.82" y="333.58" type="line"/>
      <point x="375.84000000000003" y="418.9" type="line"/>
      <point x="276.14" y="517.34" type="line"/>
      <point x="204.96" y="433.84000000000003" type="line"/>
      <point x="133.92000000000002" y="517.34" type="line"/>
      <point x="34.22" y="418.9" type="line"/>
      <point x="106.24000000000001" y="333.58" type="line"/>
      <point x="34.22" y="248.4" type="line"/>
    </contour>
  </outline>
</glyph>
<glyph name="Oslash" format="2">
  <advance width="404.20000000000005"/>
  <unicode hex="00D8"/>
  <anchor x="204.04000000000002" y="700.0" name="top"/>
  <outline>
    <contour>
      <point x="85.72" y="-10.0" type="line"/>
      <point x="131.48000000000002" y="99.36" type="line"/>
      <point x="138.32" y="98.36" type="line"/>
      <point x="320.84" y="571.76" type="line"/>
      <point x="327.4" y="569.76" type="line"/>
      <point x="388.52" y="718.6" type="line"/>
      <point x="322.64000000000004" y="718.6" type="line"/>
      <point x="279.96" y="615.1600000000001" type="line"/>
      <point x="273.12" y="616.16" type="line"/>
      <point x="90.12" y="145.48000000000002" type="line"/>
      <point x="83.84" y="147.48000000000002" type="line"/>
      <point x="19.119999999999997" y="-10.0" type="line"/>
    </contour>
    <contour>
      <point x="204.04000000000002" y="130.12" type="curve" smooth="yes"/>
      <point x="168.44" y="130.12"/>
      <point x="164.24" y="164.72"/>
      <point x="164.24" y="349.0" type="curve" smooth="yes"/>
      <point x="164.24" y="533.5600000000001"/>
      <point x="169.16" y="569.88"/>
      <point x="204.04000000000002" y="569.88" type="curve" smooth="yes"/>
      <point x="239.92000000000002" y="569.88"/>
      <point x="244.12" y="535.28"/>
      <point x="244.12" y="350.71999999999997" type="curve" smooth="yes"/>
      <point x="244.12" y="166.44"/>
      <point x="239.20000000000002" y="130.12"/>
    </contour>
    <contour>
      <point x="203.32" y="-10.0" type="curve" smooth="yes"/>
      <point x="336.48" y="-10.0"/>
      <point x="394.12" y="74.76"/>
      <point x="394.12" y="351.72" type="curve" smooth="yes"/>
      <point x="394.12" y="626.9599999999999"/>
      <point x="337.48" y="710.0"/>
      <point x="204.04000000000002" y="710.0" type="curve" smooth="yes"/>
      <point x="70.88000000000001" y="710.0"/>
      <point x="13.519999999999998" y="625.24"/>
      <point x="13.519999999999998" y="348.28" type="curve" smooth="yes"/>
      <point x="13.519999999999998" y="73.04"/>
      <point x="70.16000000000001" y="-10.0"/>
    </contour>
  </outline>
</glyph>
<glyph name="Thorn" format="2">
  <advance width="410.53999999999996"/>
  <unicode hex="00DE"/>
  <outline>
    <contour>
      <point x="24.94" y="0.0" type="line"/>
      <point x="179.1" y="0.0" type="line"/>
      <point x="179.1" y="108.74" type="line"/>
      <point x="204.57999999999998" y="105.16"/>
      <point x="210.12" y="105.16"/>
      <point x="231.28" y="105.16" type="curve" smooth="yes"/>
      <point x="347.96000000000004" y="105.16"/>
      <point x="399.7" y="195.54"/>
      <point x="399.7" y="380.78" type="curve" smooth="yes"/>
      <point x="399.7" y="558.44"/>
      <point x="349.06" y="642.42"/>
      <point x="197.3" y="642.42" type="curve" smooth="yes"/>
      <point x="191.89999999999998" y="642.42"/>
      <point x="185.64" y="642.28"/>
      <point x="179.95999999999998" y="642.0" type="curve"/>
      <point x="179.95999999999998" y="700.0" type="line"/>
      <point x="24.94" y="700.0" type="line"/>
    </contour>
    <contour>
      <point x="203.04" y="258.46" type="curve" smooth="yes"/>
      <point x="194.78" y="258.46"/>
      <point x="189.51999999999998" y="258.46"/>
      <point x="179.95999999999998" y="260.32" type="curve"/>
      <point x="179.95999999999998" y="492.28" type="line"/>
      <point x="191.66" y="495.28"/>
      <point x="202.36" y="495.42"/>
      <point x="207.76" y="495.42" type="curve" smooth="yes"/>
      <point x="236.86" y="495.42"/>
      <point x="245.54" y="463.34000000000003"/>
      <point x="245.54" y="390.68" type="curve" smooth="yes"/>
      <point x="245.54" y="315.9"/>
      <point x="238.78" y="258.46"/>
    </contour>
  </outline>
</glyph>
<glyph name="germandbls" format="2">
  <advance width="538.16"/>
  <unicode hex="00DF"/>
  <outline>
    <contour>
      <point x="49.64" y="0.0" type="line"/>
      <point x="202.8" y="0.0" type="line"/>
      <point x="202.8" y="509.36000000000007" type="line" smooth="yes"/>
      <point x="202.8" y="568.32"/>
      <point x="229.08" y="606.32"/>
      <point x="286.04" y="606.32" type="curve" smooth="yes"/>
      <point x="325.15999999999997" y="606.32"/>
      <point x="341.56" y="594.68"/>
      <point x="341.56" y="566.6" type="curve" smooth="yes"/>
      <point x="341.56" y="543.92"/>
      <point x="330.08" y="534.5600000000001"/>
      <point x="295.4" y="510.76" type="curve" smooth="yes"/>
      <point x="252.39999999999998" y="481.8"/>
      <point x="228.83999999999997" y="442.36"/>
      <point x="228.83999999999997" y="374.0" type="curve" smooth="yes"/>
      <point x="228.83999999999997" y="273.56000000000006"/>
      <point x="266.92" y="230.92000000000002"/>
      <point x="335.96" y="205.51999999999998" type="curve" smooth="yes"/>
      <point x="381.91999999999996" y="187.24"/>
      <point x="390.88" y="182.36"/>
      <point x="390.88" y="164.04000000000002" type="curve" smooth="yes"/>
      <point x="390.88" y="145.60000000000002"/>
      <point x="376.47999999999996" y="133.28"/>
      <point x="345.64" y="133.28" type="curve" smooth="yes"/>
      <point x="307.64" y="133.28"/>
      <point x="270.64" y="140.56"/>
      <point x="235.44" y="150.56" type="curve"/>
      <point x="218.88" y="16.88" type="line"/>
      <point x="255.08" y="-1.2799999999999998"/>
      <point x="305.72" y="-10.0"/>
      <point x="354.92" y="-10.0" type="curve" smooth="yes"/>
      <point x="470.52" y="-10.0"/>
      <point x="534.88" y="55.92"/>
      <point x="534.88" y="172.92" type="curve" smooth="yes"/>
      <point x="534.88" y="260.6"/>
      <point x="503.44000000000005" y="312.08"/>
      <point x="424.48" y="339.08" type="curve" smooth="yes"/>
      <point x="381.52" y="355.52"/>
      <point x="373.67999999999995" y="368.0"/>
      <point x="373.67999999999995" y="385.32" type="curve" smooth="yes"/>
      <point x="373.67999999999995" y="402.24"/>
      <point x="381.64" y="410.71999999999997"/>
      <point x="412.48" y="426.36" type="curve" smooth="yes"/>
      <point x="482.44000000000005" y="460.44000000000005"/>
      <point x="506.2" y="500.76"/>
      <point x="506.2" y="568.4399999999999" type="curve" smooth="yes"/>
      <point x="506.2" y="685.2"/>
      <point x="425.88" y="750.0"/>
      <point x="277.72" y="750.0" type="curve" smooth="yes"/>
      <point x="133.64000000000001" y="750.0"/>
      <point x="49.64" y="673.4399999999999"/>
      <point x="49.64" y="540.08" type="curve" smooth="yes"/>
      <point x="49.64" y="522.84" type="line"/>
      <point x="5.84" y="515.84" type="line"/>
      <point x="5.84" y="391.03999999999996" type="line"/>
      <point x="49.64" y="391.03999999999996" type="line"/>
    </contour>
  </outline>
</glyph>
<glyph name="ae" format="2">
  <advance width="563.26"/>
  <unicode hex="00E6"/>
  <anchor x="281.7" y="547.2" name="top"/>
  <outline>
    <contour>
      <point x="129.4" y="-10.0" type="curve" smooth="yes"/>
      <point x="181.74" y="-10.0"/>
      <point x="217.74" y="6.26"/>
      <point x="262.06" y="48.24" type="curve"/>
      <point x="263.06" y="48.24" type="line"/>
      <point x="298.12" y="8.7"/>
      <point x="339.74" y="-10.0"/>
      <point x="398.08" y="-10.0" type="curve" smooth="yes"/>
      <point x="448.58" y="-10.0"/>
      <point x="496.94" y="1.88"/>
      <point x="548.1800000000001" y="24.919999999999998" type="curve"/>
      <point x="526.84" y="164.18" type="line"/>
      <point x="490.94" y="153.32"/>
      <point x="447.02" y="144.88"/>
      <point x="427.46000000000004" y="144.88" type="curve" smooth="yes"/>
      <point x="378.94" y="144.88"/>
      <point x="355.65999999999997" y="162.45999999999998"/>
      <point x="355.65999999999997" y="209.1" type="curve" smooth="yes"/>
      <point x="355.65999999999997" y="212.52"/>
      <point x="355.65999999999997" y="215.07999999999998"/>
      <point x="355.65999999999997" y="218.5" type="curve"/>
      <point x="413.14" y="222.8"/>
      <point x="509.41999999999996" y="234.94"/>
      <point x="548.72" y="240.94" type="curve"/>
      <point x="549.5799999999999" y="259.42"/>
      <point x="550.5799999999999" y="287.5"/>
      <point x="550.5799999999999" y="302.64" type="curve" smooth="yes"/>
      <point x="550.5799999999999" y="486.92"/>
      <point x="503.24" y="557.2"/>
      <point x="381.62" y="557.2" type="curve" smooth="yes"/>
      <point x="341.5" y="557.2"/>
      <point x="310.06" y="542.14"/>
      <point x="281.0" y="513.12" type="curve"/>
      <point x="280.0" y="513.12" type="line"/>
      <point x="246.6" y="543.28"/>
      <point x="212.44" y="557.2"/>
      <point x="166.9" y="557.2" type="curve" smooth="yes"/>
      <point x="124.7" y="557.2"/>
      <point x="62.72" y="543.6"/>
      <point x="21.240000000000002" y="525.72" type="curve"/>
      <point x="54.04" y="379.72" type="line"/>
      <point x="105.28" y="396.46000000000004"/>
      <point x="136.01999999999998" y="397.02"/>
      <point x="153.14" y="397.02" type="curve" smooth="yes"/>
      <point x="181.07999999999998" y="397.02"/>
      <point x="199.92" y="382.22"/>
      <point x="199.92" y="356.5" type="curve" smooth="yes"/>
      <point x="199.92" y="338.0" type="line"/>
      <point x="58.58" y="321.65999999999997"/>
      <point x="4.7" y="273.24"/>
      <point x="4.7" y="155.88" type="curve" smooth="yes"/>
      <point x="4.7" y="52.78"/>
      <point x="52.18" y="-10.0"/>
    </contour>
    <contour>
      <point x="178.7" y="117.36" type="curve" smooth="yes"/>
      <point x="164.07999999999998" y="117.36"/>
      <point x="153.7" y="134.72"/>
      <point x="153.7" y="172.06" type="curve" smooth="yes"/>
      <point x="153.7" y="215.22"/>
      <point x="166.57999999999998" y="235.4"/>
      <point x="200.78" y="242.46" type="curve"/>
      <point x="200.78" y="230.88"/>
      <point x="200.78" y="216.86"/>
      <point x="200.78" y="205.28" type="curve" smooth="yes"/>
      <point x="200.78" y="179.72"/>
      <point x="201.76" y="153.82"/>
      <point x="202.74" y="132.88" type="curve"/>
      <point x="197.96" y="124.0"/>
      <point x="186.62" y="117.36"/>
    </contour>
    <contour>
      <point x="353.94" y="313.9" type="curve"/>
      <point x="351.36" y="405.26"/>
      <point x="359.44" y="429.98"/>
      <point x="374.6" y="429.98" type="curve" smooth="yes"/>
      <point x="392.06" y="429.98"/>
      <point x="398.14" y="403.26"/>
      <point x="399.86" y="318.0" type="curve"/>
      <point x="392.22" y="315.88"/>
      <point x="366.82" y="313.9"/>
    </contour>
  </outline>
</glyph>
<glyph name="eth" format="2">
  <advance width="387.04"/>
  <unicode hex="00F0"/>
  <outline>
    <contour>
      <point x="238.23999999999998" y="413.28000000000003" type="curve"/>
      <point x="246.4" y="525.44" type="line"/>
      <point x="224.79999999999998" y="534.0"/>
      <point x="201.35999999999999" y="539.28"/>
      <point x="180.07999999999998" y="539.28" type="curve" smooth="yes"/>
      <point x="56.4" y="539.28"/>
      <point x="12.8" y="447.68"/>
      <point x="12.8" y="246.68" type="curve" smooth="yes"/>
      <point x="12.8" y="69.6"/>
      <point x="67.32000000000001" y="-10.0"/>
      <point x="187.20000000000002" y="-10.0" type="curve" smooth="yes"/>
      <point x="329.0" y="-10.0"/>
      <point x="375.08" y="76.48"/>
      <point x="375.08" y="346.52" type="curve" smooth="yes"/>
      <point x="375.08" y="614.4799999999999"/>
      <point x="296.88" y="744.4"/>
      <point x="130.28" y="744.4" type="curve" smooth="yes"/>
      <point x="87.64" y="744.4"/>
      <point x="47.839999999999996" y="732.8000000000001"/>
      <point x="16.96" y="719.92" type="curve"/>
      <point x="34.28" y="618.64" type="line"/>
      <point x="51.56" y="624.64"/>
      <point x="72.16000000000001" y="631.08"/>
      <point x="93.88000000000001" y="631.08" type="curve" smooth="yes"/>
      <point x="195.20000000000002" y="631.08"/>
      <point x="218.48000000000002" y="581.2"/>
      <point x="218.48000000000002" y="372.04" type="curve" smooth="yes"/>
      <point x="218.48000000000002" y="130.88"/>
      <point x="214.51999999999998" y="103.6"/>
      <point x="194.07999999999998" y="103.6" type="curve" smooth="yes"/>
      <point x="174.92000000000002" y="103.6"/>
      <point x="171.39999999999998" y="135.2"/>
      <point x="171.39999999999998" y="247.4" type="curve" smooth="yes"/>
      <point x="171.39999999999998" y="399.84000000000003"/>
      <point x="180.76" y="421.52"/>
      <point x="207.60000000000002" y="421.52" type="curve" smooth="yes"/>
      <point x="215.28" y="421.52"/>
      <point x="225.68" y="419.24"/>
    </contour>
    <contour>
      <point x="133.08" y="554.96" type="line"/>
      <point x="225.60000000000002" y="628.8399999999999" type="line"/>
      <point x="227.16000000000003" y="633.24" type="line"/>
      <point x="368.0" y="744.52" type="line"/>
      <point x="266.24" y="745.24" type="line"/>
      <point x="180.88000000000002" y="677.96" type="line"/>
      <point x="182.16" y="673.24" type="line"/>
      <point x="34.92" y="555.6800000000001" type="line"/>
    </contour>
  </outline>
</glyph>
<glyph name="divide" format="2">
  <advance width="413.0"/>
  <unicode hex="00F7"/>
  <outline>
    <contour>
      <point x="127.28" y="131.07999999999998" type="curve" smooth="yes"/>
      <point x="127.28" y="78.96000000000001"/>
      <point x="151.35999999999999" y="52.88"/>
      <point x="206.64" y="52.88" type="curve" smooth="yes"/>
      <point x="260.92" y="52.88"/>
      <point x="286.0" y="78.96000000000001"/>
      <point x="286.0" y="131.07999999999998" type="curve" smooth="yes"/>
      <point x="286.0" y="183.92"/>
      <point x="260.92" y="210.0"/>
      <point x="206.64" y="210.0" type="curve" smooth="yes"/>
      <point x="151.35999999999999" y="210.0"/>
      <point x="127.28" y="183.92"/>
    </contour>
    <contour>
      <point x="127.28" y="516.72" type="curve" smooth="yes"/>
      <point x="127.28" y="464.6"/>
      <point x="151.35999999999999" y="438.8"/>
      <point x="206.64" y="438.8" type="curve" smooth="yes"/>
      <point x="260.92" y="438.8"/>
      <point x="286.0" y="464.6"/>
      <point x="286.0" y="516.72" type="curve" smooth="yes"/>
      <point x="286.0" y="569.84"/>
      <point x="260.92" y="595.64"/>
      <point x="206.64" y="595.64" type="curve" smooth="yes"/>
      <point x="151.35999999999999" y="595.64"/>
      <point x="127.28" y="569.84"/>
    </contour>
    <contour>
      <point x="41.72" y="254.92" type="line"/>
      <point x="371.56" y="254.92" type="line"/>
      <point x="371.56" y="395.32" type="line"/>
      <point x="41.72" y="395.32" type="line"/>
    </contour>
  </outline>
</glyph>
<glyph name="oslash" format="2">
  <advance width="395.03999999999996"/>
  <unicode hex="00F8"/>
  <anchor x="196.23999999999998" y="547.1999999999999" name="top"/>
  <outline>
    <contour>
      <point x="196.23999999999998" y="-10.0" type="curve" smooth="yes"/>
      <point x="42.959999999999994" y="-10.0"/>
      <point x="12.52" y="108.64"/>
      <point x="12.52" y="274.6" type="curve" smooth="yes"/>
      <point x="12.52" y="440.56000000000006"/>
      <point x="42.959999999999994" y="557.1999999999999"/>
      <point x="196.23999999999998" y="557.1999999999999" type="curve" smooth="yes"/>
      <point x="349.52" y="557.1999999999999"/>
      <point x="380.96000000000004" y="440.56000000000006"/>
      <point x="380.96000000000004" y="274.6" type="curve" smooth="yes"/>
      <point x="380.96000000000004" y="108.64"/>
      <point x="349.52" y="-10.0"/>
    </contour>
    <contour>
      <point x="196.51999999999998" y="124.96000000000001" type="curve" smooth="yes"/>
      <point x="222.28" y="124.96000000000001"/>
      <point x="228.79999999999998" y="140.12"/>
      <point x="228.79999999999998" y="274.6" type="curve" smooth="yes"/>
      <point x="228.79999999999998" y="409.08"/>
      <point x="222.28" y="423.24"/>
      <point x="196.51999999999998" y="423.24" type="curve" smooth="yes"/>
      <point x="169.04000000000002" y="423.24"/>
      <point x="164.24" y="409.08"/>
      <point x="164.24" y="274.6" type="curve" smooth="yes"/>
      <point x="164.24" y="140.12"/>
      <point x="169.04000000000002" y="124.96000000000001"/>
    </contour>
    <contour>
      <point x="9.8" y="-1.4000000000000004" type="line"/>
      <point x="84.64" y="137.6" type="line"/>
      <point x="88.47999999999999" y="137.04" type="line"/>
      <point x="263.32" y="469.96" type="line"/>
      <point x="267.71999999999997" y="469.40000000000003" type="line"/>
      <point x="316.48" y="557.1999999999999" type="line"/>
      <point x="383.68" y="557.1999999999999" type="line"/>
      <point x="311.48" y="426.04" type="line"/>
      <point x="307.36" y="426.6" type="line"/>
      <point x="129.4" y="86.6" type="line"/>
      <point x="125.0" y="87.16" type="line"/>
      <point x="76.28" y="-1.4000000000000004" type="line"/>
    </contour>
  </outline>
</glyph>
<glyph name="thorn" format="2">
  <advance width="392.74"/>
  <unicode hex="00FE"/>
  <outline>
    <contour>
      <point x="22.5" y="-210.0" type="line"/>
      <point x="174.07999999999998" y="-210.0" type="line"/>
      <point x="174.07999999999998" y="-8.879999999999999" type="line"/>
      <point x="179.32" y="-9.72"/>
      <point x="183.14" y="-10.0"/>
      <point x="187.68" y="-10.0" type="curve" smooth="yes"/>
      <point x="328.44" y="-10.0"/>
      <point x="380.08" y="71.3"/>
      <point x="380.08" y="291.48" type="curve" smooth="yes"/>
      <point x="380.08" y="474.52"/>
      <point x="338.48" y="557.2"/>
      <point x="245.51999999999998" y="557.2" type="curve" smooth="yes"/>
      <point x="224.24" y="557.2"/>
      <point x="193.51999999999998" y="546.48"/>
      <point x="175.8" y="532.9" type="curve"/>
      <point x="175.8" y="740.0" type="line"/>
      <point x="22.5" y="740.0" type="line"/>
    </contour>
    <contour>
      <point x="190.42000000000002" y="117.94" type="curve" smooth="yes"/>
      <point x="187.01999999999998" y="117.94"/>
      <point x="183.18" y="119.08"/>
      <point x="176.66" y="121.64" type="curve"/>
      <point x="176.66" y="400.24" type="line"/>
      <point x="183.6" y="406.06"/>
      <point x="186.56" y="408.48"/>
      <point x="194.07999999999998" y="408.48" type="curve" smooth="yes"/>
      <point x="211.68" y="408.48"/>
      <point x="217.32" y="380.82"/>
      <point x="217.32" y="273.42" type="curve" smooth="yes"/>
      <point x="217.32" y="144.51999999999998"/>
      <point x="212.1" y="117.94"/>
    </contour>
  </outline>
</glyph>
<glyph name="Dcroat" format="2">
  <advance width="415.26"/>
  <unicode hex="0110"/>
  <outline>
    <contour>
      <point x="-1.5999999999999996" y="279.48" type="line"/>
      <point x="211.7" y="279.48" type="line"/>
      <point x="211.7" y="422.46" type="line"/>
      <point x="-1.5999999999999996" y="422.46" type="line"/>
    </contour>
    <component base="D" xOffset="0.9800000000000004"/>
  </outline>
</glyph>
<glyph name="dcroat" format="2">
  <advance width="399.62"/>
  <unicode hex="0111"/>
  <outline>
    <contour>
      <point x="139.8" y="606.82" type="line"/>
      <point x="409.65999999999997" y="606.82" type="line"/>
      <point x="409.65999999999997" y="698.78" type="line"/>
      <point x="139.8" y="698.78" type="line"/>
    </contour>
    <component base="d"/>
  </outline>
</glyph>
<glyph name="Hbar" format="2">
  <advance width="415.5"/>
  <unicode hex="0126"/>
  <outline>
    <contour>
      <point x="-0.7599999999999998" y="502.86" type="line"/>
      <point x="24.94" y="502.86" type="line"/>
      <point x="24.94" y="0.0" type="line"/>
      <point x="178.24" y="0.0" type="line"/>
      <point x="178.24" y="236.82" type="line"/>
      <point x="237.26" y="236.82" type="line"/>
      <point x="237.26" y="0.0" type="line"/>
      <point x="390.56" y="0.0" type="line"/>
      <point x="390.56" y="502.86" type="line"/>
      <point x="416.26" y="502.86" type="line"/>
      <point x="416.26" y="631.66" type="line"/>
      <point x="390.56" y="631.66" type="line"/>
      <point x="390.56" y="700.0" type="line"/>
      <point x="237.26" y="700.0" type="line"/>
      <point x="237.26" y="631.66" type="line"/>
      <point x="178.24" y="631.66" type="line"/>
      <point x="178.24" y="700.0" type="line"/>
      <point x="24.94" y="700.0" type="line"/>
      <point x="24.94" y="631.66" type="line"/>
      <point x="-0.7599999999999998" y="631.66" type="line"/>
    </contour>
    <contour>
      <point x="178.24" y="398.58" type="line"/>
      <point x="178.24" y="502.86" type="line"/>
      <point x="237.26" y="502.86" type="line"/>
      <point x="237.26" y="398.58" type="line"/>
    </contour>
  </outline>
</glyph>
<glyph name="hbar" format="2">
  <advance width="394.3"/>
  <unicode hex="0127"/>
  <outline>
    <contour>
      <point x="-6.459999999999999" y="606.82" type="line"/>
      <point x="245.34" y="606.82" type="line"/>
      <point x="245.34" y="698.78" type="line"/>
      <point x="-6.459999999999999" y="698.78" type="line"/>
    </contour>
    <component base="h"/>
  </outline>
</glyph>
<glyph name="Idotaccent" format="2">
  <advance width="203.18"/>
  <unicode hex="0130"/>
  <outline>
    <contour>
      <point x="102.88" y="731.32" type="curve" smooth="yes"/>
      <point x="159.88" y="731.32"/>
      <point x="189.12" y="763.28"/>
      <point x="189.12" y="828.3" type="curve" smooth="yes"/>
      <point x="189.12" y="895.04"/>
      <point x="158.16" y="926.14"/>
      <point x="102.88" y="926.14" type="curve" smooth="yes"/>
      <point x="46.74" y="926.14"/>
      <point x="15.780000000000001" y="895.04"/>
      <point x="15.780000000000001" y="828.3" type="curve" smooth="yes"/>
      <point x="15.780000000000001" y="762.42"/>
      <point x="46.88" y="731.32"/>
    </contour>
    <component base="I"/>
  </outline>
</glyph>
<glyph name="dotlessi" format="2">
  <advance width="200.88"/>
  <unicode hex="0131"/>
  <anchor x="174.94" y="8.6" name="ogonek"/>
  <anchor x="102.16" y="0.0" name="bottom"/>
  <anchor x="100.44" y="547.2" name="top"/>
  <outline>
    <contour>
      <point x="22.5" y="0.0" type="line"/>
      <point x="178.38" y="0.0" type="line"/>
      <point x="178.38" y="547.2" type="line"/>
      <point x="22.5" y="547.2" type="line"/>
    </contour>
  </outline>
</glyph>
<glyph name="Ldot" format="2">
  <advance width="325.82"/>
  <unicode hex="013F"/>
  <outline>
    <contour>
      <point x="212.8" y="390.54" type="curve" smooth="yes"/>
      <point x="212.8" y="345.3"/>
      <point x="228.42000000000002" y="323.66"/>
      <point x="265.5" y="323.66" type="curve" smooth="yes"/>
      <point x="303.58" y="323.66"/>
      <point x="319.06" y="345.3"/>
      <point x="319.06" y="390.54" type="curve" smooth="yes"/>
      <point x="319.06" y="436.64"/>
      <point x="303.58" y="458.28"/>
      <point x="265.5" y="458.28" type="curve" smooth="yes"/>
      <point x="228.28" y="458.28"/>
      <point x="212.8" y="436.64"/>
    </contour>
    <component base="L"/>
  </outline>
</glyph>
<glyph name="ldot" format="2">
  <advance width="329.08"/>
  <unicode hex="0140"/>
  <outline>
    <contour>
      <point x="262.62" y="304.74" type="curve" smooth="yes"/>
      <point x="296.4" y="304.74"/>
      <point x="317.03999999999996" y="324.66"/>
      <point x="317.03999999999996" y="373.34" type="curve" smooth="yes"/>
      <point x="317.03999999999996" y="422.88"/>
      <point x="296.4" y="442.8"/>
      <point x="262.62" y="442.8" type="curve" smooth="yes"/>
      <point x="229.7" y="442.8"/>
      <point x="209.06" y="422.88"/>
      <point x="209.06" y="373.34" type="curve" smooth="yes"/>
      <point x="209.06" y="324.66"/>
      <point x="229.84" y="304.74"/>
    </contour>
    <component base="l"/>
  </outline>
</glyph>
<glyph name="Lslash" format="2">
  <advance width="343.8"/>
  <unicode hex="0141"/>
  <outline>
    <contour>
      <point x="8.52" y="211.42" type="line"/>
      <point x="42.92" y="233.92000000000002" type="line"/>
      <point x="42.92" y="0.0" type="line"/>
      <point x="334.64" y="0.0" type="line"/>
      <point x="334.64" y="155.74" type="line"/>
      <point x="197.07999999999998" y="155.74" type="line"/>
      <point x="197.07999999999998" y="314.7" type="line"/>
      <point x="292.72" y="372.78" type="line"/>
      <point x="292.72" y="526.06" type="line"/>
      <point x="197.07999999999998" y="468.12" type="line"/>
      <point x="197.07999999999998" y="700.0" type="line"/>
      <point x="42.92" y="700.0" type="line"/>
      <point x="42.92" y="387.34000000000003" type="line"/>
      <point x="8.52" y="364.84000000000003" type="line"/>
    </contour>
  </outline>
</glyph>
<glyph name="lslash" format="2">
  <advance width="244.8"/>
  <unicode hex="0142"/>
  <outline>
    <contour>
      <point x="159.06" y="-10.0" type="curve" smooth="yes"/>
      <point x="190.42000000000002" y="-10.0"/>
      <point x="218.76" y="2.3200000000000003"/>
      <point x="234.2" y="13.34" type="curve"/>
      <point x="225.04" y="164.78" type="line"/>
      <point x="218.64" y="163.22"/>
      <point x="212.36" y="162.22"/>
      <point x="208.07999999999998" y="162.22" type="curve" smooth="yes"/>
      <point x="195.54" y="162.22"/>
      <point x="186.98000000000002" y="169.92"/>
      <point x="186.98000000000002" y="208.74" type="curve" smooth="yes"/>
      <point x="186.98000000000002" y="351.98" type="line"/>
      <point x="234.48000000000002" y="394.18" type="line"/>
      <point x="234.48000000000002" y="527.6800000000001" type="line"/>
      <point x="186.98000000000002" y="485.48" type="line"/>
      <point x="186.98000000000002" y="740.0" type="line"/>
      <point x="33.68" y="740.0" type="line"/>
      <point x="33.68" y="351.82" type="line"/>
      <point x="2.58" y="324.3" type="line"/>
      <point x="2.58" y="190.94" type="line"/>
      <point x="33.68" y="218.32" type="line"/>
      <point x="33.68" y="168.32" type="line" smooth="yes"/>
      <point x="33.68" y="39.54"/>
      <point x="72.18" y="-10.0"/>
    </contour>
  </outline>
</glyph>
<glyph name="Eng" format="2">
  <advance width="431.14"/>
  <unicode hex="014A"/>
  <outline>
    <contour>
      <point x="24.94" y="0.0" type="line"/>
      <point x="160.18" y="0.0" type="line"/>
      <point x="160.18" y="323.7" type="line"/>
      <point x="256.34" y="-5.039999999999999" type="line"/>
      <point x="256.34" y="-8.7" type="line" smooth="yes"/>
      <point x="256.34" y="-28.82"/>
      <point x="243.96" y="-40.2"/>
      <point x="222.07999999999998" y="-40.2" type="curve" smooth="yes"/>
      <point x="210.62" y="-40.2"/>
      <point x="199.88" y="-40.2"/>
      <point x="183.26" y="-32.46000000000001" type="curve"/>
      <point x="154.88" y="-177.01999999999998" type="line"/>
      <point x="180.1" y="-193.36"/>
      <point x="210.62" y="-207.12"/>
      <point x="262.5" y="-207.12" type="curve" smooth="yes"/>
      <point x="356.8" y="-207.12"/>
      <point x="406.2" y="-140.36"/>
      <point x="406.2" y="-15.16" type="curve" smooth="yes"/>
      <point x="406.2" y="700.0" type="line"/>
      <point x="270.96" y="700.0" type="line"/>
      <point x="270.96" y="349.34" type="line"/>
      <point x="188.42000000000002" y="700.0" type="line"/>
      <point x="24.94" y="700.0" type="line"/>
    </contour>
  </outline>
</glyph>
<glyph name="eng" format="2">
  <advance width="395.15999999999997"/>
  <unicode hex="014B"/>
  <outline>
    <contour>
      <point x="374.38" y="18.3" type="curve"/>
      <point x="374.38" y="433.1" type="line" smooth="yes"/>
      <point x="374.38" y="510.84"/>
      <point x="340.24" y="557.2"/>
      <point x="271.86" y="557.2" type="curve" smooth="yes"/>
      <point x="230.24" y="557.2"/>
      <point x="192.36" y="542.04"/>
      <point x="162.04" y="514.42" type="curve"/>
      <point x="162.04" y="547.2" type="line"/>
      <point x="22.5" y="547.2" type="line"/>
      <point x="22.5" y="0.0" type="line"/>
      <point x="176.66" y="0.0" type="line"/>
      <point x="176.66" y="396.24" type="line"/>
      <point x="182.62" y="400.92"/>
      <point x="191.54" y="405.9"/>
      <point x="201.22" y="405.9" type="curve" smooth="yes"/>
      <point x="213.12" y="405.9"/>
      <point x="220.22" y="397.82"/>
      <point x="220.22" y="381.5" type="curve" smooth="yes"/>
      <point x="220.22" y="13.14" type="line" smooth="yes"/>
      <point x="220.22" y="-17.78"/>
      <point x="214.98" y="-33.620000000000005"/>
      <point x="204.2" y="-38.099999999999994" type="curve" smooth="yes"/>
      <point x="200.92000000000002" y="-38.80000000000001"/>
      <point x="195.06" y="-38.5"/>
      <point x="192.5" y="-38.06" type="curve"/>
      <point x="186.88" y="-212.44" type="line"/>
      <point x="203.48" y="-216.04"/>
      <point x="221.66" y="-216.92"/>
      <point x="244.14" y="-216.07999999999998" type="curve" smooth="yes"/>
      <point x="326.0" y="-210.9"/>
      <point x="374.38" y="-125.25999999999999"/>
    </contour>
  </outline>
</glyph>
<glyph name="OE" format="2">
  <advance width="555.88"/>
  <unicode hex="0152"/>
  <outline>
    <contour>
      <point x="544.02" y="0.0" type="line"/>
      <point x="544.02" y="155.88" type="line"/>
      <point x="390.2" y="155.88" type="line"/>
      <point x="390.2" y="276.46000000000004" type="line"/>
      <point x="511.28" y="276.46000000000004" type="line"/>
      <point x="511.28" y="423.74" type="line"/>
      <point x="390.2" y="423.74" type="line"/>
      <point x="390.2" y="539.8199999999999" type="line"/>
      <point x="533.16" y="539.8199999999999" type="line"/>
      <point x="533.16" y="700.0" type="line"/>
      <point x="346.34000000000003" y="700.0" type="line"/>
      <point x="304.12" y="707.3"/>
      <point x="263.64" y="709.16"/>
      <point x="230.62" y="709.16" type="curve" smooth="yes"/>
      <point x="68.8" y="709.16"/>
      <point x="11.66" y="597.36"/>
      <point x="11.66" y="353.44" type="curve" smooth="yes"/>
      <point x="11.66" y="67.72"/>
      <point x="85.46" y="-9.44"/>
      <point x="223.18" y="-9.44" type="curve" smooth="yes"/>
      <point x="262.38" y="-9.44"/>
      <point x="323.5" y="-8.3"/>
      <point x="389.34000000000003" y="0.0" type="curve"/>
    </contour>
    <contour>
      <point x="236.04" y="142.42000000000002" type="line"/>
      <point x="228.78" y="140.42000000000002"/>
      <point x="219.52" y="138.56"/>
      <point x="212.54" y="138.56" type="curve" smooth="yes"/>
      <point x="180.57999999999998" y="138.56"/>
      <point x="171.12" y="185.98000000000002"/>
      <point x="171.12" y="350.0" type="curve" smooth="yes"/>
      <point x="171.12" y="519.02"/>
      <point x="178.28" y="559.58"/>
      <point x="215.1" y="559.58" type="curve" smooth="yes"/>
      <point x="223.66" y="559.58"/>
      <point x="225.34" y="557.72"/>
      <point x="236.04" y="555.72" type="curve"/>
    </contour>
  </outline>
</glyph>
<glyph name="oe" format="2">
  <advance width="593.14"/>
  <unicode hex="0153"/>
  <outline>
    <contour>
      <point x="12.66" y="274.46" type="curve" smooth="yes"/>
      <point x="12.66" y="108.5"/>
      <point x="43.24" y="-10.0"/>
      <point x="196.51999999999998" y="-10.0" type="curve" smooth="yes"/>
      <point x="242.34" y="-10.0"/>
      <point x="274.82" y="8.940000000000001"/>
      <point x="299.86" y="34.879999999999995" type="curve"/>
      <point x="331.64" y="9.080000000000002"/>
      <point x="367.52" y="-10.0"/>
      <point x="429.24" y="-10.0" type="curve" smooth="yes"/>
      <point x="483.5" y="-10.0"/>
      <point x="532.56" y="2.88"/>
      <point x="576.34" y="24.919999999999998" type="curve"/>
      <point x="555.0" y="165.9" type="line"/>
      <point x="506.5" y="151.46"/>
      <point x="464.58" y="146.6"/>
      <point x="452.18" y="146.6" type="curve" smooth="yes"/>
      <point x="417.1" y="146.6"/>
      <point x="378.65999999999997" y="155.76"/>
      <point x="378.65999999999997" y="204.9" type="curve" smooth="yes"/>
      <point x="378.65999999999997" y="209.86"/>
      <point x="378.65999999999997" y="214.1"/>
      <point x="378.65999999999997" y="219.06" type="curve"/>
      <point x="441.3" y="223.36"/>
      <point x="545.3199999999999" y="235.8"/>
      <point x="578.6" y="240.94" type="curve"/>
      <point x="579.46" y="257.7"/>
      <point x="580.46" y="285.78"/>
      <point x="580.46" y="302.64" type="curve" smooth="yes"/>
      <point x="580.46" y="469.68"/>
      <point x="540.74" y="557.2"/>
      <point x="402.76" y="557.2" type="curve" smooth="yes"/>
      <point x="360.08" y="557.2"/>
      <point x="328.9" y="536.54"/>
      <point x="303.58" y="508.74" type="curve"/>
      <point x="272.38" y="538.98"/>
      <point x="238.04" y="557.2"/>
      <point x="196.51999999999998" y="557.2" type="curve" smooth="yes"/>
      <point x="43.24" y="557.2"/>
      <point x="12.66" y="440.42"/>
    </contour>
    <contour>
      <point x="171.98000000000002" y="274.46" type="curve" smooth="yes"/>
      <point x="171.98000000000002" y="398.62"/>
      <point x="175.92000000000002" y="411.92"/>
      <point x="196.51999999999998" y="411.92" type="curve" smooth="yes"/>
      <point x="216.26" y="411.92"/>
      <point x="221.06" y="398.62"/>
      <point x="221.06" y="274.46" type="curve" smooth="yes"/>
      <point x="221.06" y="150.3"/>
      <point x="216.26" y="136.14"/>
      <point x="196.51999999999998" y="136.14" type="curve" smooth="yes"/>
      <point x="175.92000000000002" y="136.14"/>
      <point x="171.98000000000002" y="150.3"/>
    </contour>
    <contour>
      <point x="378.65999999999997" y="314.46" type="curve"/>
      <point x="379.64" y="420.36"/>
      <point x="386.86" y="429.98"/>
      <point x="401.9" y="429.98" type="curve" smooth="yes"/>
      <point x="415.08" y="429.98"/>
      <point x="428.02" y="408.94"/>
      <point x="428.02" y="318.0" type="curve"/>
      <point x="415.48" y="316.3"/>
      <point x="394.08" y="314.46"/>
    </contour>
  </outline>
</glyph>
<glyph name="uni0162" format="2">
  <advance width="373.32"/>
  <unicode hex="0162"/>
  <outline>
    <contour>
      <point x="82.3" y="-107.28" type="curve"/>
      <point x="82.18" y="-210.0" type="line"/>
      <point x="104.64" y="-218.0"/>
      <point x="124.66" y="-220.0"/>
      <point x="144.98" y="-220.0" type="curve" smooth="yes"/>
      <point x="224.56" y="-220.0"/>
      <point x="249.6" y="-173.68"/>
      <point x="249.6" y="-111.6" type="curve" smooth="yes"/>
      <point x="249.6" y="-76.48"/>
      <point x="233.32" y="-20.2"/>
      <point x="222.45999999999998" y="5.16" type="curve"/>
      <point x="133.66" y="5.16" type="line"/>
      <point x="146.36" y="-17.58"/>
      <point x="156.78" y="-53.96"/>
      <point x="156.78" y="-72.04" type="curve" smooth="yes"/>
      <point x="156.78" y="-97.72"/>
      <point x="138.76" y="-111.84"/>
      <point x="118.62" y="-111.84" type="curve" smooth="yes"/>
      <point x="107.9" y="-111.84"/>
      <point x="98.9" y="-110.56"/>
    </contour>
    <component base="T"/>
  </outline>
</glyph>
<glyph name="Tbar" format="2">
  <advance width="373.32"/>
  <unicode hex="0166"/>
  <outline>
    <contour>
      <point x="48.5" y="260.78" type="line"/>
      <point x="110.44" y="260.78" type="line"/>
      <point x="110.44" y="0.0" type="line"/>
      <point x="263.74" y="0.0" type="line"/>
      <point x="263.74" y="260.78" type="line"/>
      <point x="323.1" y="260.78" type="line"/>
      <point x="323.1" y="404.62" type="line"/>
      <point x="263.74" y="404.62" type="line"/>
      <point x="263.74" y="540.8199999999999" type="line"/>
      <point x="364.02" y="540.8199999999999" type="line"/>
      <point x="364.02" y="700.0" type="line"/>
      <point x="9.3" y="700.0" type="line"/>
      <point x="9.3" y="540.8199999999999" type="line"/>
      <point x="110.44" y="540.8199999999999" type="line"/>
      <point x="110.44" y="404.62" type="line"/>
      <point x="48.5" y="404.62" type="line"/>
    </contour>
  </outline>
</glyph>
<glyph name="tbar" format="2">
  <advance width="273.84000000000003"/>
  <unicode hex="0167"/>
  <outline>
    <contour>
      <point x="197.24" y="249.64" type="line"/>
      <point x="251.11999999999998" y="249.64" type="line"/>
      <point x="251.11999999999998" y="360.76" type="line"/>
      <point x="197.24" y="360.76" type="line"/>
      <point x="197.24" y="415.68" type="line"/>
      <point x="258.8" y="415.68" type="line"/>
      <point x="258.8" y="547.1999999999999" type="line"/>
      <point x="197.24" y="547.1999999999999" type="line"/>
      <point x="197.24" y="655.6800000000001" type="line"/>
      <point x="64.56" y="655.6800000000001" type="line"/>
      <point x="44.08" y="547.1999999999999" type="line"/>
      <point x="5.56" y="541.1999999999999" type="line"/>
      <point x="5.56" y="416.40000000000003" type="line"/>
      <point x="44.08" y="416.40000000000003" type="line"/>
      <point x="44.08" y="360.76" type="line"/>
      <point x="10.240000000000002" y="360.76" type="line"/>
      <point x="10.240000000000002" y="249.64" type="line"/>
      <point x="44.08" y="249.64" type="line"/>
      <point x="44.08" y="175.07999999999998" type="line" smooth="yes"/>
      <point x="44.08" y="52.32"/>
      <point x="84.32" y="-10.0"/>
      <point x="168.64000000000001" y="-10.0" type="curve" smooth="yes"/>
      <point x="197.4" y="-10.0"/>
      <point x="238.92000000000002" y="-7.28"/>
      <point x="277.56" y="12.48" type="curve"/>
      <point x="254.35999999999999" y="141.56" type="line"/>
      <point x="238.64" y="138.28"/>
      <point x="230.07999999999998" y="138.0"/>
      <point x="227.39999999999998" y="138.0" type="curve" smooth="yes"/>
      <point x="209.36" y="138.0"/>
      <point x="197.24" y="148.07999999999998"/>
      <point x="197.24" y="194.0" type="curve" smooth="yes"/>
    </contour>
  </outline>
</glyph>
<glyph name="uogonek" format="2">
  <advance width="410.03999999999996"/>
  <unicode hex="0173"/>
  <outline>
    <contour>
      <point x="349.18" y="-207.24" type="curve" smooth="yes"/>
      <point x="378.1" y="-207.24"/>
      <point x="396.42" y="-203.38"/>
      <point x="413.02" y="-195.8" type="curve"/>
      <point x="405.3" y="-76.02" type="line"/>
      <point x="401.88" y="-77.44"/>
      <point x="396.88" y="-78.44"/>
      <point x="390.02" y="-78.44" type="curve" smooth="yes"/>
      <point x="376.88" y="-78.44"/>
      <point x="366.6" y="-69.44"/>
      <point x="366.6" y="-52.5" type="curve" smooth="yes"/>
      <point x="366.6" y="-29.299999999999997"/>
      <point x="377.02" y="-12.840000000000003"/>
      <point x="408.6" y="12.76" type="curve"/>
      <point x="398.15999999999997" y="153.6" type="line"/>
      <point x="394.18" y="152.04"/>
      <point x="387.76" y="150.9"/>
      <point x="383.06" y="150.9" type="curve" smooth="yes"/>
      <point x="375.22" y="150.9"/>
      <point x="371.8" y="155.46"/>
      <point x="371.8" y="175.9" type="curve" smooth="yes"/>
      <point x="371.8" y="547.2" type="line"/>
      <point x="218.5" y="547.2" type="line"/>
      <point x="218.5" y="150.95999999999998" type="line"/>
      <point x="211.68" y="144.56"/>
      <point x="201.9" y="141.3"/>
      <point x="193.94" y="141.3" type="curve" smooth="yes"/>
      <point x="184.62" y="141.3"/>
      <point x="174.94" y="146.8"/>
      <point x="174.94" y="165.7" type="curve" smooth="yes"/>
      <point x="174.94" y="547.2" type="line"/>
      <point x="20.78" y="547.2" type="line"/>
      <point x="20.78" y="139.9" type="line" smooth="yes"/>
      <point x="20.78" y="26.04"/>
      <point x="69.54" y="-10.0"/>
      <point x="131.04" y="-10.0" type="curve" smooth="yes"/>
      <point x="170.94" y="-10.0"/>
      <point x="206.24" y="5.16"/>
      <point x="235.26" y="30.48" type="curve"/>
      <point x="253.74" y="7.74"/>
      <point x="279.92" y="-10.0"/>
      <point x="318.56" y="-10.0" type="curve" smooth="yes"/>
      <point x="331.44" y="-10.0"/>
      <point x="343.6" y="-9.0"/>
      <point x="354.18" y="-7.0" type="curve"/>
      <point x="325.65999999999997" y="6.86" type="line"/>
      <point x="273.88" y="-16.840000000000003"/>
      <point x="241.1" y="-60.52"/>
      <point x="241.1" y="-109.4" type="curve" smooth="yes"/>
      <point x="241.1" y="-173.18"/>
      <point x="281.32" y="-207.24"/>
    </contour>
  </outline>
</glyph>
<glyph name="longs" format="2">
  <advance width="233.95999999999998"/>
  <unicode hex="017F"/>
  <outline>
    <contour>
      <point x="202.8" y="522.98" type="line"/>
      <point x="202.8" y="588.5"/>
      <point x="218.3" y="603.72"/>
      <point x="241.34" y="603.72" type="curve" smooth="yes"/>
      <point x="247.46" y="603.72"/>
      <point x="269.92" y="600.14"/>
      <point x="279.76" y="596.0" type="curve"/>
      <point x="303.53999999999996" y="724.08" type="line"/>
      <point x="271.92" y="738.54"/>
      <point x="238.86" y="750.0"/>
      <point x="190.6" y="750.0" type="curve" smooth="yes"/>
      <point x="96.03999999999999" y="750.0"/>
      <point x="49.5" y="670.96"/>
      <point x="49.5" y="535.88" type="curve" smooth="yes"/>
      <point x="49.5" y="522.7" type="line"/>
      <point x="5.84" y="515.84" type="line"/>
      <point x="5.84" y="391.04" type="line"/>
      <point x="49.5" y="391.04" type="line"/>
      <point x="49.5" y="0.0" type="line"/>
      <point x="202.8" y="0.0" type="line"/>
    </contour>
  </outline>
</glyph>
<glyph name="uni018F" format="2">
  <advance width="376.08"/>
  <unicode hex="018F"/>
  <outline>
    <contour>
      <point x="53.480000000000004" y="529.8000000000001" type="line"/>
      <point x="91.08" y="545.6800000000001"/>
      <point x="116.36" y="551.96"/>
      <point x="140.95999999999998" y="551.96" type="curve" smooth="yes"/>
      <point x="178.4" y="551.96"/>
      <point x="198.96" y="517.12"/>
      <point x="203.51999999999998" y="441.67999999999995" type="curve" smooth="yes"/>
      <point x="204.23999999999998" y="434.12"/>
      <point x="204.23999999999998" y="427.56"/>
      <point x="204.23999999999998" y="419.28" type="curve"/>
      <point x="136.76" y="410.68"/>
      <point x="77.47999999999999" y="401.12"/>
      <point x="16.12" y="391.4" type="curve"/>
      <point x="15.12" y="365.48"/>
      <point x="14.12" y="330.0"/>
      <point x="14.12" y="312.56" type="curve" smooth="yes"/>
      <point x="14.12" y="91.16000000000001"/>
      <point x="68.32" y="-10.0"/>
      <point x="187.20000000000002" y="-10.0" type="curve" smooth="yes"/>
      <point x="308.48" y="-10.0"/>
      <point x="364.28000000000003" y="105.88000000000001"/>
      <point x="364.28000000000003" y="360.68" type="curve" smooth="yes"/>
      <point x="364.28000000000003" y="590.8000000000001"/>
      <point x="303.2" y="709.28"/>
      <point x="186.52" y="709.28" type="curve" smooth="yes"/>
      <point x="127.56" y="709.28"/>
      <point x="76.64" y="695.4"/>
      <point x="30.28" y="665.1999999999999" type="curve"/>
    </contour>
    <contour>
      <point x="209.4" y="297.56" type="curve"/>
      <point x="208.56" y="181.16"/>
      <point x="200.04000000000002" y="130.4"/>
      <point x="180.6" y="130.4" type="curve" smooth="yes"/>
      <point x="161.88" y="130.4"/>
      <point x="156.24" y="161.64"/>
      <point x="156.24" y="290.59999999999997" type="curve"/>
      <point x="172.12" y="294.28"/>
      <point x="189.16" y="296.56"/>
    </contour>
  </outline>
</glyph>
<glyph name="florin" format="2">
  <advance width="396.2"/>
  <unicode hex="0192"/>
  <outline>
    <contour>
      <point x="76.38" y="400.34" type="line"/>
      <point x="55.32" y="274.84000000000003" type="line"/>
      <point x="97.12" y="274.84000000000003" type="line"/>
      <point x="20.02" y="-210.0" type="line"/>
      <point x="162.72" y="-210.0" type="line"/>
      <point x="239.82" y="274.84000000000003" type="line"/>
      <point x="284.46" y="274.84000000000003" type="line"/>
      <point x="305.52" y="406.36" type="line"/>
      <point x="260.88" y="406.36" type="line"/>
      <point x="271.74" y="474.96" type="line" smooth="yes"/>
      <point x="281.24" y="532.24"/>
      <point x="292.62" y="550.96"/>
      <point x="316.26" y="550.96" type="curve" smooth="yes"/>
      <point x="324.26" y="550.96"/>
      <point x="331.4" y="549.8199999999999"/>
      <point x="345.98" y="544.1" type="curve"/>
      <point x="395.26" y="684.08" type="line"/>
      <point x="361.18" y="702.84"/>
      <point x="333.84000000000003" y="710.0"/>
      <point x="296.9" y="710.0" type="curve" smooth="yes"/>
      <point x="213.26" y="710.0"/>
      <point x="156.02" y="637.1"/>
      <point x="132.48" y="495.6" type="curve" smooth="yes"/>
      <point x="118.18" y="406.36" type="line"/>
    </contour>
  </outline>
</glyph>
<glyph name="uni0237" format="2">
  <advance width="198.16"/>
  <unicode hex="0237"/>
  <anchor x="98.58" y="547.2" name="top"/>
  <outline>
    <contour>
      <point x="175.66" y="6.26" type="curve" smooth="yes"/>
      <point x="175.66" y="547.2" type="line"/>
      <point x="22.36" y="547.2" type="line"/>
      <point x="22.36" y="20.02" type="line"/>
      <point x="22.36" y="-29.82"/>
      <point x="13.68" y="-49.10000000000001"/>
      <point x="-10.0" y="-53.58" type="curve" smooth="yes"/>
      <point x="-21.02" y="-54.28"/>
      <point x="-30.32" y="-52.25999999999999"/>
      <point x="-44.06" y="-48.379999999999995" type="curve"/>
      <point x="-66.02" y="-202.98" type="line"/>
      <point x="-33.94" y="-212.6"/>
      <point x="-5.4399999999999995" y="-216.92"/>
      <point x="21.34" y="-216.07999999999998" type="curve" smooth="yes"/>
      <point x="134.16" y="-210.9"/>
      <point x="175.66" y="-138.16"/>
    </contour>
  </outline>
</glyph>
<glyph name="uni0259" format="2">
  <advance width="384.48"/>
  <unicode hex="0259"/>
  <outline>
    <contour>
      <point x="15.14" y="306.26" type="curve"/>
      <point x="14.14" y="287.94"/>
      <point x="13.28" y="259.72"/>
      <point x="13.28" y="244.56" type="curve" smooth="yes"/>
      <point x="13.28" y="77.52"/>
      <point x="53.0" y="-10.0"/>
      <point x="190.98000000000002" y="-10.0" type="curve" smooth="yes"/>
      <point x="316.9" y="-10.0"/>
      <point x="371.82" y="87.28"/>
      <point x="371.82" y="282.58" type="curve" smooth="yes"/>
      <point x="371.82" y="468.12"/>
      <point x="317.48" y="557.2"/>
      <point x="190.72" y="557.2" type="curve" smooth="yes"/>
      <point x="120.56" y="557.2"/>
      <point x="66.9" y="544.74"/>
      <point x="17.4" y="522.28" type="curve"/>
      <point x="38.74" y="381.3" type="line"/>
      <point x="87.24" y="395.74"/>
      <point x="129.44" y="400.6"/>
      <point x="141.56" y="400.6" type="curve" smooth="yes"/>
      <point x="177.2" y="400.6"/>
      <point x="210.78" y="390.6"/>
      <point x="210.78" y="338.1" type="curve" smooth="yes"/>
      <point x="210.78" y="334.53999999999996"/>
      <point x="210.78" y="331.7"/>
      <point x="210.78" y="328.14" type="curve"/>
      <point x="148.14" y="323.84000000000003"/>
      <point x="48.42" y="311.4"/>
    </contour>
    <contour>
      <point x="212.5" y="231.02" type="curve"/>
      <point x="211.52" y="128.56"/>
      <point x="205.16" y="118.94"/>
      <point x="191.84" y="118.94" type="curve" smooth="yes"/>
      <point x="179.51999999999998" y="118.94"/>
      <point x="168.3" y="139.98000000000002"/>
      <point x="168.3" y="227.48" type="curve"/>
      <point x="177.39999999999998" y="229.18"/>
      <point x="198.8" y="231.02"/>
    </contour>
  </outline>
</glyph>
<glyph name="gravecomb" format="2">
  <unicode hex="0300"/>
  <anchor x="-265.03999999999996" y="777.94" name="top"/>
  <anchor x="-201.68" y="547.2" name="_top"/>
  <outline>
    <contour>
      <point x="-263.14" y="595.14" type="line"/>
      <point x="-139.22" y="595.14" type="line"/>
      <point x="-193.28" y="789.14" type="line"/>
      <point x="-353.88" y="789.14" type="line"/>
    </contour>
  </outline>
</glyph>
<glyph name="acutecomb" format="2">
  <unicode hex="0301"/>
  <anchor x="-153.94" y="777.94" name="top"/>
  <anchor x="-201.68" y="547.2" name="_top"/>
  <outline>
    <contour>
      <point x="-258.26" y="595.14" type="line"/>
      <point x="-142.07999999999998" y="595.14" type="line"/>
      <point x="-50.480000000000004" y="789.14" type="line"/>
      <point x="-204.06" y="789.14" type="line"/>
    </contour>
  </outline>
</glyph>
<glyph name="uni0302" format="2">
  <unicode hex="0302"/>
  <anchor x="-201.68" y="776.24" name="top"/>
  <anchor x="-201.68" y="547.2" name="_top"/>
  <anchor x="-14.2" y="653.94" name="top_viet"/>
  <outline>
    <contour>
      <point x="-343.18" y="595.14" type="line"/>
      <point x="-219.4" y="595.14" type="line"/>
      <point x="-201.68" y="716.14" type="line"/>
      <point x="-184.1" y="595.14" type="line"/>
      <point x="-60.18" y="595.14" type="line"/>
      <point x="-117.72" y="789.14" type="line"/>
      <point x="-285.5" y="789.14" type="line"/>
    </contour>
  </outline>
</glyph>
<glyph name="tildecomb" format="2">
  <unicode hex="0303"/>
  <anchor x="-201.68" y="749.16" name="top"/>
  <anchor x="-201.68" y="547.1999999999999" name="_top"/>
  <outline>
    <contour>
      <point x="-345.32" y="596.4" type="curve"/>
      <point x="-262.12" y="596.4" type="line"/>
      <point x="-262.68" y="599.52"/>
      <point x="-262.24" y="606.36"/>
      <point x="-262.24" y="610.5999999999999" type="curve" smooth="yes"/>
      <point x="-262.24" y="625.28"/>
      <point x="-256.24" y="636.6800000000001"/>
      <point x="-243.95999999999998" y="636.6800000000001" type="curve" smooth="yes"/>
      <point x="-229.84" y="636.6800000000001"/>
      <point x="-169.44" y="603.28"/>
      <point x="-140.2" y="603.28" type="curve" smooth="yes"/>
      <point x="-88.56" y="603.28"/>
      <point x="-55.480000000000004" y="635.28"/>
      <point x="-55.480000000000004" y="723.44" type="curve" smooth="yes"/>
      <point x="-55.480000000000004" y="739.16"/>
      <point x="-56.480000000000004" y="755.88"/>
      <point x="-58.760000000000005" y="772.5999999999999" type="curve"/>
      <point x="-141.68" y="772.5999999999999" type="line"/>
      <point x="-141.12" y="769.92"/>
      <point x="-140.84" y="763.36"/>
      <point x="-140.84" y="759.68" type="curve" smooth="yes"/>
      <point x="-140.84" y="744.84"/>
      <point x="-147.72" y="732.48"/>
      <point x="-159.12" y="732.48" type="curve" smooth="yes"/>
      <point x="-176.08" y="732.48"/>
      <point x="-211.32" y="765.5999999999999"/>
      <point x="-261.88" y="765.5999999999999" type="curve" smooth="yes"/>
      <point x="-315.96" y="765.5999999999999"/>
      <point x="-348.6" y="728.7199999999999"/>
      <point x="-348.6" y="645.5600000000001" type="curve" smooth="yes"/>
      <point x="-348.6" y="630.84"/>
      <point x="-348.32" y="613.84"/>
    </contour>
  </outline>
</glyph>
<glyph name="uni0304" format="2">
  <unicode hex="0304"/>
  <anchor x="-201.68" y="755.74" name="top"/>
  <anchor x="-201.68" y="547.2" name="_top"/>
  <outline>
    <contour>
      <point x="-319.4" y="611.9" type="line"/>
      <point x="-83.96000000000001" y="611.9" type="line"/>
      <point x="-83.96000000000001" y="738.54" type="line"/>
      <point x="-319.4" y="738.54" type="line"/>
    </contour>
  </outline>
</glyph>
